<mxfile host="65bd71144e">
    <diagram id="FB0lLMp8adpU2UOfi77A" name="Page-1">
        <mxGraphModel dx="-429" dy="1057" grid="1" gridSize="10" guides="1" tooltips="1" connect="1" arrows="1" fold="1" page="1" pageScale="1" pageWidth="827" pageHeight="1169" math="0" shadow="0">
            <root>
                <mxCell id="-sU8y2Q3AdZbQh8XbGMl-0"/>
                <mxCell id="-sU8y2Q3AdZbQh8XbGMl-1" parent="-sU8y2Q3AdZbQh8XbGMl-0"/>
                <mxCell id="LqsbPOSO8fhI4KLYFztt-86" style="edgeStyle=orthogonalEdgeStyle;rounded=0;orthogonalLoop=1;jettySize=auto;html=1;dashed=1;dashPattern=1 1;startArrow=none;startFill=0;endArrow=classic;endFill=1;strokeColor=#F99007;strokeWidth=2;fontSize=13;" parent="-sU8y2Q3AdZbQh8XbGMl-1" edge="1">
                    <mxGeometry relative="1" as="geometry">
                        <mxPoint x="-502.1399999999999" y="1395" as="targetPoint"/>
                    </mxGeometry>
                </mxCell>
                <mxCell id="2" value="" style="rounded=0;whiteSpace=wrap;html=1;labelBackgroundColor=none;sketch=0;fontSize=45;align=center;fontFamily=Helvetica;verticalAlign=top;fillColor=#FFFFFF;fontColor=#182633;strokeColor=#182633;dashed=1;dashPattern=1 1;" parent="-sU8y2Q3AdZbQh8XbGMl-1" vertex="1">
                    <mxGeometry x="1310" y="200" width="2270" height="1830" as="geometry"/>
                </mxCell>
                <mxCell id="3" value="" style="rounded=0;whiteSpace=wrap;html=1;labelPosition=center;verticalLabelPosition=top;align=center;verticalAlign=bottom;horizontal=1;direction=south;fontSize=15;sketch=0;fillColor=none;fontFamily=Helvetica;labelBackgroundColor=none;strokeWidth=2;strokeColor=#216FF8;fontColor=#182633;" parent="-sU8y2Q3AdZbQh8XbGMl-1" vertex="1">
                    <mxGeometry x="1450" y="620" width="2030" height="1350" as="geometry"/>
                </mxCell>
                <mxCell id="4" value="Customer&amp;nbsp;&lt;br&gt;Subscription" style="verticalLabelPosition=bottom;html=1;verticalAlign=top;align=center;strokeColor=none;fillColor=#00BEF2;shape=mxgraph.azure.azure_subscription;rounded=0;dashed=1;labelBackgroundColor=none;sketch=0;fontSize=18;fontFamily=Helvetica;fontColor=#182633;" parent="-sU8y2Q3AdZbQh8XbGMl-1" vertex="1">
                    <mxGeometry x="1520" y="575" width="74.62" height="60" as="geometry"/>
                </mxCell>
                <mxCell id="27" value="&lt;span style=&quot;font-size: 18px;&quot;&gt;Network&lt;/span&gt;" style="rounded=0;whiteSpace=wrap;html=1;shadow=0;labelBackgroundColor=none;sketch=0;fontSize=18;verticalAlign=top;fillStyle=zigzag;fontFamily=Helvetica;fontStyle=0;strokeWidth=2;opacity=80;fontColor=#182633;fillColor=none;strokeColor=#216FF8;" parent="-sU8y2Q3AdZbQh8XbGMl-1" vertex="1">
                    <mxGeometry x="1865" y="1060.5" width="1595" height="180" as="geometry"/>
                </mxCell>
                <mxCell id="175" style="edgeStyle=orthogonalEdgeStyle;rounded=0;orthogonalLoop=1;jettySize=auto;html=1;dashed=1;fontFamily=Helvetica;fontSize=14;startArrow=classic;startFill=1;labelBackgroundColor=none;strokeWidth=2;fontColor=#182633;strokeColor=#182633;" parent="-sU8y2Q3AdZbQh8XbGMl-1" source="112" edge="1">
                    <mxGeometry relative="1" as="geometry">
                        <mxPoint x="2140" y="1241" as="targetPoint"/>
                        <Array as="points">
                            <mxPoint x="2140" y="1241"/>
                        </Array>
                    </mxGeometry>
                </mxCell>
                <mxCell id="176" value="Data Access&lt;br&gt;via Private Link" style="edgeLabel;html=1;align=center;verticalAlign=middle;resizable=0;points=[];fontSize=14;fontFamily=Helvetica;labelBackgroundColor=none;fontColor=#182633;" parent="175" vertex="1" connectable="0">
                    <mxGeometry x="0.0386" y="-1" relative="1" as="geometry">
                        <mxPoint x="59" y="-3" as="offset"/>
                    </mxGeometry>
                </mxCell>
                <mxCell id="112" value="&lt;span style=&quot;font-size: 18px&quot;&gt;Storage&lt;/span&gt;" style="rounded=0;whiteSpace=wrap;html=1;shadow=0;labelBackgroundColor=none;sketch=0;fontSize=18;verticalAlign=top;fillStyle=zigzag;fontFamily=Helvetica;fontStyle=0;strokeWidth=2;opacity=80;fontColor=#182633;fillColor=none;strokeColor=#216FF8;" parent="-sU8y2Q3AdZbQh8XbGMl-1" vertex="1">
                    <mxGeometry x="1865" y="1363.5" width="550" height="180" as="geometry"/>
                </mxCell>
                <mxCell id="177" style="edgeStyle=orthogonalEdgeStyle;rounded=0;orthogonalLoop=1;jettySize=auto;html=1;dashed=1;fontFamily=Helvetica;fontSize=14;startArrow=classic;startFill=1;labelBackgroundColor=none;strokeWidth=2;fontColor=#182633;strokeColor=#182633;" parent="-sU8y2Q3AdZbQh8XbGMl-1" source="113" edge="1">
                    <mxGeometry relative="1" as="geometry">
                        <mxPoint x="2790" y="1240" as="targetPoint"/>
                        <Array as="points">
                            <mxPoint x="2790" y="1240"/>
                        </Array>
                    </mxGeometry>
                </mxCell>
                <mxCell id="178" value="Credentials Access&lt;br&gt;via Private Link" style="edgeLabel;html=1;align=center;verticalAlign=middle;resizable=0;points=[];fontSize=14;fontFamily=Helvetica;labelBackgroundColor=none;fontColor=#182633;" parent="177" vertex="1" connectable="0">
                    <mxGeometry x="0.0252" y="-1" relative="1" as="geometry">
                        <mxPoint x="66" y="-3" as="offset"/>
                    </mxGeometry>
                </mxCell>
                <mxCell id="113" value="&lt;span style=&quot;font-size: 18px&quot;&gt;Credentials&lt;/span&gt;" style="rounded=0;whiteSpace=wrap;html=1;shadow=0;labelBackgroundColor=none;sketch=0;fontSize=18;verticalAlign=top;fillStyle=zigzag;fontFamily=Helvetica;fontStyle=0;strokeWidth=2;opacity=50;fontColor=#182633;fillColor=none;strokeColor=#216FF8;" parent="-sU8y2Q3AdZbQh8XbGMl-1" vertex="1">
                    <mxGeometry x="2515" y="1363.5" width="550" height="180" as="geometry"/>
                </mxCell>
                <mxCell id="160" style="edgeStyle=orthogonalEdgeStyle;rounded=0;orthogonalLoop=1;jettySize=auto;html=1;dashed=1;fontFamily=Helvetica;fontSize=18;startArrow=classic;startFill=1;endArrow=none;endFill=0;labelBackgroundColor=none;strokeWidth=2;fontColor=#182633;strokeColor=#182633;" parent="-sU8y2Q3AdZbQh8XbGMl-1" source="114" target="159" edge="1">
                    <mxGeometry relative="1" as="geometry">
                        <Array as="points">
                            <mxPoint x="2046" y="590"/>
                            <mxPoint x="2046" y="590"/>
                        </Array>
                    </mxGeometry>
                </mxCell>
                <mxCell id="167" value="Batch Processing" style="edgeLabel;html=1;align=center;verticalAlign=middle;resizable=0;points=[];fontSize=14;fontFamily=Helvetica;labelBackgroundColor=none;fontColor=#182633;" parent="160" vertex="1" connectable="0">
                    <mxGeometry x="0.0414" y="1" relative="1" as="geometry">
                        <mxPoint x="65" y="9" as="offset"/>
                    </mxGeometry>
                </mxCell>
                <mxCell id="169" style="edgeStyle=orthogonalEdgeStyle;rounded=0;orthogonalLoop=1;jettySize=auto;html=1;dashed=1;fontFamily=Helvetica;fontSize=14;startArrow=classic;startFill=1;labelBackgroundColor=none;strokeWidth=2;fontColor=#182633;strokeColor=#182633;" parent="-sU8y2Q3AdZbQh8XbGMl-1" source="114" edge="1">
                    <mxGeometry relative="1" as="geometry">
                        <mxPoint x="2046" y="1057" as="targetPoint"/>
                        <Array as="points">
                            <mxPoint x="2046" y="1057"/>
                        </Array>
                    </mxGeometry>
                </mxCell>
                <mxCell id="170" value="Data Loading" style="edgeLabel;html=1;align=center;verticalAlign=middle;resizable=0;points=[];fontSize=14;fontFamily=Helvetica;labelBackgroundColor=none;fontColor=#182633;" parent="169" vertex="1" connectable="0">
                    <mxGeometry x="-0.048" y="-3" relative="1" as="geometry">
                        <mxPoint x="57" y="1" as="offset"/>
                    </mxGeometry>
                </mxCell>
                <mxCell id="114" value="&lt;span style=&quot;font-size: 18px&quot;&gt;Data Orchestration&lt;/span&gt;" style="rounded=0;whiteSpace=wrap;html=1;shadow=0;labelBackgroundColor=none;sketch=0;fontSize=18;verticalAlign=top;fillStyle=zigzag;fontFamily=Helvetica;fontStyle=0;strokeWidth=2;opacity=80;fontColor=#182633;fillColor=none;strokeColor=#216FF8;" parent="-sU8y2Q3AdZbQh8XbGMl-1" vertex="1">
                    <mxGeometry x="1865" y="740" width="361.5" height="200" as="geometry"/>
                </mxCell>
                <mxCell id="263" style="edgeStyle=orthogonalEdgeStyle;rounded=0;orthogonalLoop=1;jettySize=auto;html=1;entryX=0;entryY=0.5;entryDx=0;entryDy=0;dashed=1;fontFamily=Helvetica;fontSize=14;startArrow=none;startFill=0;endArrow=classic;endFill=1;opacity=30;labelBackgroundColor=none;fontColor=#182633;strokeColor=#182633;" parent="-sU8y2Q3AdZbQh8XbGMl-1" source="115" target="245" edge="1">
                    <mxGeometry relative="1" as="geometry"/>
                </mxCell>
                <mxCell id="115" value="&lt;span style=&quot;font-size: 18px&quot;&gt;Data Processing&lt;/span&gt;" style="rounded=0;whiteSpace=wrap;html=1;shadow=0;labelBackgroundColor=none;sketch=0;fontSize=18;verticalAlign=top;fillStyle=zigzag;fontFamily=Helvetica;fontStyle=0;strokeWidth=2;opacity=80;fontColor=#182633;fillColor=none;strokeColor=#216FF8;" parent="-sU8y2Q3AdZbQh8XbGMl-1" vertex="1">
                    <mxGeometry x="2295" y="740" width="770" height="200" as="geometry"/>
                </mxCell>
                <mxCell id="116" value="&lt;span style=&quot;font-size: 18px&quot;&gt;CICD Framework&lt;/span&gt;" style="rounded=0;whiteSpace=wrap;html=1;shadow=0;labelBackgroundColor=none;sketch=0;fontSize=18;verticalAlign=top;fillStyle=zigzag;opacity=80;fontFamily=Helvetica;fontStyle=0;strokeWidth=2;fontColor=#182633;fillColor=none;strokeColor=#216FF8;" parent="-sU8y2Q3AdZbQh8XbGMl-1" vertex="1">
                    <mxGeometry x="1501.69" y="740.72" width="350" height="800" as="geometry"/>
                </mxCell>
                <mxCell id="LqsbPOSO8fhI4KLYFztt-14" value="Virtual Network" style="html=1;points=[];align=center;image;fontSize=14;image=img/lib/azure2/networking/Virtual_Networks.svg;rounded=0;shadow=0;glass=0;labelBackgroundColor=none;sketch=0;strokeColor=#0E8088;fillColor=#B0E3E6;fontFamily=Helvetica;fontStyle=0;fontColor=#182633;" parent="-sU8y2Q3AdZbQh8XbGMl-1" vertex="1">
                    <mxGeometry x="1910.0000000000002" y="1125.5" width="60" height="50" as="geometry"/>
                </mxCell>
                <mxCell id="119" value="Data Lake&lt;br style=&quot;font-size: 14px;&quot;&gt;Storage Account" style="html=1;points=[];align=center;image;fontSize=14;image=img/lib/azure2/storage/Storage_Accounts.svg;rounded=0;dashed=1;labelBackgroundColor=none;sketch=0;fillColor=none;fontFamily=Helvetica;fontColor=#182633;" parent="-sU8y2Q3AdZbQh8XbGMl-1" vertex="1">
                    <mxGeometry x="1905" y="1426.75" width="50" height="50" as="geometry"/>
                </mxCell>
                <mxCell id="120" value="Data Lake&lt;br&gt;Storage Gen 2" style="html=1;points=[];align=center;image;fontSize=14;image=img/lib/mscae/Data_Lake.svg;rounded=0;dashed=1;labelBackgroundColor=none;sketch=0;fillColor=none;fontFamily=Helvetica;aspect=fixed;fontColor=#182633;" parent="-sU8y2Q3AdZbQh8XbGMl-1" vertex="1">
                    <mxGeometry x="2110" y="1426.75" width="50" height="41.67" as="geometry"/>
                </mxCell>
                <mxCell id="121" value="Firewall" style="whiteSpace=wrap;html=1;labelPosition=center;verticalLabelPosition=middle;align=center;verticalAlign=top;sketch=0;fillStyle=zigzag;fontSize=14;fontFamily=Helvetica;labelBackgroundColor=none;fillColor=none;strokeColor=#216FF8;" parent="-sU8y2Q3AdZbQh8XbGMl-1" vertex="1">
                    <mxGeometry x="2208.5" y="1388.5" width="185" height="30" as="geometry"/>
                </mxCell>
                <mxCell id="122" value="IAM Access Control" style="whiteSpace=wrap;html=1;labelPosition=center;verticalLabelPosition=middle;align=center;verticalAlign=top;sketch=0;fillStyle=zigzag;fontSize=14;fontFamily=Helvetica;labelBackgroundColor=none;fillColor=none;strokeColor=#216FF8;" parent="-sU8y2Q3AdZbQh8XbGMl-1" vertex="1">
                    <mxGeometry x="2208.5" y="1438.5" width="185" height="30" as="geometry"/>
                </mxCell>
                <mxCell id="123" value="Storage Containers" style="whiteSpace=wrap;html=1;labelPosition=center;verticalLabelPosition=middle;align=center;verticalAlign=top;sketch=0;fillStyle=zigzag;fontSize=14;fontFamily=Helvetica;labelBackgroundColor=none;fillColor=none;strokeColor=#216FF8;" parent="-sU8y2Q3AdZbQh8XbGMl-1" vertex="1">
                    <mxGeometry x="2208.5" y="1488.5" width="185" height="30" as="geometry"/>
                </mxCell>
                <mxCell id="124" value="Credentials Key Vault" style="html=1;points=[];align=center;image;fontSize=14;image=img/lib/mscae/Key_Vaults.svg;sketch=0;labelBackgroundColor=none;fontFamily=Helvetica;aspect=fixed;fontColor=#182633;" parent="-sU8y2Q3AdZbQh8XbGMl-1" vertex="1">
                    <mxGeometry x="2580" y="1439.22" width="48.9" height="40.78" as="geometry"/>
                </mxCell>
                <mxCell id="125" value="Firewall" style="whiteSpace=wrap;html=1;labelPosition=center;verticalLabelPosition=middle;align=center;verticalAlign=top;sketch=0;fillStyle=zigzag;fontSize=14;fontFamily=Helvetica;labelBackgroundColor=none;fontColor=#182633;fillColor=none;strokeColor=#216FF8;" parent="-sU8y2Q3AdZbQh8XbGMl-1" vertex="1">
                    <mxGeometry x="2865" y="1385.25" width="185" height="30" as="geometry"/>
                </mxCell>
                <mxCell id="126" value="IAM Access Control" style="whiteSpace=wrap;html=1;labelPosition=center;verticalLabelPosition=middle;align=center;verticalAlign=top;sketch=0;fillStyle=zigzag;fontSize=14;fontFamily=Helvetica;labelBackgroundColor=none;fontColor=#182633;fillColor=none;strokeColor=#216FF8;" parent="-sU8y2Q3AdZbQh8XbGMl-1" vertex="1">
                    <mxGeometry x="2865" y="1436.75" width="185" height="30" as="geometry"/>
                </mxCell>
                <mxCell id="127" value="Retention Policies" style="whiteSpace=wrap;html=1;labelPosition=center;verticalLabelPosition=middle;align=center;verticalAlign=top;sketch=0;fillStyle=zigzag;fontSize=14;fontFamily=Helvetica;labelBackgroundColor=none;fontColor=#182633;fillColor=none;strokeColor=#216FF8;" parent="-sU8y2Q3AdZbQh8XbGMl-1" vertex="1">
                    <mxGeometry x="2865" y="1491.75" width="185" height="30" as="geometry"/>
                </mxCell>
                <mxCell id="128" value="Data Factory" style="html=1;points=[];align=center;image;fontSize=14;image=img/lib/azure2/databases/Data_Factory.svg;fontFamily=Helvetica;labelBackgroundColor=none;fontColor=#182633;sketch=0;" parent="-sU8y2Q3AdZbQh8XbGMl-1" vertex="1">
                    <mxGeometry x="2113.5" y="826.5" width="60" height="50" as="geometry"/>
                </mxCell>
                <mxCell id="130" style="edgeStyle=orthogonalEdgeStyle;rounded=0;orthogonalLoop=1;jettySize=auto;html=1;fontFamily=Helvetica;fontSize=14;dashed=1;labelBackgroundColor=none;fontColor=#182633;" parent="-sU8y2Q3AdZbQh8XbGMl-1" source="129" target="128" edge="1">
                    <mxGeometry relative="1" as="geometry"/>
                </mxCell>
                <mxCell id="168" value="Trigger" style="edgeLabel;html=1;align=center;verticalAlign=middle;resizable=0;points=[];fontSize=14;fontFamily=Helvetica;labelBackgroundColor=none;fontColor=#182633;" parent="130" vertex="1" connectable="0">
                    <mxGeometry x="-0.1275" relative="1" as="geometry">
                        <mxPoint x="4" y="-11" as="offset"/>
                    </mxGeometry>
                </mxCell>
                <mxCell id="129" value="Schedules" style="pointerEvents=1;shadow=0;dashed=0;html=1;strokeColor=none;fillColor=#505050;labelPosition=center;verticalLabelPosition=bottom;verticalAlign=top;outlineConnect=0;align=center;shape=mxgraph.office.concepts.clock;fontSize=14;fontFamily=Helvetica;labelBackgroundColor=none;fontColor=#182633;" parent="-sU8y2Q3AdZbQh8XbGMl-1" vertex="1">
                    <mxGeometry x="1930" y="826.5" width="55" height="50" as="geometry"/>
                </mxCell>
                <mxCell id="131" value="Databricks&lt;br&gt;Engineering Workspace" style="html=1;points=[];align=center;image;fontSize=14;image=img/lib/azure2/analytics/Azure_Databricks.svg;labelBackgroundColor=none;fontFamily=Helvetica;fontColor=#182633;" parent="-sU8y2Q3AdZbQh8XbGMl-1" vertex="1">
                    <mxGeometry x="2367.5" y="781.5" width="60" height="50" as="geometry"/>
                </mxCell>
                <mxCell id="132" value="Databricks&lt;br&gt;Analytics Workspace" style="html=1;points=[];align=center;image;fontSize=14;image=img/lib/azure2/analytics/Azure_Databricks.svg;labelBackgroundColor=none;fontFamily=Helvetica;fontColor=#182633;" parent="-sU8y2Q3AdZbQh8XbGMl-1" vertex="1">
                    <mxGeometry x="2927.5" y="781.5" width="60" height="50" as="geometry"/>
                </mxCell>
                <mxCell id="180" style="edgeStyle=orthogonalEdgeStyle;rounded=0;orthogonalLoop=1;jettySize=auto;html=1;dashed=1;fontFamily=Helvetica;fontSize=14;startArrow=none;startFill=0;labelBackgroundColor=none;strokeWidth=2;fontColor=#182633;strokeColor=#182633;" parent="-sU8y2Q3AdZbQh8XbGMl-1" source="133" edge="1">
                    <mxGeometry relative="1" as="geometry">
                        <mxPoint x="2771" y="1061" as="targetPoint"/>
                        <Array as="points">
                            <mxPoint x="2771" y="992"/>
                            <mxPoint x="2771" y="1061"/>
                        </Array>
                    </mxGeometry>
                </mxCell>
                <mxCell id="181" value="On-Demand&lt;br&gt;Compute Resources" style="edgeLabel;html=1;align=center;verticalAlign=middle;resizable=0;points=[];fontSize=14;fontFamily=Helvetica;labelBackgroundColor=none;fontColor=#182633;" parent="180" vertex="1" connectable="0">
                    <mxGeometry x="-0.1125" relative="1" as="geometry">
                        <mxPoint x="69" y="7" as="offset"/>
                    </mxGeometry>
                </mxCell>
                <mxCell id="133" value="Clusters" style="whiteSpace=wrap;html=1;shadow=0;labelBackgroundColor=none;sketch=0;fontSize=14;fontFamily=Helvetica;fontColor=#182633;fillColor=none;strokeColor=#216FF8;" parent="-sU8y2Q3AdZbQh8XbGMl-1" vertex="1">
                    <mxGeometry x="2683" y="893.5" width="175" height="30" as="geometry"/>
                </mxCell>
                <mxCell id="134" value="" style="outlineConnect=0;gradientColor=none;strokeColor=#232F3E;dashed=0;verticalLabelPosition=bottom;verticalAlign=top;align=center;html=1;fontSize=12;fontStyle=0;aspect=fixed;shape=mxgraph.aws4.resourceIcon;resIcon=mxgraph.aws4.cluster;shadow=0;labelBackgroundColor=none;sketch=0;fillColor=none;fontFamily=Helvetica;fontColor=#182633;" parent="-sU8y2Q3AdZbQh8XbGMl-1" vertex="1">
                    <mxGeometry x="2690" y="896" width="25" height="25" as="geometry"/>
                </mxCell>
                <mxCell id="135" value="Notebooks" style="whiteSpace=wrap;html=1;shadow=0;labelBackgroundColor=none;sketch=0;fontSize=14;fontFamily=Helvetica;fontColor=#182633;fillColor=none;strokeColor=#216FF8;" parent="-sU8y2Q3AdZbQh8XbGMl-1" vertex="1">
                    <mxGeometry x="2870" y="893.5" width="175" height="30" as="geometry"/>
                </mxCell>
                <mxCell id="136" value="" style="outlineConnect=0;gradientColor=none;strokeColor=none;dashed=0;verticalLabelPosition=bottom;verticalAlign=top;align=center;html=1;fontSize=12;fontStyle=0;aspect=fixed;pointerEvents=1;shape=mxgraph.aws4.notebook;shadow=0;labelBackgroundColor=none;sketch=0;fillColor=#13344C;fontFamily=Helvetica;fontColor=#182633;" parent="-sU8y2Q3AdZbQh8XbGMl-1" vertex="1">
                    <mxGeometry x="2877" y="899" width="17.44" height="20" as="geometry"/>
                </mxCell>
                <mxCell id="171" style="edgeStyle=orthogonalEdgeStyle;rounded=0;orthogonalLoop=1;jettySize=auto;html=1;dashed=1;fontFamily=Helvetica;fontSize=14;startArrow=classic;startFill=1;labelBackgroundColor=none;strokeWidth=2;fontColor=#182633;strokeColor=#182633;" parent="-sU8y2Q3AdZbQh8XbGMl-1" source="137" edge="1">
                    <mxGeometry relative="1" as="geometry">
                        <mxPoint x="2398" y="1060" as="targetPoint"/>
                        <Array as="points">
                            <mxPoint x="2398" y="1060"/>
                        </Array>
                    </mxGeometry>
                </mxCell>
                <mxCell id="172" value="Data Access" style="edgeLabel;html=1;align=center;verticalAlign=middle;resizable=0;points=[];fontSize=14;fontFamily=Helvetica;labelBackgroundColor=none;fontColor=#182633;" parent="171" vertex="1" connectable="0">
                    <mxGeometry x="0.0228" y="-2" relative="1" as="geometry">
                        <mxPoint x="49" as="offset"/>
                    </mxGeometry>
                </mxCell>
                <mxCell id="137" value="Storage Mounts" style="whiteSpace=wrap;html=1;shadow=0;labelBackgroundColor=none;sketch=0;fontSize=14;fontFamily=Helvetica;fontColor=#182633;fillColor=none;strokeColor=#216FF8;" parent="-sU8y2Q3AdZbQh8XbGMl-1" vertex="1">
                    <mxGeometry x="2310" y="892.75" width="175" height="30" as="geometry"/>
                </mxCell>
                <mxCell id="138" value="" style="verticalLabelPosition=bottom;html=1;verticalAlign=top;align=center;strokeColor=none;shape=mxgraph.azure.storage_blob;shadow=0;labelBackgroundColor=none;sketch=0;fontSize=13;fillColor=#13344C;fontFamily=Helvetica;fontColor=#182633;" parent="-sU8y2Q3AdZbQh8XbGMl-1" vertex="1">
                    <mxGeometry x="2317.5" y="901" width="20" height="15" as="geometry"/>
                </mxCell>
                <mxCell id="140" value="Private Endpoints" style="aspect=fixed;html=1;points=[];align=center;image;fontSize=14;image=img/lib/azure2/networking/Private_Endpoint.svg;labelBackgroundColor=none;fontFamily=Helvetica;fontColor=#182633;" parent="-sU8y2Q3AdZbQh8XbGMl-1" vertex="1">
                    <mxGeometry x="2050" y="1118.5" width="60" height="55" as="geometry"/>
                </mxCell>
                <mxCell id="182" style="edgeStyle=orthogonalEdgeStyle;rounded=0;orthogonalLoop=1;jettySize=auto;html=1;dashed=1;fontFamily=Helvetica;fontSize=14;startArrow=classic;startFill=1;labelBackgroundColor=none;strokeWidth=2;fontColor=#182633;strokeColor=#182633;" parent="-sU8y2Q3AdZbQh8XbGMl-1" source="143" edge="1">
                    <mxGeometry relative="1" as="geometry">
                        <mxPoint x="2585" y="1062" as="targetPoint"/>
                        <Array as="points">
                            <mxPoint x="2585" y="992"/>
                            <mxPoint x="2585" y="1062"/>
                        </Array>
                    </mxGeometry>
                </mxCell>
                <mxCell id="183" value="Credential Access" style="edgeLabel;html=1;align=center;verticalAlign=middle;resizable=0;points=[];fontSize=14;fontFamily=Helvetica;labelBackgroundColor=none;fontColor=#182633;" parent="182" vertex="1" connectable="0">
                    <mxGeometry x="-0.0038" relative="1" as="geometry">
                        <mxPoint x="70" y="7" as="offset"/>
                    </mxGeometry>
                </mxCell>
                <mxCell id="143" value="Access Tokens" style="whiteSpace=wrap;html=1;shadow=0;labelBackgroundColor=none;sketch=0;fontSize=14;fontFamily=Helvetica;fontColor=#182633;fillColor=none;strokeColor=#216FF8;" parent="-sU8y2Q3AdZbQh8XbGMl-1" vertex="1">
                    <mxGeometry x="2497" y="892.75" width="175" height="30" as="geometry"/>
                </mxCell>
                <mxCell id="144" value="" style="outlineConnect=0;gradientColor=none;strokeColor=#232F3E;dashed=0;verticalLabelPosition=bottom;verticalAlign=top;align=center;html=1;fontSize=12;fontStyle=0;aspect=fixed;shape=mxgraph.aws4.resourceIcon;resIcon=mxgraph.aws4.saml_token;shadow=0;labelBackgroundColor=none;sketch=0;fillColor=none;fontFamily=Helvetica;fontColor=#182633;" parent="-sU8y2Q3AdZbQh8XbGMl-1" vertex="1">
                    <mxGeometry x="2510" y="899" width="17" height="17" as="geometry"/>
                </mxCell>
                <mxCell id="151" value="Databricks Worker Subnets" style="whiteSpace=wrap;html=1;labelPosition=center;verticalLabelPosition=middle;align=center;verticalAlign=top;sketch=0;fillStyle=zigzag;fontSize=16;fontFamily=Helvetica;labelBackgroundColor=none;fontColor=#182633;strokeWidth=2;fillColor=none;strokeColor=#216FF8;" parent="-sU8y2Q3AdZbQh8XbGMl-1" vertex="1">
                    <mxGeometry x="2290" y="1097.5" width="775" height="127.5" as="geometry"/>
                </mxCell>
                <mxCell id="157" value="" style="group;fontSize=14;labelBackgroundColor=none;fontColor=#182633;" parent="-sU8y2Q3AdZbQh8XbGMl-1" vertex="1" connectable="0">
                    <mxGeometry x="2518.5" y="1143" width="75" height="60" as="geometry"/>
                </mxCell>
                <mxCell id="152" value="Worker" style="html=1;points=[];align=center;image;fontSize=12;image=img/lib/mscae/Databricks.svg;labelBackgroundColor=none;fontFamily=Helvetica;fontColor=#182633;" parent="157" vertex="1">
                    <mxGeometry x="17.5" y="-6.5" width="50" height="50" as="geometry"/>
                </mxCell>
                <mxCell id="150" value="NSG" style="html=1;points=[];align=center;image;fontSize=14;image=img/lib/azure2/networking/Network_Security_Groups.svg;labelBackgroundColor=none;fontFamily=Helvetica;fontColor=#182633;" parent="-sU8y2Q3AdZbQh8XbGMl-1" vertex="1">
                    <mxGeometry x="2304" y="1087" width="45" height="31.5" as="geometry"/>
                </mxCell>
                <mxCell id="247" style="edgeStyle=orthogonalEdgeStyle;rounded=0;orthogonalLoop=1;jettySize=auto;html=1;exitX=0.75;exitY=1;exitDx=0;exitDy=0;entryX=0.116;entryY=0.003;entryDx=0;entryDy=0;entryPerimeter=0;dashed=1;fontFamily=Helvetica;fontSize=14;startArrow=classic;startFill=1;endArrow=classic;endFill=1;labelBackgroundColor=none;strokeWidth=2;fontColor=#182633;strokeColor=#182633;" parent="-sU8y2Q3AdZbQh8XbGMl-1" source="159" target="115" edge="1">
                    <mxGeometry relative="1" as="geometry"/>
                </mxCell>
                <mxCell id="248" value="Data Streaming" style="edgeLabel;html=1;align=center;verticalAlign=middle;resizable=0;points=[];fontSize=14;fontFamily=Helvetica;labelBackgroundColor=none;fontColor=#182633;" parent="247" vertex="1" connectable="0">
                    <mxGeometry x="0.0673" y="1" relative="1" as="geometry">
                        <mxPoint x="60" y="-2" as="offset"/>
                    </mxGeometry>
                </mxCell>
                <mxCell id="159" value="&lt;span style=&quot;font-size: 18px&quot;&gt;Data Sources&lt;/span&gt;" style="rounded=0;whiteSpace=wrap;html=1;shadow=0;labelBackgroundColor=none;sketch=0;fontSize=18;verticalAlign=top;fillStyle=zigzag;fontFamily=Helvetica;fontStyle=0;strokeWidth=2;opacity=80;fontColor=#182633;fillColor=none;strokeColor=#216FF8;" parent="-sU8y2Q3AdZbQh8XbGMl-1" vertex="1">
                    <mxGeometry x="1866.75" y="429.55" width="690" height="120" as="geometry"/>
                </mxCell>
                <mxCell id="161" value="FTP/SFTP" style="outlineConnect=0;gradientColor=none;fillColor=#116D5B;strokeColor=none;dashed=0;verticalLabelPosition=bottom;verticalAlign=top;align=center;html=1;fontSize=14;fontStyle=0;aspect=fixed;shape=mxgraph.aws4.transfer_for_ftp_resource;labelBackgroundColor=none;fontFamily=Helvetica;fontColor=#182633;" parent="-sU8y2Q3AdZbQh8XbGMl-1" vertex="1">
                    <mxGeometry x="1971.75" y="465.05" width="38" height="39" as="geometry"/>
                </mxCell>
                <mxCell id="163" value="APIs" style="html=1;fillColor=#5184F3;strokeColor=none;verticalAlign=top;labelPosition=center;verticalLabelPosition=bottom;align=center;spacingTop=-6;fontSize=14;fontStyle=0;shape=mxgraph.gcp2.hexIcon;prIcon=cloud_apis;labelBackgroundColor=none;fontFamily=Helvetica;fontColor=#182633;" parent="-sU8y2Q3AdZbQh8XbGMl-1" vertex="1">
                    <mxGeometry x="2072.75" y="465.05" width="60" height="49" as="geometry"/>
                </mxCell>
                <mxCell id="164" value="Amazon S3" style="points=[[0,0,0],[0.25,0,0],[0.5,0,0],[0.75,0,0],[1,0,0],[0,1,0],[0.25,1,0],[0.5,1,0],[0.75,1,0],[1,1,0],[0,0.25,0],[0,0.5,0],[0,0.75,0],[1,0.25,0],[1,0.5,0],[1,0.75,0]];outlineConnect=0;gradientColor=#60A337;gradientDirection=north;fillColor=#277116;strokeColor=#ffffff;dashed=0;verticalLabelPosition=bottom;verticalAlign=top;align=center;html=1;fontSize=14;fontStyle=0;aspect=fixed;shape=mxgraph.aws4.resourceIcon;resIcon=mxgraph.aws4.s3;labelBackgroundColor=none;fontFamily=Helvetica;fontColor=#182633;" parent="-sU8y2Q3AdZbQh8XbGMl-1" vertex="1">
                    <mxGeometry x="2193.75" y="465.05" width="39.5" height="39.5" as="geometry"/>
                </mxCell>
                <mxCell id="165" value="Azure Blob" style="verticalLabelPosition=bottom;html=1;verticalAlign=top;align=center;strokeColor=none;fillColor=#00BEF2;shape=mxgraph.azure.storage_blob;labelBackgroundColor=none;fontFamily=Helvetica;fontSize=14;fontColor=#182633;" parent="-sU8y2Q3AdZbQh8XbGMl-1" vertex="1">
                    <mxGeometry x="2300.75" y="465.05" width="50" height="39.5" as="geometry"/>
                </mxCell>
                <mxCell id="166" value="More..." style="html=1;verticalLabelPosition=bottom;align=center;labelBackgroundColor=none;verticalAlign=top;strokeWidth=2;strokeColor=#0080F0;shadow=0;dashed=0;shape=mxgraph.ios7.icons.data;fontFamily=Helvetica;fontSize=14;fontColor=#182633;" parent="-sU8y2Q3AdZbQh8XbGMl-1" vertex="1">
                    <mxGeometry x="2421.75" y="465.05" width="30" height="39.1" as="geometry"/>
                </mxCell>
                <mxCell id="186" value="Azure DevOps" style="aspect=fixed;html=1;points=[];align=center;image;fontSize=14;image=img/lib/azure2/devops/Azure_DevOps.svg;labelBackgroundColor=none;fontFamily=Helvetica;strokeColor=#3399FF;fontColor=#182633;" parent="-sU8y2Q3AdZbQh8XbGMl-1" vertex="1">
                    <mxGeometry x="1623" y="826.5" width="64" height="64" as="geometry"/>
                </mxCell>
                <mxCell id="192" value="Azure Databricks" style="whiteSpace=wrap;html=1;labelPosition=center;verticalLabelPosition=middle;align=center;verticalAlign=top;sketch=0;fillStyle=zigzag;fontSize=14;fontFamily=Helvetica;labelBackgroundColor=none;fontColor=#182633;strokeWidth=2;strokeColor=#216FF8;" parent="-sU8y2Q3AdZbQh8XbGMl-1" vertex="1">
                    <mxGeometry x="1526.25" y="1157" width="257.5" height="133" as="geometry"/>
                </mxCell>
                <mxCell id="193" value="Repo" style="aspect=fixed;html=1;points=[];align=left;image;fontSize=14;image=img/lib/mscae/Azure_Repos.svg;labelBackgroundColor=none;fontFamily=Helvetica;labelPosition=right;verticalLabelPosition=middle;verticalAlign=middle;fontColor=#182633;strokeColor=#216FF8;" parent="-sU8y2Q3AdZbQh8XbGMl-1" vertex="1">
                    <mxGeometry x="1543.81" y="1182" width="27" height="30" as="geometry"/>
                </mxCell>
                <mxCell id="194" value="Pipeline" style="html=1;points=[];align=center;image;fontSize=14;image=img/lib/mscae/Azure_Pipelines.svg;labelBackgroundColor=none;fontFamily=Helvetica;fontColor=#182633;strokeColor=#216FF8;" parent="-sU8y2Q3AdZbQh8XbGMl-1" vertex="1">
                    <mxGeometry x="1541.81" y="1230" width="27" height="30" as="geometry"/>
                </mxCell>
                <mxCell id="197" style="edgeStyle=orthogonalEdgeStyle;rounded=0;orthogonalLoop=1;jettySize=auto;html=1;dashed=1;fontFamily=Helvetica;fontSize=14;startArrow=none;startFill=0;labelBackgroundColor=none;fontColor=#182633;strokeColor=#216FF8;" parent="-sU8y2Q3AdZbQh8XbGMl-1" source="195" target="196" edge="1">
                    <mxGeometry relative="1" as="geometry"/>
                </mxCell>
                <mxCell id="195" value="Dev" style="whiteSpace=wrap;html=1;labelPosition=center;verticalLabelPosition=middle;align=center;verticalAlign=top;sketch=0;fillStyle=zigzag;fontSize=14;fontFamily=Helvetica;labelBackgroundColor=none;fillColor=none;fontColor=#182633;strokeColor=#216FF8;" parent="-sU8y2Q3AdZbQh8XbGMl-1" vertex="1">
                    <mxGeometry x="1594.62" y="1241.76" width="45.38" height="27.48" as="geometry"/>
                </mxCell>
                <mxCell id="199" style="edgeStyle=orthogonalEdgeStyle;rounded=0;orthogonalLoop=1;jettySize=auto;html=1;dashed=1;fontFamily=Helvetica;fontSize=14;startArrow=none;startFill=0;labelBackgroundColor=none;fontColor=#182633;strokeColor=#216FF8;" parent="-sU8y2Q3AdZbQh8XbGMl-1" source="196" target="198" edge="1">
                    <mxGeometry relative="1" as="geometry"/>
                </mxCell>
                <mxCell id="196" value="Test" style="whiteSpace=wrap;html=1;labelPosition=center;verticalLabelPosition=middle;align=center;verticalAlign=top;sketch=0;fillStyle=zigzag;fontSize=14;fontFamily=Helvetica;labelBackgroundColor=none;fillColor=none;fontColor=#182633;strokeColor=#216FF8;" parent="-sU8y2Q3AdZbQh8XbGMl-1" vertex="1">
                    <mxGeometry x="1654" y="1241.76" width="45.38" height="27.48" as="geometry"/>
                </mxCell>
                <mxCell id="198" value="Prod" style="whiteSpace=wrap;html=1;labelPosition=center;verticalLabelPosition=middle;align=center;verticalAlign=top;sketch=0;fillStyle=zigzag;fontSize=14;fontFamily=Helvetica;labelBackgroundColor=none;fillColor=none;fontColor=#182633;strokeColor=#216FF8;" parent="-sU8y2Q3AdZbQh8XbGMl-1" vertex="1">
                    <mxGeometry x="1712.62" y="1241.76" width="45.38" height="27.48" as="geometry"/>
                </mxCell>
                <mxCell id="200" value="Azure Data Factory" style="whiteSpace=wrap;html=1;labelPosition=center;verticalLabelPosition=middle;align=center;verticalAlign=top;sketch=0;fillStyle=zigzag;fontSize=14;fontFamily=Helvetica;labelBackgroundColor=none;fontColor=#182633;strokeWidth=2;strokeColor=#216FF8;" parent="-sU8y2Q3AdZbQh8XbGMl-1" vertex="1">
                    <mxGeometry x="1526.25" y="955.5" width="257.5" height="133" as="geometry"/>
                </mxCell>
                <mxCell id="201" value="Repo" style="aspect=fixed;html=1;points=[];align=left;image;fontSize=14;image=img/lib/mscae/Azure_Repos.svg;labelBackgroundColor=none;fontFamily=Helvetica;labelPosition=right;verticalLabelPosition=middle;verticalAlign=middle;fontColor=#182633;strokeColor=#216FF8;" parent="-sU8y2Q3AdZbQh8XbGMl-1" vertex="1">
                    <mxGeometry x="1543.81" y="980.5" width="27" height="30" as="geometry"/>
                </mxCell>
                <mxCell id="202" value="Pipeline" style="html=1;points=[];align=center;image;fontSize=14;image=img/lib/mscae/Azure_Pipelines.svg;labelBackgroundColor=none;fontFamily=Helvetica;fontColor=#182633;strokeColor=#216FF8;" parent="-sU8y2Q3AdZbQh8XbGMl-1" vertex="1">
                    <mxGeometry x="1543.81" y="1033.5" width="27" height="30" as="geometry"/>
                </mxCell>
                <mxCell id="203" style="edgeStyle=orthogonalEdgeStyle;rounded=0;orthogonalLoop=1;jettySize=auto;html=1;dashed=1;fontFamily=Helvetica;fontSize=14;startArrow=none;startFill=0;labelBackgroundColor=none;fontColor=#182633;strokeColor=#216FF8;" parent="-sU8y2Q3AdZbQh8XbGMl-1" source="204" target="206" edge="1">
                    <mxGeometry relative="1" as="geometry"/>
                </mxCell>
                <mxCell id="204" value="Dev" style="whiteSpace=wrap;html=1;labelPosition=center;verticalLabelPosition=middle;align=center;verticalAlign=top;sketch=0;fillStyle=zigzag;fontSize=14;fontFamily=Helvetica;labelBackgroundColor=none;fillColor=none;fontColor=#182633;strokeColor=#216FF8;" parent="-sU8y2Q3AdZbQh8XbGMl-1" vertex="1">
                    <mxGeometry x="1594.62" y="1040.26" width="45.38" height="27.48" as="geometry"/>
                </mxCell>
                <mxCell id="205" style="edgeStyle=orthogonalEdgeStyle;rounded=0;orthogonalLoop=1;jettySize=auto;html=1;dashed=1;fontFamily=Helvetica;fontSize=14;startArrow=none;startFill=0;labelBackgroundColor=none;fontColor=#182633;strokeColor=#216FF8;" parent="-sU8y2Q3AdZbQh8XbGMl-1" source="206" target="207" edge="1">
                    <mxGeometry relative="1" as="geometry"/>
                </mxCell>
                <mxCell id="206" value="Test" style="whiteSpace=wrap;html=1;labelPosition=center;verticalLabelPosition=middle;align=center;verticalAlign=top;sketch=0;fillStyle=zigzag;fontSize=14;fontFamily=Helvetica;labelBackgroundColor=none;fillColor=none;fontColor=#182633;strokeColor=#216FF8;" parent="-sU8y2Q3AdZbQh8XbGMl-1" vertex="1">
                    <mxGeometry x="1654" y="1040.26" width="45.38" height="27.48" as="geometry"/>
                </mxCell>
                <mxCell id="207" value="Prod" style="whiteSpace=wrap;html=1;labelPosition=center;verticalLabelPosition=middle;align=center;verticalAlign=top;sketch=0;fillStyle=zigzag;fontSize=14;fontFamily=Helvetica;labelBackgroundColor=none;fillColor=none;fontColor=#182633;strokeColor=#216FF8;" parent="-sU8y2Q3AdZbQh8XbGMl-1" vertex="1">
                    <mxGeometry x="1712.62" y="1040.26" width="45.38" height="27.48" as="geometry"/>
                </mxCell>
                <mxCell id="208" value="Data Build Tool" style="whiteSpace=wrap;html=1;labelPosition=center;verticalLabelPosition=middle;align=center;verticalAlign=top;sketch=0;fillStyle=zigzag;fontSize=14;fontFamily=Helvetica;labelBackgroundColor=none;fontColor=#182633;strokeWidth=2;strokeColor=#216FF8;" parent="-sU8y2Q3AdZbQh8XbGMl-1" vertex="1">
                    <mxGeometry x="1526.25" y="1358.75" width="257.5" height="133" as="geometry"/>
                </mxCell>
                <mxCell id="209" value="Repo" style="aspect=fixed;html=1;points=[];align=left;image;fontSize=14;image=img/lib/mscae/Azure_Repos.svg;labelBackgroundColor=none;fontFamily=Helvetica;labelPosition=right;verticalLabelPosition=middle;verticalAlign=middle;fontColor=#182633;strokeColor=#216FF8;" parent="-sU8y2Q3AdZbQh8XbGMl-1" vertex="1">
                    <mxGeometry x="1543.81" y="1383.75" width="27" height="30" as="geometry"/>
                </mxCell>
                <mxCell id="210" value="Pipeline" style="html=1;points=[];align=center;image;fontSize=14;image=img/lib/mscae/Azure_Pipelines.svg;labelBackgroundColor=none;fontFamily=Helvetica;fontColor=#182633;strokeColor=#216FF8;" parent="-sU8y2Q3AdZbQh8XbGMl-1" vertex="1">
                    <mxGeometry x="1543.81" y="1437.25" width="27" height="30" as="geometry"/>
                </mxCell>
                <mxCell id="211" style="edgeStyle=orthogonalEdgeStyle;rounded=0;orthogonalLoop=1;jettySize=auto;html=1;dashed=1;fontFamily=Helvetica;fontSize=14;startArrow=none;startFill=0;labelBackgroundColor=none;fontColor=#182633;strokeColor=#216FF8;" parent="-sU8y2Q3AdZbQh8XbGMl-1" source="212" target="214" edge="1">
                    <mxGeometry relative="1" as="geometry"/>
                </mxCell>
                <mxCell id="212" value="Dev" style="whiteSpace=wrap;html=1;labelPosition=center;verticalLabelPosition=middle;align=center;verticalAlign=top;sketch=0;fillStyle=zigzag;fontSize=14;fontFamily=Helvetica;labelBackgroundColor=none;fillColor=none;fontColor=#182633;strokeColor=#216FF8;" parent="-sU8y2Q3AdZbQh8XbGMl-1" vertex="1">
                    <mxGeometry x="1594.62" y="1443.51" width="45.38" height="27.48" as="geometry"/>
                </mxCell>
                <mxCell id="213" style="edgeStyle=orthogonalEdgeStyle;rounded=0;orthogonalLoop=1;jettySize=auto;html=1;dashed=1;fontFamily=Helvetica;fontSize=14;startArrow=none;startFill=0;labelBackgroundColor=none;fontColor=#182633;strokeColor=#216FF8;" parent="-sU8y2Q3AdZbQh8XbGMl-1" source="214" target="215" edge="1">
                    <mxGeometry relative="1" as="geometry"/>
                </mxCell>
                <mxCell id="214" value="Test" style="whiteSpace=wrap;html=1;labelPosition=center;verticalLabelPosition=middle;align=center;verticalAlign=top;sketch=0;fillStyle=zigzag;fontSize=14;fontFamily=Helvetica;labelBackgroundColor=none;fillColor=none;fontColor=#182633;strokeColor=#216FF8;" parent="-sU8y2Q3AdZbQh8XbGMl-1" vertex="1">
                    <mxGeometry x="1654" y="1443.51" width="45.38" height="27.48" as="geometry"/>
                </mxCell>
                <mxCell id="215" value="Prod" style="whiteSpace=wrap;html=1;labelPosition=center;verticalLabelPosition=middle;align=center;verticalAlign=top;sketch=0;fillStyle=zigzag;fontSize=14;fontFamily=Helvetica;labelBackgroundColor=none;fillColor=none;fontColor=#182633;strokeColor=#216FF8;" parent="-sU8y2Q3AdZbQh8XbGMl-1" vertex="1">
                    <mxGeometry x="1712.62" y="1443.51" width="45.38" height="27.48" as="geometry"/>
                </mxCell>
                <mxCell id="218" value="&lt;span style=&quot;font-size: 18px&quot;&gt;Identity and Access Management&lt;/span&gt;" style="rounded=0;whiteSpace=wrap;html=1;shadow=0;labelBackgroundColor=none;sketch=0;fontSize=18;verticalAlign=top;fillStyle=zigzag;fontFamily=Helvetica;fontStyle=0;strokeWidth=2;fillColor=none;strokeColor=#216FF8;" parent="-sU8y2Q3AdZbQh8XbGMl-1" vertex="1">
                    <mxGeometry x="3110" y="1360" width="350" height="560" as="geometry"/>
                </mxCell>
                <mxCell id="222" value="Role Based Access Control" style="whiteSpace=wrap;html=1;labelPosition=center;verticalLabelPosition=middle;align=center;verticalAlign=top;sketch=0;fillStyle=zigzag;fontSize=16;fontFamily=Helvetica;labelBackgroundColor=none;opacity=20;strokeWidth=2;strokeColor=#216FF8;" parent="-sU8y2Q3AdZbQh8XbGMl-1" vertex="1">
                    <mxGeometry x="3152.5" y="1524" width="260" height="178.5" as="geometry"/>
                </mxCell>
                <mxCell id="223" value="Analysts" style="aspect=fixed;html=1;points=[];align=center;image;fontSize=13;image=img/lib/azure2/management_governance/User_Privacy.svg;rounded=0;dashed=1;labelBackgroundColor=none;sketch=0;fillColor=none;fontFamily=Helvetica;" parent="-sU8y2Q3AdZbQh8XbGMl-1" vertex="1">
                    <mxGeometry x="3326.52" y="1612.5" width="49.88" height="53" as="geometry"/>
                </mxCell>
                <mxCell id="224" value="Engineers" style="aspect=fixed;html=1;points=[];align=center;image;fontSize=13;image=img/lib/azure2/management_governance/User_Privacy.svg;rounded=0;dashed=1;labelBackgroundColor=none;sketch=0;fillColor=none;fontFamily=Helvetica;" parent="-sU8y2Q3AdZbQh8XbGMl-1" vertex="1">
                    <mxGeometry x="3188.6" y="1612.5" width="49.88" height="53" as="geometry"/>
                </mxCell>
                <mxCell id="225" value="Azure AD" style="verticalLabelPosition=bottom;html=1;verticalAlign=top;align=center;strokeColor=none;fillColor=#00BEF2;shape=mxgraph.azure.azure_active_directory;labelBackgroundColor=none;sketch=0;fontFamily=Helvetica;fontSize=14;" parent="-sU8y2Q3AdZbQh8XbGMl-1" vertex="1">
                    <mxGeometry x="3250.5" y="1430" width="64" height="64" as="geometry"/>
                </mxCell>
                <mxCell id="227" value="Admins" style="aspect=fixed;html=1;points=[];align=center;image;fontSize=13;image=img/lib/azure2/management_governance/User_Privacy.svg;rounded=0;dashed=1;labelBackgroundColor=none;sketch=0;fillColor=none;fontFamily=Helvetica;" parent="-sU8y2Q3AdZbQh8XbGMl-1" vertex="1">
                    <mxGeometry x="3257.56" y="1559.5" width="49.88" height="53" as="geometry"/>
                </mxCell>
                <mxCell id="230" value="Tokens" style="whiteSpace=wrap;html=1;labelPosition=center;verticalLabelPosition=middle;align=center;verticalAlign=top;sketch=0;fillStyle=zigzag;fontSize=16;fontFamily=Helvetica;labelBackgroundColor=none;opacity=20;strokeWidth=2;strokeColor=#216FF8;" parent="-sU8y2Q3AdZbQh8XbGMl-1" vertex="1">
                    <mxGeometry x="3152.5" y="1747.25" width="265" height="100" as="geometry"/>
                </mxCell>
                <mxCell id="233" value="Databricks&lt;br&gt;Service Principals" style="outlineConnect=0;gradientColor=none;strokeColor=#232F3E;dashed=0;verticalLabelPosition=bottom;verticalAlign=top;align=center;html=1;fontSize=12;fontStyle=0;aspect=fixed;shape=mxgraph.aws4.resourceIcon;resIcon=mxgraph.aws4.saml_token;fillColor=none;fontFamily=Helvetica;labelBackgroundColor=none;" parent="-sU8y2Q3AdZbQh8XbGMl-1" vertex="1">
                    <mxGeometry x="3188.6000000000004" y="1768.75" width="34" height="34" as="geometry"/>
                </mxCell>
                <mxCell id="235" value="&lt;span style=&quot;font-size: 18px;&quot;&gt;Monitoring Famework&lt;/span&gt;" style="whiteSpace=wrap;html=1;verticalAlign=top;fontSize=18;sketch=0;shadow=0;glass=0;rounded=0;fillStyle=zigzag;fontFamily=Helvetica;fontStyle=0;labelBackgroundColor=none;strokeWidth=2;fontColor=#182633;fillColor=none;strokeColor=#216FF8;" parent="-sU8y2Q3AdZbQh8XbGMl-1" vertex="1">
                    <mxGeometry x="1500" y="1581" width="1570" height="136.75" as="geometry"/>
                </mxCell>
                <mxCell id="236" value="Metrics" style="aspect=fixed;html=1;points=[];align=center;image;fontSize=14;image=img/lib/azure2/management_governance/Monitor.svg;rounded=1;shadow=0;glass=0;labelBackgroundColor=none;sketch=0;fillColor=#F0F0F0;opacity=20;fontFamily=Helvetica;strokeWidth=1;fontColor=#182633;" parent="-sU8y2Q3AdZbQh8XbGMl-1" vertex="1">
                    <mxGeometry x="1748.25" y="1621.38" width="51" height="51" as="geometry"/>
                </mxCell>
                <mxCell id="237" value="Cost Alerts" style="aspect=fixed;html=1;points=[];align=center;image;fontSize=14;image=img/lib/azure2/general/Cost_Alerts.svg;rounded=1;shadow=0;glass=0;labelBackgroundColor=none;sketch=0;fillColor=#F0F0F0;opacity=20;fontFamily=Helvetica;strokeWidth=1;fontColor=#182633;" parent="-sU8y2Q3AdZbQh8XbGMl-1" vertex="1">
                    <mxGeometry x="1992" y="1621.38" width="59.82" height="50" as="geometry"/>
                </mxCell>
                <mxCell id="238" value="Azure DevOps Pipeline Alerts" style="aspect=fixed;html=1;points=[];align=center;image;fontSize=14;image=img/lib/azure2/management_governance/Alerts.svg;shadow=0;labelBackgroundColor=none;sketch=0;strokeColor=#13344c;fillColor=#13344C;opacity=20;fontFamily=Helvetica;strokeWidth=1;fontColor=#182633;" parent="-sU8y2Q3AdZbQh8XbGMl-1" vertex="1">
                    <mxGeometry x="2237" y="1621.38" width="67" height="56.00000000000001" as="geometry"/>
                </mxCell>
                <mxCell id="239" value="Data Job Alerts" style="aspect=fixed;html=1;points=[];align=center;image;fontSize=14;image=img/lib/azure2/management_governance/Alerts.svg;shadow=0;labelBackgroundColor=none;sketch=0;strokeColor=#13344c;fillColor=#13344C;opacity=20;fontFamily=Helvetica;strokeWidth=1;fontColor=#182633;" parent="-sU8y2Q3AdZbQh8XbGMl-1" vertex="1">
                    <mxGeometry x="2486" y="1621.38" width="67" height="56.00000000000001" as="geometry"/>
                </mxCell>
                <mxCell id="240" value="Data Pipeline Alerts" style="aspect=fixed;html=1;points=[];align=center;image;fontSize=14;image=img/lib/azure2/management_governance/Alerts.svg;shadow=0;labelBackgroundColor=none;sketch=0;strokeColor=#13344c;fillColor=#13344C;opacity=20;fontFamily=Helvetica;strokeWidth=1;fontColor=#182633;" parent="-sU8y2Q3AdZbQh8XbGMl-1" vertex="1">
                    <mxGeometry x="2734.75" y="1621.38" width="67" height="56.00000000000001" as="geometry"/>
                </mxCell>
                <mxCell id="241" value="&lt;span style=&quot;font-size: 18px;&quot;&gt;Security Framework&lt;/span&gt;" style="whiteSpace=wrap;html=1;verticalAlign=top;fontSize=18;sketch=0;shadow=0;glass=0;rounded=0;fillStyle=zigzag;fontFamily=Helvetica;fontStyle=0;labelBackgroundColor=none;strokeWidth=2;fontColor=#182633;fillColor=none;strokeColor=#216FF8;" parent="-sU8y2Q3AdZbQh8XbGMl-1" vertex="1">
                    <mxGeometry x="1500" y="1754" width="1570" height="166" as="geometry"/>
                </mxCell>
                <mxCell id="242" value="Firewall&lt;br style=&quot;font-size: 14px;&quot;&gt;Access Control" style="aspect=fixed;html=1;points=[];align=center;image;fontSize=14;image=img/lib/mscae/Azure_Firewall.svg;rounded=0;dashed=1;labelBackgroundColor=none;sketch=0;fillColor=none;fontFamily=Helvetica;fontColor=#182633;" parent="-sU8y2Q3AdZbQh8XbGMl-1" vertex="1">
                    <mxGeometry x="2064" y="1805.0000000000002" width="50" height="50" as="geometry"/>
                </mxCell>
                <mxCell id="243" value="Role Based&lt;br style=&quot;font-size: 14px;&quot;&gt;Identity and Access&lt;br style=&quot;font-size: 14px;&quot;&gt;Managaement" style="aspect=fixed;html=1;points=[];align=center;image;fontSize=14;image=img/lib/azure2/management_governance/User_Privacy.svg;rounded=0;dashed=1;labelBackgroundColor=none;sketch=0;fillColor=none;fontFamily=Helvetica;fontColor=#182633;" parent="-sU8y2Q3AdZbQh8XbGMl-1" vertex="1">
                    <mxGeometry x="2247" y="1805.0000000000002" width="49.88" height="53" as="geometry"/>
                </mxCell>
                <mxCell id="244" value="Logs and Auditing" style="aspect=fixed;html=1;points=[];align=center;image;fontSize=14;image=img/lib/azure2/analytics/Log_Analytics_Workspaces.svg;shadow=0;labelBackgroundColor=none;sketch=0;strokeColor=#000000;fillColor=#F5F5F5;opacity=20;fontFamily=Helvetica;fontColor=#182633;" parent="-sU8y2Q3AdZbQh8XbGMl-1" vertex="1">
                    <mxGeometry x="2422" y="1805.0000000000002" width="64" height="64" as="geometry"/>
                </mxCell>
                <mxCell id="245" value="&lt;span style=&quot;font-size: 18px&quot;&gt;&lt;font&gt;Results&lt;/font&gt;&lt;/span&gt;" style="rounded=0;whiteSpace=wrap;html=1;shadow=0;labelBackgroundColor=none;sketch=0;fontSize=18;verticalAlign=top;fillStyle=zigzag;fontFamily=Helvetica;fontStyle=0;opacity=80;strokeWidth=2;fontColor=#182633;fillColor=none;strokeColor=#216FF8;" parent="-sU8y2Q3AdZbQh8XbGMl-1" vertex="1">
                    <mxGeometry x="3130" y="740.72" width="330" height="200" as="geometry"/>
                </mxCell>
                <mxCell id="246" value="&lt;font&gt;Results&lt;br&gt;Serving&lt;/font&gt;" style="aspect=fixed;html=1;points=[];align=center;image;fontSize=14;image=img/lib/azure2/databases/SQL_Database.svg;dashed=1;labelBackgroundColor=none;fontFamily=Helvetica;strokeColor=#3399FF;opacity=50;fontColor=#182633;" parent="-sU8y2Q3AdZbQh8XbGMl-1" vertex="1">
                    <mxGeometry x="3271" y="808.72" width="48" height="64" as="geometry"/>
                </mxCell>
                <mxCell id="153" value="&lt;font style=&quot;font-size: 14px;&quot;&gt;Worker&lt;/font&gt;" style="html=1;points=[];align=center;image;fontSize=14;image=img/lib/mscae/Databricks.svg;labelBackgroundColor=none;fontFamily=Helvetica;fontColor=#182633;" parent="-sU8y2Q3AdZbQh8XbGMl-1" vertex="1">
                    <mxGeometry x="2756.5" y="1140" width="50" height="50" as="geometry"/>
                </mxCell>
                <mxCell id="154" value="Worker" style="html=1;points=[];align=center;image;fontSize=14;image=img/lib/mscae/Databricks.svg;labelBackgroundColor=none;fontFamily=Helvetica;fontColor=#182633;" parent="-sU8y2Q3AdZbQh8XbGMl-1" vertex="1">
                    <mxGeometry x="2644" y="1140" width="50" height="50" as="geometry"/>
                </mxCell>
                <mxCell id="253" style="edgeStyle=orthogonalEdgeStyle;rounded=0;orthogonalLoop=1;jettySize=auto;html=1;exitX=0.25;exitY=1;exitDx=0;exitDy=0;entryX=0.665;entryY=0;entryDx=0;entryDy=0;entryPerimeter=0;dashed=1;fontFamily=Helvetica;fontSize=14;startArrow=classic;startFill=1;endArrow=classic;endFill=1;labelBackgroundColor=none;strokeWidth=2;fontColor=#182633;strokeColor=#182633;" parent="-sU8y2Q3AdZbQh8XbGMl-1" source="249" target="115" edge="1">
                    <mxGeometry relative="1" as="geometry"/>
                </mxCell>
                <mxCell id="254" value="Databricks Workspace Acess" style="edgeLabel;html=1;align=center;verticalAlign=middle;resizable=0;points=[];fontSize=14;fontFamily=Helvetica;labelBackgroundColor=none;fontColor=#182633;" parent="253" vertex="1" connectable="0">
                    <mxGeometry x="0.2114" y="1" relative="1" as="geometry">
                        <mxPoint x="100" y="-4" as="offset"/>
                    </mxGeometry>
                </mxCell>
                <mxCell id="255" value="Databricks JDBC/OBDC Access" style="edgeLabel;html=1;align=center;verticalAlign=middle;resizable=0;points=[];fontSize=14;fontFamily=Helvetica;labelBackgroundColor=none;fontColor=#182633;" parent="253" vertex="1" connectable="0">
                    <mxGeometry x="0.5791" y="6" relative="1" as="geometry">
                        <mxPoint x="104" y="-10" as="offset"/>
                    </mxGeometry>
                </mxCell>
                <mxCell id="262" value="&lt;font&gt;&amp;nbsp;SQL&lt;br&gt;JDBC/ODBC&lt;/font&gt;" style="edgeStyle=orthogonalEdgeStyle;rounded=0;orthogonalLoop=1;jettySize=auto;html=1;exitX=0.75;exitY=1;exitDx=0;exitDy=0;entryX=0.344;entryY=0.006;entryDx=0;entryDy=0;entryPerimeter=0;dashed=1;fontFamily=Helvetica;fontSize=14;startArrow=classic;startFill=1;endArrow=classic;endFill=1;labelBackgroundColor=none;strokeWidth=2;fontColor=#182633;strokeColor=#182633;" parent="-sU8y2Q3AdZbQh8XbGMl-1" source="249" target="245" edge="1">
                    <mxGeometry x="0.1508" y="51" relative="1" as="geometry">
                        <mxPoint y="-1" as="offset"/>
                    </mxGeometry>
                </mxCell>
                <mxCell id="249" value="&lt;span style=&quot;font-size: 18px&quot;&gt;Data Usage&lt;/span&gt;" style="rounded=0;whiteSpace=wrap;html=1;shadow=0;labelBackgroundColor=none;sketch=0;fontSize=18;verticalAlign=top;fillStyle=zigzag;fontFamily=Helvetica;fontStyle=0;strokeWidth=2;opacity=80;fontColor=#182633;fillColor=none;strokeColor=#216FF8;" parent="-sU8y2Q3AdZbQh8XbGMl-1" vertex="1">
                    <mxGeometry x="2590" y="430" width="870" height="120" as="geometry"/>
                </mxCell>
                <mxCell id="257" value="Dashboards" style="pointerEvents=1;shadow=0;dashed=0;html=1;strokeColor=none;fillColor=#434445;aspect=fixed;labelPosition=center;verticalLabelPosition=bottom;verticalAlign=top;align=center;outlineConnect=0;shape=mxgraph.vvd.nsx_dashboard;labelBackgroundColor=none;fontFamily=Helvetica;fontSize=14;fontColor=#182633;" parent="-sU8y2Q3AdZbQh8XbGMl-1" vertex="1">
                    <mxGeometry x="3081" y="469.43" width="50" height="46.5" as="geometry"/>
                </mxCell>
                <mxCell id="261" value="Reports" style="shadow=0;dashed=0;html=1;strokeColor=none;fillColor=#4495D1;labelPosition=center;verticalLabelPosition=bottom;verticalAlign=top;align=center;outlineConnect=0;shape=mxgraph.veeam.2d.report;labelBackgroundColor=none;fontFamily=Helvetica;fontSize=14;fontColor=#182633;" parent="-sU8y2Q3AdZbQh8XbGMl-1" vertex="1">
                    <mxGeometry x="3290" y="452.05" width="50" height="65" as="geometry"/>
                </mxCell>
                <mxCell id="M8u80le9je5p9nFcWl_B-263" value="IAM Access Control" style="whiteSpace=wrap;html=1;labelPosition=center;verticalLabelPosition=middle;align=center;verticalAlign=top;sketch=0;fillStyle=zigzag;fontSize=14;fontFamily=Helvetica;labelBackgroundColor=none;fontColor=#182633;fillColor=none;strokeColor=#216FF8;" parent="-sU8y2Q3AdZbQh8XbGMl-1" vertex="1">
                    <mxGeometry x="3202.5" y="1088.5" width="185" height="30" as="geometry"/>
                </mxCell>
                <mxCell id="M8u80le9je5p9nFcWl_B-264" value="Routing" style="whiteSpace=wrap;html=1;labelPosition=center;verticalLabelPosition=middle;align=center;verticalAlign=top;sketch=0;fillStyle=zigzag;fontSize=14;fontFamily=Helvetica;labelBackgroundColor=none;fontColor=#182633;fillColor=none;strokeColor=#216FF8;" parent="-sU8y2Q3AdZbQh8XbGMl-1" vertex="1">
                    <mxGeometry x="3202.5" y="1139" width="185" height="30" as="geometry"/>
                </mxCell>
                <mxCell id="M8u80le9je5p9nFcWl_B-265" value="Network Security Groups" style="whiteSpace=wrap;html=1;labelPosition=center;verticalLabelPosition=middle;align=center;verticalAlign=top;sketch=0;fillStyle=zigzag;fontSize=14;fontFamily=Helvetica;labelBackgroundColor=none;fontColor=#182633;fillColor=none;strokeColor=#216FF8;" parent="-sU8y2Q3AdZbQh8XbGMl-1" vertex="1">
                    <mxGeometry x="3202.5" y="1190" width="185" height="30" as="geometry"/>
                </mxCell>
                <mxCell id="M8u80le9je5p9nFcWl_B-266" value="Transformation&#10;Testing &amp;&#10;Data Quality" style="shape=image;verticalLabelPosition=bottom;verticalAlign=top;imageAspect=0;aspect=fixed;image=data:image/svg+xml,PHN2ZyB4bWxucz0iaHR0cDovL3d3dy53My5vcmcvMjAwMC9zdmciIHZpZXdCb3g9IjExLjk4ODI5MzY0Nzc2NjExMyAxMC45OTc3OTUxMDQ5ODA0NjkgNDk2LjAxMTcxODc1IDE2OC4wMDc2NTk5MTIxMDkzOCIgd2lkdGg9IjQ5Ni4wMTE3MTg3NSIgaGVpZ2h0PSIxNjguMDA3NjU5OTEyMTA5MzgiPjxkZWZzPjxzdHlsZT4uY2xzLTF7ZmlsbDojZmY2OTRiO308L3N0eWxlPjwvZGVmcz48ZyBpZD0iZGJ0LWxvZ28tZnVsbCI+PHBhdGggZD0iTTI3OS4xLDI3LjMzbC0uNDksNDEuMjdjLTIwLjY1LTQuNDgtMzQtMS4zNi0zNC0xLjM2cy0xNS40OCwxLjkxLTI1LjI2LDE4LjM2LTUuMjksNDguMzQtNS4yOSw0OC4zNGE0NC4wNiw0NC4wNiwwLDAsMCw1LjIyLDE1LjUzYzQuMzYsNy41MSwxMC40Myw5LjY1LDEwLjQzLDkuNjVzMS41NywxLjM2LDguMzYsMi44NlMyNTcsMTYyLDI1NywxNjJzNy4yMS0xLjI5LDkuMjktMi43MiwxMS4xNC0xMiwxMS4xNC0xMmgxLjYzbDMuODMsMTUuMzNoMjIuNDNsLjItMTM1LjIxWm0tLjI3LDExMi4wOHMtMTQuNjMsNi0yOC4xOCwxLjYzYy02LTEuOTItOC40MS04LjYtOS40Ni0xNC4yMmE2OC45Miw2OC45MiwwLDAsMSwuMTgtMjUuNDljMS00Ljg0LDMuMzItOS42Myw3LjU5LTEyLjM4YTE2LjY4LDE2LjY4LDAsMCwxLDcuOTItMi40NGMxNi45NC0xLjA4LDIxLjk1LjgyLDIxLjk1LjgyWiIvPjxwYXRoIGQ9Ik0zNTguNTYsMjcuMzNIMzMyVjE2Mi41NGg0LjU2bDcuMzItNXMyMi4xNSw2LjksNDAuMzEsNC42MiwyMS45NS02LjI3LDIxLjk1LTYuMjcsMTQuMTEtNi40MywxNy41My0zMy40Ni0xLjkxLTUwLjEtMTgtNTQuNDdhNTYuNjUsNTYuNjUsMCwwLDAtMjItMS4zM2MtNi41OC44NC0xMi4yNiwxLjk0LTE2LjQ2LDcuNDdMMzYwLDgyLjI1aC0xLjQ3Wk0zOTUuNzUsMTI4LjZzMCw0Ljg5LTYuODEsMTAuNS0zMC4zLDEuNzktMzAuMywxLjc5Vjg5LjU4czQuMTctMi4zOSwxOC4yNS0yLjg3LDE2Ljk1LDYuMjEsMTYuOTUsNi4yMUM0MDAuMTYsMTA0LjYxLDM5NS43NSwxMjguNiwzOTUuNzUsMTI4LjZaIi8+PHBhdGggZD0iTTUwNy40LDEzOC45MXMtMTkuNTIsNC41LTI0LjgxLDEuODUtNC4yMi0xNC4xMy00LjIyLTE0LjEzVjg3LjhoMjYuMTFMNTA4LDY4LjE4SDQ3OC4yOFY0OEw0NTEuNiw1M1Y2OC4yMkg0NDBsLTEuNDQsMTkuNDFINDUxLjZ2NDYuMTJhNDEuODQsNDEuODQsMCwwLDAsMi4xMiwxMy44MiwyMy4wNiwyMy4wNiwwLDAsMCw2LjEsOS42N2M1LjM2LDQuODYsMTMuNjUsNS4zMSwyMC41MSw1LjM0YTkwLDkwLDAsMCwwLDI0LjU0LTMuMjlaIi8+PHBhdGggY2xhc3M9ImNscy0xIiBkPSJNMTcwLjg0LDE0LjE2YTE3LjgsMTcuOCwwLDAsMC02LjI2LTIuNywxOS43NywxOS43NywwLDAsMC03LS4yNywyMS42OSwyMS42OSwwLDAsMC03LDIuMjNsLTEwLjI1LDUuNjQtMTAuMjQsNS42My0xMC4yNCw1LjYzTDEwOS42MywzNkEyOS43MiwyOS43MiwwLDAsMSwxMDIuNTYsMzlhMjcuMjUsMjcuMjUsMCwwLDEtNy4zNiwxLjA4LDI3LjU5LDI3LjU5LDAsMCwxLTcuMzgtLjkxLDI5LjM5LDI5LjM5LDAsMCwxLTcuMTEtMi45MmwtOS45My01LjQtOS45Mi01LjQtOS45My01LjQxTDQxLDE0LjY3QTE4LjE5LDE4LjE5LDAsMCwwLDI4LjU3LDEyLDE5LjkyLDE5LjkyLDAsMCwwLDEyLjI5LDI3LjYxYTE4LDE4LDAsMCwwLDIuMjIsMTIuNDdMMTgsNDYuNDZsNy42NywxNGMyLjc4LDUuMSw1LjU3LDEwLjIxLDcuNjcsMTRsMy40OCw2LjM4YTI5LjI1LDI5LjI1LDAsMCwxLDMsN0EyNy43OSwyNy43OSwwLDAsMSw0MCwxMDIuNzFhMjkuODMsMjkuODMsMCwwLDEtMyw3LjEyTDMxLjUzLDEyMGwtNS40NiwxMC4xNC01LjQ2LDEwLjE1LTUuNDYsMTAuMTRhMjIuNjksMjIuNjksMCwwLDAtMi4wOSw1LjI3LDE4LjY2LDE4LjY2LDAsMCwwLS42LDUuMzIsMTYuNiwxNi42LDAsMCwwLDEsNS4xNkExNy41MiwxNy41MiwwLDAsMCwxNiwxNzEsMTksMTksMCwwLDAsMjEsMTc1LjdhMTkuNjgsMTkuNjgsMCwwLDAsNi4yNiwyLjczLDIwLDIwLDAsMCwwLDcsLjQ1LDIwLjM4LDIwLjM4LDAsMCwwLDctMi4xM2wxMC42Mi01LjgzLDEwLjYyLTUuODIsMTAuNjMtNS44MywxMC42Mi01LjgzYTU3LjM5LDU3LjM5LDAsMCwxLTguODEtNy44LDc4LjQ3LDc4LjQ3LDAsMCwxLTcuMzMtOS4yOGMtMi4yMy0zLjI4LTQuMjctNi43LTYuMTctMTAuMTgtMS42OS0zLjEtMy4yNi02LjI0LTQuNzctOS4zNiwyLjY3LDUsOC40MiwxMC4zMSwxNS45LDE1LjY0YTI2My40MywyNjMuNDMsMCwwLDAsMjguMzUsMTdjMTAuMjksNS40OCwyMC44NywxMC42NiwzMCwxNS4yNHMxNi44Nyw4LjU1LDIxLjQ2LDExLjU4YTE2LjksMTYuOSwwLDAsMCwxMi4zMiwxLjk0QTE5LjMyLDE5LjMyLDAsMCwwLDE3NC42OSwxNzJhMjEuNCwyMS40LDAsMCwwLDUuMS0xMSwxOC44NiwxOC44NiwwLDAsMC0yLjUxLTEyLjQ1TDE3MSwxMzcuMjNsLTEzLjc2LTI1LTEzLjc1LTI1TDEzNy4yNyw3NmE3MS4yMyw3MS4yMywwLDAsMC00LjMzLTYuNSw2Mi4xLDYyLjEsMCwwLDAtNS01Ljg1LDU0LjIzLDU0LjIzLDAsMCwwLTUuNjgtNS4xMyw1MS42Nyw1MS42NywwLDAsMC02LjQ2LTQuMzRjMy41MiwxLjYsNy4wOCwzLjI2LDEwLjU5LDUuMDVhMTE0Ljg5LDExNC44OSwwLDAsMSwxMC4yOCw1Ljg3LDczLjI3LDczLjI3LDAsMCwxLDkuMzksNy4xNCw1NC42NCw1NC42NCwwLDAsMSw4LDguOWw1LjY1LTEwLjM0LDUuNjQtMTAuMzRMMTcxLDUwLjFsNS42NS0xMC4zNGExOC4xOCwxOC4xOCwwLDAsMCwyLjEtNC45NSwxOC42MiwxOC42MiwwLDAsMC0uMzctMTAuNjksMTcuMywxNy4zLDAsMCwwLTIuNjEtNC45QTE3Ljc0LDE3Ljc0LDAsMCwwLDE3MC44NCwxNC4xNlpNMzkuOCwxNTlhNy4zOSw3LjM5LDAsMCwxLTcuNzYsNy45LDcuODMsNy44MywwLDEsMS0uMTQtMTUuNjZBNy4zOSw3LjM5LDAsMCwxLDM5LjgsMTU5Wk0yNC4zMSwzMS4zMWE3LjQsNy40LDAsMCwxLDcuNzctNy45QTcuNCw3LjQsMCwwLDEsNDAsMzEuMThhNy40LDcuNCwwLDAsMS03Ljc2LDcuOUE3LjQxLDcuNDEsMCwwLDEsMjQuMzEsMzEuMzFaTTE2Ny42LDE1OC43NmE3Ljg0LDcuODQsMCwxLDEtNy45LTcuNzZBNy40LDcuNCwwLDAsMSwxNjcuNiwxNTguNzZabS01My02Ni41N2MtMi4zLTMuNzgtNi4xMi01LjI2LTEwLjY4LTUuMjFhMTUuNjQsMTUuNjQsMCwwLDAtMTAuNSwyNi43NUExOC42NSwxOC42NSwwLDAsMSw3Ny4yOCw5Mi42MUM3OC43NCw4Mi43LDg4LjU5LDc1LDk4LjUsNzYuMzksMTA2Ljg4LDc3LjgxLDExMy43Niw4My44MiwxMTQuNTcsOTIuMTlabTUzLjU2LTYxLjU0YTcuODQsNy44NCwwLDAsMS0xNS42Ny4xNCw3Ljg0LDcuODQsMCwwLDEsMTUuNjctLjE0WiIvPjwvZz48L3N2Zz4=;fontSize=14;fontColor=#182633;" parent="-sU8y2Q3AdZbQh8XbGMl-1" vertex="1">
                    <mxGeometry x="2618.45" y="781.5" width="118.1" height="40" as="geometry"/>
                </mxCell>
                <mxCell id="M8u80le9je5p9nFcWl_B-267" value="" style="shape=image;verticalLabelPosition=bottom;verticalAlign=top;imageAspect=0;aspect=fixed;image=data:image/svg+xml,PHN2ZyB4bWxucz0iaHR0cDovL3d3dy53My5vcmcvMjAwMC9zdmciIHZpZXdCb3g9IjExLjk4ODI5MzY0Nzc2NjExMyAxMC45OTc3OTUxMDQ5ODA0NjkgNDk2LjAxMTcxODc1IDE2OC4wMDc2NTk5MTIxMDkzOCIgd2lkdGg9IjQ5Ni4wMTE3MTg3NSIgaGVpZ2h0PSIxNjguMDA3NjU5OTEyMTA5MzgiPjxkZWZzPjxzdHlsZT4uY2xzLTF7ZmlsbDojZmY2OTRiO308L3N0eWxlPjwvZGVmcz48ZyBpZD0iZGJ0LWxvZ28tZnVsbCI+PHBhdGggZD0iTTI3OS4xLDI3LjMzbC0uNDksNDEuMjdjLTIwLjY1LTQuNDgtMzQtMS4zNi0zNC0xLjM2cy0xNS40OCwxLjkxLTI1LjI2LDE4LjM2LTUuMjksNDguMzQtNS4yOSw0OC4zNGE0NC4wNiw0NC4wNiwwLDAsMCw1LjIyLDE1LjUzYzQuMzYsNy41MSwxMC40Myw5LjY1LDEwLjQzLDkuNjVzMS41NywxLjM2LDguMzYsMi44NlMyNTcsMTYyLDI1NywxNjJzNy4yMS0xLjI5LDkuMjktMi43MiwxMS4xNC0xMiwxMS4xNC0xMmgxLjYzbDMuODMsMTUuMzNoMjIuNDNsLjItMTM1LjIxWm0tLjI3LDExMi4wOHMtMTQuNjMsNi0yOC4xOCwxLjYzYy02LTEuOTItOC40MS04LjYtOS40Ni0xNC4yMmE2OC45Miw2OC45MiwwLDAsMSwuMTgtMjUuNDljMS00Ljg0LDMuMzItOS42Myw3LjU5LTEyLjM4YTE2LjY4LDE2LjY4LDAsMCwxLDcuOTItMi40NGMxNi45NC0xLjA4LDIxLjk1LjgyLDIxLjk1LjgyWiIvPjxwYXRoIGQ9Ik0zNTguNTYsMjcuMzNIMzMyVjE2Mi41NGg0LjU2bDcuMzItNXMyMi4xNSw2LjksNDAuMzEsNC42MiwyMS45NS02LjI3LDIxLjk1LTYuMjcsMTQuMTEtNi40MywxNy41My0zMy40Ni0xLjkxLTUwLjEtMTgtNTQuNDdhNTYuNjUsNTYuNjUsMCwwLDAtMjItMS4zM2MtNi41OC44NC0xMi4yNiwxLjk0LTE2LjQ2LDcuNDdMMzYwLDgyLjI1aC0xLjQ3Wk0zOTUuNzUsMTI4LjZzMCw0Ljg5LTYuODEsMTAuNS0zMC4zLDEuNzktMzAuMywxLjc5Vjg5LjU4czQuMTctMi4zOSwxOC4yNS0yLjg3LDE2Ljk1LDYuMjEsMTYuOTUsNi4yMUM0MDAuMTYsMTA0LjYxLDM5NS43NSwxMjguNiwzOTUuNzUsMTI4LjZaIi8+PHBhdGggZD0iTTUwNy40LDEzOC45MXMtMTkuNTIsNC41LTI0LjgxLDEuODUtNC4yMi0xNC4xMy00LjIyLTE0LjEzVjg3LjhoMjYuMTFMNTA4LDY4LjE4SDQ3OC4yOFY0OEw0NTEuNiw1M1Y2OC4yMkg0NDBsLTEuNDQsMTkuNDFINDUxLjZ2NDYuMTJhNDEuODQsNDEuODQsMCwwLDAsMi4xMiwxMy44MiwyMy4wNiwyMy4wNiwwLDAsMCw2LjEsOS42N2M1LjM2LDQuODYsMTMuNjUsNS4zMSwyMC41MSw1LjM0YTkwLDkwLDAsMCwwLDI0LjU0LTMuMjlaIi8+PHBhdGggY2xhc3M9ImNscy0xIiBkPSJNMTcwLjg0LDE0LjE2YTE3LjgsMTcuOCwwLDAsMC02LjI2LTIuNywxOS43NywxOS43NywwLDAsMC03LS4yNywyMS42OSwyMS42OSwwLDAsMC03LDIuMjNsLTEwLjI1LDUuNjQtMTAuMjQsNS42My0xMC4yNCw1LjYzTDEwOS42MywzNkEyOS43MiwyOS43MiwwLDAsMSwxMDIuNTYsMzlhMjcuMjUsMjcuMjUsMCwwLDEtNy4zNiwxLjA4LDI3LjU5LDI3LjU5LDAsMCwxLTcuMzgtLjkxLDI5LjM5LDI5LjM5LDAsMCwxLTcuMTEtMi45MmwtOS45My01LjQtOS45Mi01LjQtOS45My01LjQxTDQxLDE0LjY3QTE4LjE5LDE4LjE5LDAsMCwwLDI4LjU3LDEyLDE5LjkyLDE5LjkyLDAsMCwwLDEyLjI5LDI3LjYxYTE4LDE4LDAsMCwwLDIuMjIsMTIuNDdMMTgsNDYuNDZsNy42NywxNGMyLjc4LDUuMSw1LjU3LDEwLjIxLDcuNjcsMTRsMy40OCw2LjM4YTI5LjI1LDI5LjI1LDAsMCwxLDMsN0EyNy43OSwyNy43OSwwLDAsMSw0MCwxMDIuNzFhMjkuODMsMjkuODMsMCwwLDEtMyw3LjEyTDMxLjUzLDEyMGwtNS40NiwxMC4xNC01LjQ2LDEwLjE1LTUuNDYsMTAuMTRhMjIuNjksMjIuNjksMCwwLDAtMi4wOSw1LjI3LDE4LjY2LDE4LjY2LDAsMCwwLS42LDUuMzIsMTYuNiwxNi42LDAsMCwwLDEsNS4xNkExNy41MiwxNy41MiwwLDAsMCwxNiwxNzEsMTksMTksMCwwLDAsMjEsMTc1LjdhMTkuNjgsMTkuNjgsMCwwLDAsNi4yNiwyLjczLDIwLDIwLDAsMCwwLDcsLjQ1LDIwLjM4LDIwLjM4LDAsMCwwLDctMi4xM2wxMC42Mi01LjgzLDEwLjYyLTUuODIsMTAuNjMtNS44MywxMC42Mi01LjgzYTU3LjM5LDU3LjM5LDAsMCwxLTguODEtNy44LDc4LjQ3LDc4LjQ3LDAsMCwxLTcuMzMtOS4yOGMtMi4yMy0zLjI4LTQuMjctNi43LTYuMTctMTAuMTgtMS42OS0zLjEtMy4yNi02LjI0LTQuNzctOS4zNiwyLjY3LDUsOC40MiwxMC4zMSwxNS45LDE1LjY0YTI2My40MywyNjMuNDMsMCwwLDAsMjguMzUsMTdjMTAuMjksNS40OCwyMC44NywxMC42NiwzMCwxNS4yNHMxNi44Nyw4LjU1LDIxLjQ2LDExLjU4YTE2LjksMTYuOSwwLDAsMCwxMi4zMiwxLjk0QTE5LjMyLDE5LjMyLDAsMCwwLDE3NC42OSwxNzJhMjEuNCwyMS40LDAsMCwwLDUuMS0xMSwxOC44NiwxOC44NiwwLDAsMC0yLjUxLTEyLjQ1TDE3MSwxMzcuMjNsLTEzLjc2LTI1LTEzLjc1LTI1TDEzNy4yNyw3NmE3MS4yMyw3MS4yMywwLDAsMC00LjMzLTYuNSw2Mi4xLDYyLjEsMCwwLDAtNS01Ljg1LDU0LjIzLDU0LjIzLDAsMCwwLTUuNjgtNS4xMyw1MS42Nyw1MS42NywwLDAsMC02LjQ2LTQuMzRjMy41MiwxLjYsNy4wOCwzLjI2LDEwLjU5LDUuMDVhMTE0Ljg5LDExNC44OSwwLDAsMSwxMC4yOCw1Ljg3LDczLjI3LDczLjI3LDAsMCwxLDkuMzksNy4xNCw1NC42NCw1NC42NCwwLDAsMSw4LDguOWw1LjY1LTEwLjM0LDUuNjQtMTAuMzRMMTcxLDUwLjFsNS42NS0xMC4zNGExOC4xOCwxOC4xOCwwLDAsMCwyLjEtNC45NSwxOC42MiwxOC42MiwwLDAsMC0uMzctMTAuNjksMTcuMywxNy4zLDAsMCwwLTIuNjEtNC45QTE3Ljc0LDE3Ljc0LDAsMCwwLDE3MC44NCwxNC4xNlpNMzkuOCwxNTlhNy4zOSw3LjM5LDAsMCwxLTcuNzYsNy45LDcuODMsNy44MywwLDEsMS0uMTQtMTUuNjZBNy4zOSw3LjM5LDAsMCwxLDM5LjgsMTU5Wk0yNC4zMSwzMS4zMWE3LjQsNy40LDAsMCwxLDcuNzctNy45QTcuNCw3LjQsMCwwLDEsNDAsMzEuMThhNy40LDcuNCwwLDAsMS03Ljc2LDcuOUE3LjQxLDcuNDEsMCwwLDEsMjQuMzEsMzEuMzFaTTE2Ny42LDE1OC43NmE3Ljg0LDcuODQsMCwxLDEtNy45LTcuNzZBNy40LDcuNCwwLDAsMSwxNjcuNiwxNTguNzZabS01My02Ni41N2MtMi4zLTMuNzgtNi4xMi01LjI2LTEwLjY4LTUuMjFhMTUuNjQsMTUuNjQsMCwwLDAtMTAuNSwyNi43NUExOC42NSwxOC42NSwwLDAsMSw3Ny4yOCw5Mi42MUM3OC43NCw4Mi43LDg4LjU5LDc1LDk4LjUsNzYuMzksMTA2Ljg4LDc3LjgxLDExMy43Niw4My44MiwxMTQuNTcsOTIuMTlabTUzLjU2LTYxLjU0YTcuODQsNy44NCwwLDAsMS0xNS42Ny4xNCw3Ljg0LDcuODQsMCwwLDEsMTUuNjctLjE0WiIvPjwvZz48L3N2Zz4=;fontSize=14;fontColor=#182633;strokeColor=#216FF8;" parent="-sU8y2Q3AdZbQh8XbGMl-1" vertex="1">
                    <mxGeometry x="1712.6200000000001" y="1364" width="66.04" height="22.37" as="geometry"/>
                </mxCell>
                <mxCell id="M8u80le9je5p9nFcWl_B-268" value="" style="group;fontSize=14;labelBackgroundColor=none;fontColor=#182633;strokeColor=#216FF8;" parent="-sU8y2Q3AdZbQh8XbGMl-1" vertex="1" connectable="0">
                    <mxGeometry x="1724.3700000000001" y="1166" width="42.53" height="37" as="geometry"/>
                </mxCell>
                <mxCell id="M8u80le9je5p9nFcWl_B-269" value="" style="html=1;points=[];align=center;image;fontSize=12;image=img/lib/mscae/Databricks.svg;labelBackgroundColor=none;fontFamily=Helvetica;fontColor=#182633;strokeColor=#216FF8;" parent="M8u80le9je5p9nFcWl_B-268" vertex="1">
                    <mxGeometry x="9.923666666666668" y="-4.008333333333333" width="28.353333333333335" height="30.833333333333332" as="geometry"/>
                </mxCell>
                <mxCell id="M8u80le9je5p9nFcWl_B-270" value="" style="html=1;points=[];align=center;image;fontSize=14;image=img/lib/azure2/databases/Data_Factory.svg;fontFamily=Helvetica;labelBackgroundColor=none;fontColor=#182633;strokeColor=#216FF8;" parent="-sU8y2Q3AdZbQh8XbGMl-1" vertex="1">
                    <mxGeometry x="1732.19" y="960" width="26.9" height="26.5" as="geometry"/>
                </mxCell>
                <mxCell id="M8u80le9je5p9nFcWl_B-271" value="BI Clients" style="shape=image;verticalLabelPosition=bottom;verticalAlign=top;imageAspect=0;aspect=fixed;image=data:image/png,iVBORw0KGgoAAAANSUhEUgAAAgAAAAIACAYAAAD0eNT6AAAABGdBTUEAALGPC/xhBQAAACBjSFJNAAB6JgAAgIQAAPoAAACA6AAAdTAAAOpgAAA6mAAAF3CculE8AAAABmJLR0QA/wD/AP+gvaeTAAAAB3RJTUUH4goPChAGK70qbAAAOZ1JREFUeNrt3XuYXXV59//PvfaemWSSEAKE4GSy19oHEnAUQUQEVCIHBZoEELFSq/1Rn2pbq9KTh+unjz7aWm1/tmK9bG2t9aw1yiETDuEkiPiANoDoAAn7sPbOEA3nkHNm9rp/f2SgAUWYyRz23uv9uq655LqEvdb3vtfe67NO3yUBAAAAAIDOZ5TgN8rk8/lSpqmXuikvJUvcLFKi+WaaJ2n+s/79JyQ9ue9/fZPchk0Wuwf3zjpo1sahoaG9lBQAQABoMQMLB+bu6t1+qpm9Vq7XSDpO0qxJ+vgRl4bMdIukm7tGRm69/8EHH6XqAAACwAzo7+8/pCfoepPMz5V02iTu8J9PIukXkt/i0rWJ2U1xHO9mUwQAEACmcLz5XP6MwPwPJZ03jTv95+TSDpOuc9OgZTJXVSqVh9gsAQAEgElw/PHHd219+LHz3JL3S/aKFl7VRLK7zHytJ8lgpdFYzyYKACAAjF9QCMOLTPY3kqI2XP+KuQbdfHBJvf7Dm6VRNlkAAAHgtzgyn39tkvhnte+Gvk7whKRrZFrTlK6N4/gJNl8AAAFgTBRFB2ek/yPXn0kKOrRvTclud/fBJNCVcRzfz6YMAEhtAChF0Rvc9RVJR6Ssj0PmGpT5mnK9fof2PWkAAEBnB4DlUnY4ij7sro908FH/C/Wo5FebB4Pqzqwrl8tPspkDADouABQKhaWWJN+Q6wTa+Wt2S7pJpjWZ0dG1G4eHH6QkAIC2DwClMHxHIrvUpDm08nm5ZHe6+5rAfLBcr99FSQCAANBWlkvZTWH4T5L9GS2csIckX2cerFZ35rpyubyHkgAAAaB1j/pLpYU+0rxc8lNo36SdHNhuCta5+WBmb/dVGzdvfISaAAABoGUUCoWcNZPrJC2jdVOG2QgBgADQOvL5/LKg6dfLtIS2TefJAT0gszVmvrY/jn90M7MRAgABYLoUi8UlGm3eKimkZTPqcZluUGJrm4GvYTZCACAATJkwDF+Uld0qqUi7WspeyX8oD9Y0Ax+M4zimJABAAJgU/f39s2cF2Zvd9Epa1fKqMq31JFhdbVR/LGYjBAACwETXrRhG35L0FtrUbvwRSdeYB4OZ2d3XbtiwYRs1AQACwAtSiqIPueuTtKjt7XLTDZbY4Kgla+v1+i8pCQAQAH6jwpLCCRYkt0nqokUd514zDSZJsLbaqN4mySkJABAAtGzZsnkju/f8zKQ87el4dckHLQgGe3p7bx4aGtpLSQAgpQGgGIafk+w9LVirJyTdK9fDbvaImT+qRPMl9UhaINNRkkqSMmxWE/KkTOssscFsc+/V9z/44KOUBABSEgBKUfQqd92m1nil74NyDbr59V3SXRvq9drzrn+p1NNsNl8WJFol+fmSXswmNiFNd91mZoOesTXVanUjJQGAzg0AVgzDn0j2ipk8CnXZ15XYV6qbqut1gNen8/n8siDRKndfYaZTODswYRskXxMEwdoHarXbJDUpCQB0SAAohOHvmeybM7T4ups+3dXT842pemTtqMWLDx3NdJ/tga+U6yxJB7H5Tcijkl9tHqzJzO5exyOGANDGAWBgYKB79/YdGyRF07tkf8TMPqls9gvT+TrcgYGB7l3bdr3WrLnKZSu44XHC9rrr5sB8TTMI1tZqtTolAYA2CgClMHyHy740zYu9p2t05LRWuNms0F94aZBNVrhrlaRXqjXugWg7Lt1t8rWeZNZUN1X/WzxiCAAtHQAyxTC6V9LSadxVlEel17bipDRL+5Ye1syOnKPAV8j1BnGpYKIelvxa82CwZ1fvNUMPD22nJADQQgGgGIbnS3bZNC7yV54JTqxWq41Wb04URbMy7q+T2yqZr5Csn012QnbKdb2ZD45dKthCSQAQAGY6AOSia2V6wzQtbiRJ7PTaptqt7disUi43kChYYWYrJT9ZbfI65xZ0r5lWe5IMVhqNO8WlAgAEgOm1LAzzo7Kypumat8n+qFyvfakTGre0v39xM5tdIbeVkp8maTab8/i5VDPToCfB4IKFC25Zv379CFUBQACY6qP/MP8RyT8+TQP9Vrkev7UTm9jf3z+7O+g+xYJkpVwXSFrMpj2hMLAjkP/APRhMMrqSSwUACABTFQCi6B65XjoNi9q8pzn60uHh4cfS0NRSLjegILjQ3VZI/nJxqWAimpLd7u6DGfM1D9Tr91ESAASASVAoFJZaM9kwPUd2/jvVev3qNDY4n8+HQaKV7r7STMsldbPZT8h9Mg0qSdZUGo3bxWyEAAgAEwwAUXSJuf5pGhZ1daUe/w6tlvr6+np7sz2n+75HDFdJOoKqTMijMt2kxNZad+aKcrn8JCUBQAB4gUphOOiyFVO8mKaSzLGVTZVf0OpfExRzueMsCFaOXSo4npJMhI9KwR3uvtq6MpdVKpVN1AQAAeA5LJeym8LoMUnzpva3WV+pNOKLafPzK/YXS5ZtrnTXSslfI1mWqkzInfueKuARQwAEgF+Tz+dfFiR+91QvJwns2Fqt9jPaPD7HLFo0Z2dP72luyYXad5ZmAVWZkIckX8dshAAIAGNKYf5/ufzfp3hoN1bqtTNo8QHLFHKFk4Lg6XcVHE1JJmSXyW90DwazPrp2w6ZNmykJgBQGgOgLLv3JFI/sokocf4cWT64jw/DoxG2lzFdKdpKkDFUZt0TS7W4aDJJksNxoDFESAKkIAMUwuknS66ZwESNN0+FxHD9Bi6fOUYsXHzqa6T7NLVkp2SpJ86nKhMQyXWeJre2Z17tuaGhoLyUB0KEBINw0pS+2ca2rNOKzaO/0WS5lG7nCq8YuFZyvaX27Y+fYbzbC1c3A1xBiAXRMANj3hjvt0JTO/+9/VanXP0N7Z86+Gz2TFea2yk2v0DS976HDjEi61U2D2SRZs7HRqFISAG0bAPbNTOfxFB9HnV6p12+iva1had/Sw5rZkXO0bwKiszTVj392rqpMaz0JBnON6s03S6OUBEDbBIDCksIJFiQ/mcplZEa6F27cvPER2tt6oiiaFSTBq/e9uMjfOKWXgjrbo5JfbR4MqjuzjtkIAbR8ACiG4dmSTeW8/A9V6vEiWtse219hSeH4IJOMTUCk4yjJhOyWdJNMazKjo2s3Dg8/SEkAtN4ZgDC8wGTfm8JF3Fepxy+mte2nWCwerpHkLAW+wl3nmDSHqkzIvWYaTJJgbbVRvU3MRgigRQLA75nsm1O4iP9bqccn09r21t/fP3tW0HXG2IuLVkjqoyoT8tRshKvVnbmuXC7voSQAZiYARNHF5vrylC2ARwA7UVAKwxMTt5W2bwKil1CSCX05tpuCdW4+mNnbfRX3yQAEgGlVCsN3uOxLUzikqyr12gpa27miKIoyib3eLFnpstdL6qYq45ZIdpeZrx17cdF6SgIQAAgAaBtPv7ho36WCVZKOoCoTODcg1cx0vSW2dv7CQ65dv379CFUBCAAEALSLTDGXO9aCYKW7rZD8eEoyIY/LdIMSW8tshAABgACAtrM0lyuMKlhp5iskO1VSF1UZt6Zkt7v7oGfsilqttoGSAAQAAgDaRn9//yGzgq7Tx15ctFLSwVRlQp6ajXB1tVH9sfa92RAAAYAAgLaQKeQKJwVBskKuc106ipJMhD8i6RrzYDAzu/vaDRs2bKMmAAGAAIC28cxLBVouWZaqjNtuyX/kbmuzyej3mI0QIAAQANBWjlq8+NDRTPdpY5cKzpV0EFWZEGYjBAgABAC0p2e8uCjR+TItoSoT0pDpWktsLbMRAgQAAgDaTimXG0gUrDCzlZKfPBPfnw6w0+Q3uQeDY48Y/oqSAAQAAgDaJwyUSgt9b/NsBb5C7mdLNpeqjFtTsrvNfK2S5LvlRuNeSgIQAAgAaBv9/f2zu4PuUyxIVsp1gaTFVGVCnnrEcHDBwgW3MBshQAAgAKC9zg5wqWAyfpgec9ONSmytZ+3KarW6laoABAACANpGoVDI2aifNfbiojMl9VCVcXt6NkJlg8ur1epGSgIQAAgAaBt9fX29vdme08deXLRS0ouoyoTs/4ghsxECBAACANpKUMzljuPFRQfsYcmvNQ8Ge3b1XjP08NB2SgIQAIC2sSwM86MenDl2qeD1krqpyrjtkvw2ZiMECABAWzpm0aI5O3t6Txu7VHCepMOpyoTca6bVniSDlUbjTjEbIUAAANrI0y8uctcqSUdTkgmpy7TOElvbM6933dDQ0F5KAgIAAQBoG898cZGdKqmLqoyPSzsC+Q/cg8EkoytrtdoWqgICAAEAaBv9/f2HzAq6Th97cdEqSfOpyrg9/YhhxnzNA/X6fZQEBAACANBO9r9UcJ6kZZRkQpiNEAQAAgDQvv7nUoFdKPlJkgKqMm6PynSTEltr3ZkryuXyk5QEBAACANA+YaBv6WHN7Mg5+15cpLMkzaMq4+WjUnCHu6+2rsxllUplEzUBAYAAALSNKIpmBUnw6n0vLvI3StZPVSZk/9kIbxOPGIIAQAAA2gkvLpoUzEYIAgABAGhfxWLxcI0kZ+27VOBnSzaXqozbLpPf6B4MZn107YZNmzZTEhAACABA2+jv75/dHXSfsu9Sgd4kqY+qjFsi2V1mvnZsNsL1lAQEAAIA0E6e/eKil4tLBRMRy3QdsxGCAEAAANpSPp8Pg6beMPbiojMl9VCV8dlvNsLVzcDXxHH8BFUBAYAAALSNvr6+3t5sz+ljLy5aJekIqjJuT89GmAS6Mo7j+ykJCAAEAKCdZIq53LH7XSo4npJMyNOzEeYa1ZtvlkYpCQgABACgbSzN5QpNZc4Yu1TwekndVGXcmI0QBAACANC+crncgm5lzhh7cdFKSQdTlXHbLfmP3G1t0Mx+v/xgeZiSgABAAADaydMvLpLrXJeOoiQTwmyEIAAQAID29T8vLvIVkpZLlqUq4/aQ5OvMg9XqzlxXLpf3UBIQAAC0jaMWLz50NNN92tilgnMlHURVxm2nyW9yDwZHLRms1+u/pCQgAABoG8ulbCNXeJUFyYVynScpR1XGjdkIQQAA0N6e9eKikyQFVGV8XKqZ6XpLbO38hYdcu379+hGqQgAgAABonzBQKi30vc2z9724SGdJmkdVxu1xmW5QYmuZjZAAQAAA0Hae9eKiCyQtpirj9vRshJ6xK2q12gZKQgAgAABor7MDz7xUcLJ4cdFEPDUb4epqo/pjSQklIQAQAAC0jWKxeLhGkrPMkgt5cdFE+SOSrjEPBjOzu6/dsGHDNmpCACAAAGgbz3px0UpJL6Iq4/b0bITZZPR7G4eHH6QkBAACAIB2EhRzueN4cdEBYzZCAgABAED7iqIoyiT2el5cdEAaMl1ria1lNkICAAEAQNs5ZtGiOTt7ek8bu1RwrqRFVGXcnp6NcOwRw19REgIAAQBAO3n6xUW+776BF1OScWtKdreZr1WSfLfcaNxLSQgABAAAbeWZLy6yUyV1UZVxe+oRw8EFCxfcwmyEBAACAIC20t/ff8isoOv0sRcXrZI0n6qMewf0mJtuVGJrPWtXVqvVrVSFAEAAANBO9r9UcJ6kZZRk3J6ejVDZ4PJqtbqRkhAACAAA2sozLxVouWRZqjJu+z9iyGyEBAACAIA2CwN9Sw9rZkfOGXtx0RskHURVxu1hya81DwZ7dvVeM/Tw0HZKQgAgAABoG1EUzQqS4NUWJCuV6HyZllCVcdsl+W3MRkgAIAAAaFu8uGhS3Gum1Z4kg5VG404xGyEBgNYCaKswUCot9L3Ns/ddKvCzJZtLVcatLtM6S2xtz7zedUNDQ3spCQEAANpGf3//7O6g+xQLkpVyXSBpMVUZH5d2BPIfuAeDSUZX1mq1LVSFAAAA7XV2IJcbUBBcOPbiopeLSwXj9fQjhhnzNQ/U6/dREgIAALSVfD4fBk29YezFRWdK6qEq48ZshAQAAGhffX19vb3ZntPHXly0StIRVGXcHpXpJiW21rozV5TL5ScJAAQAAGgnQTGXO86CYOXYpYLjKcl4+agU3OHuq60rc1mlUtlEACAAAEBbWRaG+VEPzhy7VPB6Sd1UZdz2n43wNnXYI4YEAADocLlcbkE2CM6yfZcJzpJ0MFUZtwflWuvmaxKzm+I43k0AIAAAQDvZ/8VFqyQdTUnGbZfJb3QPVs/Zs/P792zZsoMAQAAAgLZSyuVenChYOTYb4askZajKuDwp+XeVZC+tbKr8op1WPKB3AJBe5Ubj3moj/nSlXnt1ZqT7CJn+H5N9X9I2qvOCHCTZ/1LQvKcURdcVwvActck8DQQAAIAkaePmjY9U4vir5XrtTUvq8SHuwWvM9GlJG6nO8zJ3nWmyq4pRdEcpipa3/ApP9wK5BAAA7Sefz78sSLTS3Fe66RUcQL6gPeyapvSBOI7v5wwAAKAt1Wq1n1Xqtb8pN+ITMyPdi+T2BzKtFpcKnptrVcZ1TymKPjUwMNByj2ESAAAA47Jx88ZHKo3a1ypx/Oam6XD34EyZPif5MNX5NV3u+sDu7Tt+WgrD4wgAAICOEMfx7mqjekMljt9XqddzngQnmOnjku6iOs9wjMv+bzGXfycBAADQaby6qfrf5Tj+aKUev1zZzNOXClzaQXnUI/MvFsPwa/39/bMJAACAjlSpVB566lLB3N27Frn8ApP+U9JD6a6Mva0nk/lhGIYvmsm1yLKJAgCm2thseZeN/T37xUUvV5s8Oz+JIeAVWenHxf7imZXhSpkzAACANEgqjcb6chx/rFKvvaJpKsjtXSZfK2lviuoQKdO8NZ/Pv4wAAABInTiO40qj9m/len2lZ4LDze13TfZNkx5LwfCPyCR+00yEAC4BAABaRrVa3Srpu2N/mWIud+y+SwW6UNKLO3HMLh0SJH59oVB4dbVanbZZFzkDAABoVc3/uVQQD2Q8KbrrEslvkDTSYWNdaM3kmum8MZAAAABoCxsbjWq1EV9aqdfP3NMcPcLc3ibTdyVt7ZAhFrKyq/r6+nqnY2FcAgAAtJ3h4eHHJH1j7C9TyBVOCoJkhVznunRUGw/tuNld3V+S9HucAQAA4LdrVhvVH5Xj+IPlenz0My8V+GgbjueiYi7/HgIAAADjsP+lAmWzi930h5Iub6vZCM0/U4qiVxEAAACYgEql8lA1jv+zUo/fmJgOe/rFRa5NLb7qXe766lROGcw9AACAVIjjeLekG8b+3lfK5QYSBSvMbKXkJ6v1ZiNc2p3p+htJf8kZAAAAJkm50RiqNuJPV+q1V1tX9ukXF0m+vVXW0eSX5JfkX8MZAAAApiIMlMsPS/qapK/19fX19mZ6zlDg50o6z6VDZnDVgiDwz0t6uaQmZwAAAJgimzdv3lneVFtTrsfvmH/YoUdI/kZJt8zgKh1TzOX/cNKTBa0GAOA3W79+/UilXr+8Uo+Xm+kkmW6dkRUx/5tSqXQQAQAAgGlWjuPbK3F8qpv+dAbuEzjcR0b+igAAAMDM8Goc/4ua2eMk/8U0nwZ4z2SeBSAAAAAwTpXhSnnWzrknSXbVNC72YB9pvpMAAADADBp6eGj7wYcdcr5c/zV9S/VLBgYGugkAAADMoPXr148cvPDQt0m6epoWuXjPtp2/SwAAAKAFQsCc3bvebNLPpuUcgPnFBAAAAFrAPVu27PBm5k2Stk7D4pYvC8M8AQAAgBZQGa6UZbpkGhZlI25vJwAAANAqISCOv2qm66c8AZguIgAAANA63NzfJ/noFC9nWbG/WCIAAADQIh6o1++T2zemfEGZ5CwCAAAALSTJ2KckJVO7FD+bAAAAQAup1Wob5FN+L8Dy5VKWAAAAQAtx869N8SJ66/n8iwkAAAC0kN0jI1e4tGMql5FJkhMIAAAAtJDNmzfvNOmHU7kMdyMAAADQatx03ZQuwPQyAgAAAC3GkuSnU7yIiAAAAECLmbVr3s80tY8DLoqiaBYBAACAFjL08NB2SVumcBEWBEGOAAAAQItxqTGlCxgdXUIAAACgxZj02FR+fhAEcwkAAAC0XACwnVP5+Yn7HAIAAAAtx/dMacDwgAAAAEDq4oW8lwAAAEDKBOYZAgAAACAAAAAAAgAAACAAAABAAAAAAAQAAABAAAAAAB0lSwkAdLLjjz++a+tDD+Xc7GCZzbckmNs07Qos2ZEEwQ53r8dx/ASVAgEAANpXUArDY13B6ZKfLOnFTzzyaF5Bpuupf8EDHzv1aQoSlyQVw2iLpPtlukPuN8/aOffWsde4AgQAAGhVR0bRiUmii2V+gcsOk3y8H7FI0iK5TpXs/bt7d4yUwnCdm31jz+jomuHh4V1UGQQAAGgBy6Xspih6q1x/nbgGZPuO6idJl8tWyLWiJ5PdWshFX/CMXVqr1bZQeXQKbgIE0G6smMu/fVMY3S/XVyQNTPHy5pvpQ0HitWIUfTaXyy2gBSAAAMA0OjIMjy5G0S0y/6qk4jQvfrZc7+uyYEMpDN+hSTzdABAAAOC5jvrD/F8nsrvles0Mr8tCl32pFEXroig6gtaAAAAAU6BQKMwvhtFlkv+9pO5WWS93nZlx/ayUz7+eLoEAAACTqFgsLgmaye2SzmvRVTzck+SqYi7/R3QLBAAAmIwj//7CkRpt3urSUa29ppaV+b8Vw/DjdA0EAAA4AEtzuYJlklskhe2z1vaRUhR9jO6BAAAAE9n59y09rGnBNZJe1G7r7q6PFqLoEroIAgAAjMPAwEB3s2vvlZKWtusYzPWZQhieQzdBAACAF2j39p2flHRyu/+umuwbS3O5Ah0FAQAAnkcpit4g+V90yHAWNIPgO5IydBYEAAB4Dn19fb3u+qI6aXY91wmFKHoP3QUBAACeQ2+2+yNqqzv+Xxhz/0ShUMjRYRAAAOBZSkuWFN305505OptrSfIJugwCAAA8iwfBByX1dO4A9dZ8Pr+MToMAAABjlvb3L5bsbR0+zEzQ9A/RbRAAAGDMaJB9d0cf/T/F9Lu5XG4BHQcBAACkwKTfT8lYZ3WbXUTLQQAAkHrFMDxVpiWpGbDbH9B1EAAApJ4reFOqxms6oVgsHk7nQQAAkPIfHz8tZUM2NZun0XkQAACkVhiGL3IpfY/GuZ9O90EAAJBaWbMT1UnT/r5wx9J9EAAApJZLR6V06EelNPiAAAAAUuBams6R29zS4tJitgAQAACk9QxAmNaxN7ubfWwBIAAASGsEOCitI7emHUT/QQAAkNbd4LzUjtya8+g/CAAA0mp2agOAB3NoPwgAAJDCDEAJQAAAAAAzIksJgOlVLBaX+IgvM/OjzLzfE81387lm1iNplxLtMulxmW9SEJSDZrO8sdGoSXKqB4AAALSJpf39i5NM19kuP13SaRptHm5jJ4HdJZlksv/ZvT/9jyYlrqYFKobRo3L9yALdkgTBVdVqdSOVBUAAAFpMqVTq0d7muW5+cVM6U/LMAX7koTKd665zrZn8YzEM/9ukb2dHR796/4MPPkrFAYwX9wAAk2hgYKC7mMu/00dGym7+X5LOkpSZ/CXZK1z2mb3Zrnoxii4tFAo5qg+AAADMgEIYvnX39h1VmX9Rsv7pWKZJc+R6rzWTB0pR9KmBhQNz6QQAAgAwDZbmcoVCLlpnsm9Imql53rvd9YHdvTvuL4bh+XQFAAEAmEKlKDq3acGdZnp9i6zSYskuK4bh1/r6+nrpEAACADCJlkvZQhj9o7uukDS/9dbQ3ja7q/tHy5Ys4cUzAAgAwGQYGBjoboTht0368xZf1eNGg8yPoyg6iq4BIAAAB6Cvr69317YdgyZ7U5uscphxv7W4pPgSugeAAABMTGZ2tvtbLXS9/wWywxQ010VRFNFCAAQAYJyKYfgvMp3bpqvfl3VdUygU5tNJAAQA4AUqRNElkv1RO4/BpaMsSf6dbgIgAAAvZOffX3ipuf6uIwbjurAYRe+iqwAIAMBv0d/fP9syyWpJszplTO76TLFYXEJ3AQIAgOcwK5v9oKRlnTQmk+ZopPkPdBcgAEyrhHeao00sC8O8u97fkYMz/e6R+fxr6TJAAJi+BXrw5FR+vit5nLZiMozKPqkOOvX/a2E8ST5ClwECwLRpurZM6YDMHqStOFBLc7mCpAs7e5R2RmFJ4RV0GyAATIuuZtd9kpKpOwXgDdqKAw6qQfABSZmO/wEI/BK6DRAApsXGzRsfkWn9VH1+RrqGtuJAlEqlg+T6/TSM1eXnDywcmEvXAQLANP3q2Oop+uS7NtTrNdqKA5GMjl4gKS2v0u3d1bt9FV0HCADTYtbO3n+R/JHJ/lxz+xQtxSRsR29N1XhlF9B1gAAwLYYeHtouDz4+yb9it5YbtdW0FAdi3+lwT9XjcSYtF3OCAASA6VJp1D4v6bJJ+rhfNqW3izkGcIB2925/jaSuNI3ZpUNKudzRdB8gAEzb7451ZS+WdPMBfs7jJv+dOI5j2okDPxy25WkctitzCs0HCADTplwuP2ld2bMk//oEj1zuaJpeXq7X76KVmJQdYaJj0xl8tJTuAwSA6Q4Beyr1+tslP92lu1/gfxbL7V0LDjv0NRz5Y3JPAHTWvP8vPPl4ie4D6ZJtlRWp1Os3SToun88fY00/38xOcPlik44w6QmXtkj+U3e/dsHChT9cv379iBo88YfJ09/fP1tSOt+SZ15kCwAIADOqVqvdI+me3/ovNZjsD5Ovp6fnMI02U3o3vC1gCwDShUd/gKd2gSMj81I8fGYDBAgAQDo1M5k07wTnSjK2AoAAAKTvDEDTulM8/Ay/BwABAAAAEACQVmN3xQMAOlCWEqTXwMBA954dO05ytxOkZJkUHC0loWRzJC2QpGIYSfLtku2StEmuB2RWNtfdzYxurdVqW6gkABAA0OKiKDo4kN5irnN3bd/xGpPm7HuFgul//vfZbK723SS2UKaXSy43KUikYhjdZ651zYx9u1ar/YQKAwABAC0kn8+/MpP4+9x1vqTZ0qTd8n20m44OEr+kGIZluf27dWf/tVwuP0nVAaB1cQ9AhytF0auKYXR1kPgdLv3eUzv/qWElmT7tI6ONQi76ZC6XY3IZACAAYDrlcrkFxSj6ort+LOnsaV78fDN9qNuCciEXvU/7HjEDABAAMJUKUXRRl9lGud6pGZzcxaVDzPTZYpi/pVAo5OgMABAAMAWWS9lSFH3KXN+S7LDWWTM/xZrJPaVc/s10CQAIAJhExWLx8EYY/chdH2jRVZzv5t8pRNEH6RYAEAAwCcIwfJFGR2806cQWX1Uz198Vw/Cf2fYAgACAA1AoFHIZ2W2SvaR91tr+rBiGl9I9ACAAYGI7//mWJGtNyrff2tufFcPw/6WLAEAAwDiUSqUejSZr5Hpp+47CPsGNgQBAAMA4+Ojop8302jYfhrn5lwqFwlI6CgAEADyPQhj+jlzv7ZDhzAtGk68vZ1pqACAA4LnlcrkFJvuyZnCCn8nmplduCvN/THcBgACA55C1zCckHd55I/OPl0qlhXQYAAgAeJZ8Pv8yk3fqkfICHxn5CF0GAAIAnt0s94+ro1+sY+/gLAAAEACwnyPD8Gi5VnT4MHt9ZOQ9dBsACAAYk7i9Px39sneK1wcDAAEA0jGLFs2R+ZtSMtxF+Vz+NLoOAASA1NvR03uBZHPTMt6M+UV0HQAIAEjZDtGlc9RB8xwAAAEA4zYwMNDt0mtSNuxFURQto/sAQABIrZ1P7jzRpDlpG3cmsdfSfQAgAKRWJuOvTueW6cfTfQAgAKSX20A6x60SzQcAAkCK9/+ezlfluo6k+wBAAEgtcxXTOXAtZvsEAAJAivf/mp/WbXPZsmVz2AQAgACQOscsWtSrFE+Lu3v37rlsBQAwNbKtfPSbz+dzGfe8SwdbYnNd6nVLRgMPtjWlJwIPfmk99kC5XN7Tic3ZMXfuHI02U7txZpoZAgAAdHoAyOVyC7rMlruC001+kkvLLPE5Pvb/u+37J5PJzfedurCmfETNYhjWZHaXSzfZaOaGynCl3AnNaTabQZrfiuNdzhkqAOjEABBF0axAOj+QLnbXaZIypqd29C/8QFGyklwlky5UpqliGG0001eC0dGvbRwefpA2AwDwTDNyhNXf339IMQw/kXFtNte33HWmJvda91J3fbKZydaLYfT9I6PoWFoNAMAMBYBjFi2aUwzDT/RksrFkH5a0YIoXmZH0xsR1ZzGMLi8UCktpOQAA0xgAimF49o5Zs38xtuOfN83jNEnnWTP5RSmKPlUqlXpoPQCAADCF+vv7Z5fC6MuSXS0pmuHxdrnrAz4y8t9RFB1F+wEABIApUCgUcj3Z7C0uXdxaw7aXZFw/KeXyb2YTAAAQACbRkVF0YtBM7pLrhBYd+zw3/04pij7EZgAAIABMxs4/n39t4rrOpUNafPzmrk+WouhTGteThwAAEACeoZArvDpJ/FpJB7VLEdz1geK+EAAAAAFg3Ef+YXh0YMmVkma3XSVc7y/moveySQAACADjcNTixYcmsqvb4LT/czP9YzEMz2azAAAQAF6gkUzXf2jmH/M7UBnJvrpsyZI+Ng0AAAHgeZTC8N0yndshNVk4GmS+Ll6VDAAgAPyWnf/iUr9LnXYD3WmlMP+HbB4AAALAc/Cu0c9I1nHvbXf5p45avPhQNhEAAAHgWY7M518rV6fOpnfoSFfXR9hEAAAEgGcfJbt/uKOr43pXGIYvYjMBABAAnjr6j6Jj3XVGh9dnVsbtPWwmAAACwJim+18qBdPnmulPoiiaxaYCAEh9ADhm0aI5Jp2XkhodnE1sJZsKACD1AWD77NmrOvHO/+figf8+mwoAIPUBIHBP141xrjf09fX1srkAAFIdAFKoZ1Z21smUAQBAAEgZM38dVQAAEABSJ3klNQAAEADSxm0ZRQAAEADSxtQ/sHBgLoUAABAAUhYBds7duZgyAAAIAGlLAKM2jyoAAAgAaQsAQZMAAAAgAKSNS0wGBAAgAAAAAAIAAAAgAAAAAAIAAAAgAAAAAAIAAAAgAAAAAAIAAAAgAAAAAAIAAAAgAAAAAAIAAAAgAAAAAAIAAAAEAAAAQAAAAAAEAAAAQAAAAAAEAAAAQAAAAAAEAAAAQAAAAAAEAAAAQAAAAAAEAAAAQAAAAAAEAAAAQAAAAAAEAAAAQAAAAAAEAAAACAAAAIAAAAAACAAAAIAAAAAACAAAAIAAAAAACAAAAIAAAAAACAAAAIAAAAAACAAAAIAAAAAACAAAAIAAAAAACAAAAIAAAAAACAAAABAAAAAAAQAAABAAAAAAAQAAABAAAAAAAQAAABAAAAAAAQAAABAAAAAAAQAAABAAAAAAAQAAABAAAAAAAQAAABAAAAAAAQAAABAAAAAgAAAAAAIAAAAgAAAAAAIAAAAgAAAAAAIAAAAgAAAAAAIAAAAgALQf990UAQBAAEjb/j+T2UYVAAAEgJTJJgkBAABAAEibPe6/ogoAAAJAujzUaDQepwwAAAJAmpg2UAQAAAEgfe6iBAAAAkD6/IASAAAIAOmSjCTJLZQBAEAASBF3/YgbAAEABACzoTQVyWTfYFMBAKQ+APTH8Y2StqSkRntG1PwemwoAIPUB4GZpVKbvpKFALvsGp/8BAASAMVn3SyUf7fD6NJWxv2czAQAQAMZsqNdrkq3u8PqsrlarG9lMAAAEgP2YJ3/bwWcBdjVNH2ITAQAQAJ6l3GgMyewLnVgYd306juOYTQQAQAD4DZrSRyU91GF1uW9vMsq1fwAAAeC5xHH8hMsvluQdUpM9gen3hoeHd7F5AAAIAL9FtV6/2lyXdkJBTP4XD8Tx3WwaAAACwAvQM2/OB2S6tb3L4Z8v1+tfYLMAABAAXqChoaG9HgQrXWrTo2e7qlKvX8ImAQAgAIxTtVrdmm2OrpBUaavjftNg0/xNkppsEgAAAsAEbBwefjAJ7BRJd7ZJDb694NBDL4jjeDebAwCAAHAAarXaluysnuWSrmnhsSdm+j+Vevz769evH2FTAAAQACbBhg0btlXq8e+46xJJe1tp0CY9JvmKchx/TFLCZgAAIABMLq824kvNdKpJP2uRvf/qEflLKvX6NbQfAEAAmELlOL69XI+Pl+w9+46+Z8RG92BlJY7fXK/Xf0nrAQAEgOnRrNRrn+/ZOSfcd1nAh6djoS7V5PauJfV4oNqorqXlAABI2ele4NDDQ9slXVoqlf41GR19o6SLzPUGSd2TuJjdki63wL5SqdVukJRU6DUAADMXAJ5SLpf3SPq2pG/39/cf0p3JnGVur5XptZKOnsBHbjDppkR+gzKZG6vV6tZ2b86skZGRkWxXajfOrmaTpzMAoNMCwP6Gh4cfk/StsT8NLByYu6d3+5HyoOSmUErmu4JeM58rabfctrn7NplvMvcNs3bN2zB2ZqGj7O7q2pHxFG+do7Oe5CsKAB0cAJ5tbGd+19hfasVxvLsYhqOSZdM4/q4FXU9qM19SAJgKASVoeU+kdNxbh4aG9tJ+ACAApJNZLZ3j1kaaD6ATuGQEAIx/P+h6IJVfGPcNdB9AhxzQzCEAYNwS14Z0fl+Ce+g+gA45BTBvavcTNqE32RIAWlyQsdvT+YVp3kT3AXSIg6f0gCnQhN5mSwBocT3be38sKW3Pwz9RaTTupvsAOkRxij+fANCJhh4e2u7Snek6+tc6SU26D6DdhWH4IkkHTelPpvuE5sEhALQBc12Wrv1/8A26DqATZDwzMOW/mUnwEAGgU3Vlvi0pScloH509b/Z1NB1ARxzAWfPUKV9IVgSATlWpVDZJujUVXxbXvzMBEIDOEbxuqpeQyWQm9Ip7AkDbpEj9UwqGuXvE/HN0G0An6O/vP0TyV07xYraUy+UJvTeFANAmynE8KOm+zh6lf6ler/+SbgPoBLMymYskTe0rXQ9g1lQCQPtIzO2THTy+J6yr6+O0GUDHHNIouHjqF+L3EwDScBagUfumrEPvBXD73+Vy+WG6DKATHBlFJ0p+/JQvyGz9RP/TLG1qs92k+yUu+4mkTOcMy9YvadT+pUJ/gZYyMDDQvXvHjnMs0Ykyf4kreJHkD0k+JOmaSr3+A0lOpX5d4pqeM7ZJ8t8EgLScBajX7yzkor8304c6ZEjbvGkX3SyN0l2gNfT19fX2dne/f/f2He+SdISbtO+Fdk/t6+1sSX9VDMOyzC6T+5WVev12pedx5d8qn8ufKflpU35EKO2YPW/ezyf633MJoA3lGvH/lvTjjjj2d3t3dbj6AF0FWkMhV3j17Gz33e76qKQjnucbXJLr/ZLdVgyjXxbC/JdKS/Kr+vv7Z6e1fscsWjQnMP/nafn9lH54II9NEwDa0M3SqGeCiyRtae+9v/6+3Kh9nY4CLbLzD8NzzJIbZDpyAv/54SZ/hwd+ZU8m+2gxDK8v5KL3jU2FmxrbZ/VeKmnZ9PyE+g0H8t8TANpUtVpteDM4U9ITbbrz/24ljj9EJ4HWUIyis0x2uaSeSfi42ZKdYabPZmWbimH+R8Vc9P58Pr+sk2tYCMO3mvwd07W8ZhBcRQBIawgYrv7cPXmTpF1ttupXWDb7dnG9EGgJRy1efKhc/ympewo+PiP5KTJ9Okj8/mIYVYpRdGkhVzhjeQfdh1aMovNM9p/TeBD181qttoEAkOYQ0GjcGJheJ/kj7XHgb988+LBD31wul/fQPaA1jGa7/l7Pe71/8g6U5XqvWXL9pjB6sBPuGyhF0bly/ZemetKf/Xii7x/oZxAAOsADcXyHkuzrJDVaeDVd8k+U67W3rV+/foSuAa2hUCjMd+miGVp8W983sFzKlqLoY+76vqbm7Mlz/p5akvkmAQCSpMqmyi88Exwj03dbcPWelPyCSr3+v8Uzw0BLCZrNt0pqhaPvtrpvYFkY5jeF0Q/HnpaY5nlZ7KbKcKVMAMDTqtXq1kocv8Xk75a0tSUO+02DymZeUqnXL6dDQOtx6U9acLWefd/A/cUo+nQxDE9uhf1WMZd/+6jsbkknzcTyzfVvkxL+2Pw77/tcrte/kAS2TK6vzOARd8Plb6rG8aqx1xkDaDGFQmGpZC9pg1Vd1grzDZRKpYXFKPovmX9V0kEzVIt6f6N2GQEAz6lWq22pNOKLvRm8TPKvSz49M+25NrnrkqZpWbVe/z6dAFpYkhzfhms97fcN9PX19RZy0Qd8ZPQBud48s4d4+sebJ2nmVKYC7nDV4erPJb19WRh+dFT2DskvklSY5MU0JV0v01esK3tFhTv8gTYJADpc1tYjeOq+gTOyss8Uw/ztcl+TZOzKA31ETpKiKDoik+jtMr1PUl8LjPehOXt2/cdkfRgBICU21Os1SR+W9OEjo+hEl85216mSTtTEbgB6VKablNgNmWTkqo3Dww9SZaC9WKDdHXRb7lP3DZwSJP7pUhjdL9cVzYxdXqvVfqoXeDk0iqIjMtJyud4s1wrZ9D3a9/xH//Y392zZsoMAgAl7II7vkHSHJJVKpZ5ms3lUpqkjk8BLgSvnpjnmNseVzDcFW919m8y3Saq7dF+QJBvKmzbVxEQ+QFsLzO5LvDMfzHHpKJk+GCT+wWIY/VLSzyQbkmujSY/v9+8dbIH3uxTJdYJcR7fokKqz5vV+cTI/kACQcmMT8vxs7A9AiuxpNn/eZUGizr8f7EX7/vws2a+fCmiHDOTyvz6QF//8xgDIVwAA0qnRaDwu6Voq0fKurdbrl032hxIAACDF3IN/oQotbWdW/qdT8cEEAABIsWqjepVc66hEiwY001+O3cRNAACmSmDNZjp/YfQV9+BMcVNnavcxzUB/LGkbpWg511Tj+ItT9eEEAGBMMwh2pvLXP9DPqo3qDeI9DakVx3Es+XmSdlKNlrE5CeziqfxeEgCAMTZiqfzxC9w58oMq9fpNkq806TGqMeNG5Mmba7Xalin97lNnYJ8km6RyR+j84GO/EDBqGpB0BdWYyS+l/WWl0bhtysM/lQb2ieN4i6TdaRu3uW+g+9jve/CrSj0+X0nmpeb6rKRfUZXp/ELq0kqj9s/TsSgCAPCMg2E1Ujbm5mgQVGk9fu1swKbKL8qN+M8r9Xixe/Aal/2jpJjKTKnLKnH8F9O1MGYCBJ6pKmlpeg429EAcx7tpO36LpNqo/kjSjyT9ZSmXG1AQXOhuKyQ/nvJM0nfRdP2o9FZN49M4nAEA9j8F4LorZeO9ma5jPMqNxlA5jj9WqddekZUX3HWJZLeJp0gOJInf2rtr1/nTHcYJAMD+X4hg30uS0vO7Yz+g65ioDfV6rdqIL63Ua6/2TBDtCwO6RfteEY4X5upde/eeNZlv+SMAABMwqlQFgJFgtOsmuo7JUK1WG/vCQLy8a3Rkkdz+wORrJe2hOs8ZwL958GGHnrd58+YZeQSZAADsJ47jX7l0dzp+fHzdxs0bH6HrmGz3P/jgo5VG7Wvlen2lZ4JFLn+ryb7v0g6qI0lyd/1duV572/r160dmaiW4CRD4ta+mLpfp2I4fptk3aTam4czAVknfkvStKIpmZRM70wNfIdd5kg5PYUn2yO2d1UbtazO9IpwBAH7tS5F8PwXDfGjP6OiVdBvTKY7j3eVGbbASx+86+LBD+y2wN8j1RaVirgF/RK5/TQJ7ZaUFdv6cAQB+g3KjMVQMo9slvapTx2imzw4PD++i25gpY6e+rxv7+9NiLnecBcFKd12kznkUd6dMV1liX5+/8NBrZ/J0PwEAeKFZXf55k3VqANiaBMEX6DJaSFJpNNZLWi/pY6UwfLlL50v2RkkvbredvsuvlvSdxOyqpx/ta9RabkUJAMBvMHvu3NW7t+/4tKTFHXj8/7dj12WBllSu1++UdKekjywLw/yI2yozu1DykyVZC67yLpPf6B6szs7uvnzDhg1t8V4RY1MDfrNiLv9HMv+3jhqU6wHrzr60XC7P6KNZxTCqS8qlcbsyt7eXG7Wv8w0bv0KhkNNocr6ZzpN0sqTuGVydJ01a6/Lv7Wk2r23HS2oEAOC5ZYphdI/a7xTkc+7+3YPXVxvVG2Y8XBEACAAHqK+vr3dWdtbJZs1TJS2X7JVTHghMP3e36838+qZ0c7tPo80lAOC5Nd2T95oF13dCWHbZP7XCzh+YDGOT59ww9jcWCLInmdnysUDwckm9B7CIXZLd6dIdgeuOEUturcf1X3ZSDQkAwG9RbTRuLIT5L5j83W1+3Ll+9tzeD9FRdHgguHHsT5KC0pIlec9kXmruL3a3nEzzJR2878+63H2HmW2T+3YF2uKJqjIvexCUDznkkGqr3bVPAACm2dzdOz+wY9bsMyQta9ffRs/YG4eGhvbSTaRIUt60qSKpIumK8f7HtVqt4wvEREDA87hny5YdGU/Okbwdp83dZvIV1Wq1QScBEACAcdrYaFQlvVlSGx1F+3bJzyvX63fRQQAEAGCCKvX6DyQ/T1I7PO7zhKQ3VOp13vYHgAAATEIIuMY9WNXibzWrKMm8plKv/5iOASAAAJOk2qjekJheIem+1ls7u2rEkxMqmyq/oFMACADAJIvj+H7PBCe5/Hstskrb5PbeSr22stFoPE6HABAAgKk6E1Ctbq3W6xdaYudKmsm77K+w0eyLK43aP0tyOgOAAABMg/Km2ppZO+cMuOlDkh6eruWa6XrJT6nU4/PLD5aH6QQAAgAwzYYeHtpejeNPzdm9Ky/X+0z62RQtaptJXzbTSeU4fj03+gGYKGYCBCbRPVu27JD0OUmfKy4pvkRB8hbJXyfpBEldE/zYX0p+g0vr5u7efcXYMgCAAAC0orE78T8sSccsWjRnx6xZJ7rZUrkdKfMjzXWQZHOlZL5kI+ba5uZPmoItLt1vrg1myS8eqNfvo5oACABA+54ZuGnsDwBmHPcAAJgJSQrH/Cu5vStJ7HbaD84AAEirFN7HYA9WGrV/o/XgDACANNuWviH7NtoOAgCAtHucMQMEAADpOxqupG7IpgfoOwgAANL+07Mhdft/9430HQQAACmX3JvCQd9L30EAAJBqu0ZGbpe0N0VD3tkzd+56Og8CAIBU27x5807JfpqaAbtuHRoa2kvnQQAAkHrufn1qBmspGisIAADwWyXBt9IyUmWz36XhIAAAgKTqcPUBydJwXfzmSqWyiY6DAAAAY0zJlzt9jC7/Mp0GAQAA9rNzZOQrkh7u3J2/arl6/b/oNAgAALCfzZs373TX5zt2gKZ/uFkapdMgAADAsySBPifpoQ48/i8H2Syn/9GyMpQAwEx64okndh8yf8FWmVZ21O5fenulVruPDqNVGSUA0AoHI8Uwf4fkx3fEzt80WI3jVbQVrYxLAABaQTNQ8jZJuzpgLA8l0jtpKVo+dVMCAK3gsa1bHznk4AVbJZ3Tzgf/Ln9LrV6/i46CAAAAL9DjW5/46SEHH7xM0kvadP//kWq9/h90Eu2ASwAAWmoP2jRdLOnHbbfisv+o1Ot/SwtBAACACYjjeLd1Zc+T1E530F+Wq9f+mO6BAAAAB6BcLj+sbGa5pHtafV1N9s0l9fh3b2bCH7QZHgME0LKOWrz40JFs16Ckk1pw9Vzy/69Sr39g3z8D7YWbAAG0rEe2bdt16MLDvqGkeYRkL2+hff928+DtlUb8WboEzgAAwBQq5vJ/JPPPSJo3w6vy4ySwP6zVahvoCggAADANli1Z0jeSyfyr+YxMG7zVXR+tNuLPS2rSDRAAAGCaFXKFM2TJP5h07FQvy6UdZvqPpvR3cRz/iuqDAAAAMysohOFbTPZuSSdPwY6/JtdXsqPdX9i4eeMjlBsEAABoMcUlxZcoSM5290l5tNnMf1Kp128Wd/cDAACgk/z/NGo8v1c6Bd8AAAAldEVYdGRhdGU6Y3JlYXRlADIwMTgtMTAtMTVUMTA6MTY6MDYrMDA6MDBp7S8XAAAAJXRFWHRkYXRlOm1vZGlmeQAyMDE4LTEwLTE1VDEwOjE2OjA2KzAwOjAwGLCXqwAAAABJRU5ErkJggg==;fontSize=14;fontColor=#182633;" parent="-sU8y2Q3AdZbQh8XbGMl-1" vertex="1">
                    <mxGeometry x="2865" y="449.12999999999994" width="64.92" height="64.92" as="geometry"/>
                </mxCell>
                <mxCell id="250" value="Users" style="pointerEvents=1;shadow=0;dashed=0;html=1;strokeColor=none;labelPosition=center;verticalLabelPosition=bottom;verticalAlign=top;align=center;fillColor=#505050;shape=mxgraph.mscae.intune.user_group;labelBackgroundColor=none;fontFamily=Helvetica;fontSize=14;fontColor=#182633;" parent="-sU8y2Q3AdZbQh8XbGMl-1" vertex="1">
                    <mxGeometry x="2660" y="467.58" width="55" height="43.95" as="geometry"/>
                </mxCell>
                <mxCell id="27Sd1tIstSIbq7g2QUdL-263" value="" style="shape=image;verticalLabelPosition=bottom;verticalAlign=top;imageAspect=0;aspect=fixed;image=data:image/png,iVBORw0KGgoAAAANSUhEUgAAAggAAAIICAYAAAAL/BZjAAAgAElEQVR4XuydB5wcZ3n/f+/s7vWq3iVXWdWy3JAMJBgb2xQbhxCKwaZXG1MSQggJKUCSP9WQkAAGF7nbYLBxAXeMiyy5gHtvapZ00vXbNvP+P8/7vrM7u7d3W253b2fmGdBH1t3szLy/d3be7zxVSCkleGMFWAFWgBVgBVgBVsCjgGBA4PuBFWAFWAFWgBVgBfIVYEDge4IVYAVYAVaAFWAFxinAgMA3BSvACrACrAArwAowIPA9wAqwAqwAK8AKsALFFWALQnGNeA9WgBVgBVgBViB0CjAghG7KecCsACvACrACrEBxBRgQimvEe7ACrAArwAqwAqFTgAEhdFPOA2YFWAFWgBVgBYorwIBQXCPegxVgBVgBVoAVCJ0CDAihm3IeMCvACrACrAArUFwBBoTiGvEerAArwAqwAqxA6BRgQAjdlPOAWQFWgBVgBViB4gowIBTXiPdgBVgBVoAVYAVCpwADQuimnAfMCrACrAArwAoUV4ABobhGvAcrwAqwAqwAKxA6BRgQQjflPGBWgBVgBVgBVqC4AgwIxTXiPVgBVoAVYAVYgdApwIAQuinnAbMCrAArwAqwAsUVYEAorhHvwQqwAqwAK8AKhE4BBoTQTTkPmBVgBVgBVoAVKK4AA0JxjXgPVoAVYAVYAVYgdAowIIRuynnArAArwAqwAqxAcQUYEIprxHuwAqwAK8AKsAKhU4ABIXRTzgNmBVgBVoAVYAWKK8CAUFwj3oMVYAVYAVaAFQidAgwIoZtyHjArwAqwAqwAK1BcAQaE4hrxHqwAK8AKsAKsQOgUYEAI3ZTzgFkBVoAVYAVYgeIKMCAU14j3YAVYAVaAFWAFQqcAA0LoppwHzAqwAqwAK8AKFFeAAaG4RrwHK8AKsAKsACsQOgUYEEI35TxgVoAVYAVYAVaguAIMCMU14j1YAVaAFWAFWIHQKcCAELop5wGzAqwAK8AKsALFFWBAKK4R78EKsAKsACvACoROAQaE0E05D5gVYAVYAVaAFSiuAANCcY14D1aAFWAFWAFWIHQKMCCEbsp5wKwAK8AKsAKsQHEFGBCKa8R7sAKsACvACrACoVOAASF0U84DZgVYAVaAFWAFiivAgFBcI96DFWAFWAFWgBUInQIMCKGbch4wK8AKsAKsACtQXAEGhOIa8R6sACvACrACrEDoFGBACN2U84BZAVaAFWAFWIHiCjAgFNeI92AFWAFWgBVgBUKnAANC6KacB8wKsAKsACvAChRXgAGhuEa8ByvACrACrAArEDoFGBBCN+U8YFaAFWAFWAFWoLgCDAjFNeI9WAFWoEwF0g4QTwNJG5ATfDZqAS0RIBYBLFHmCXh3VoAVqLkCDAg1l5hPwAoEVwHbAUZTQMLOHePz+yR+86SNe7Y7GErS7zQBWACkoP+WWDlL4G2HCBy9QKC7xSUEoWChvQlojgRXNx4ZK+AHBRgQ/DBLfI2sQIMoQNaA0SQwltYX9MqAxEUPO7jzZQla92mZF16bgZCQZu3XvzOwkOEBOqLXxiAws03g4+uieNMyfcCoANpiQBMDQ4PcBXwZYVGAASEsM83jZAUqVMCFArIUkNvgokccXPOEDSG1NcC7vFtCGggwJ6sAEJSBwWwEFwf2CHx4bQTHLLBgWUB7jK0LFU4lf4wVKEsBBoSy5OKdWYHwKDCWAkZSQDItcfHDDq583IEyE3i2/Pf/6gNC9nzkepjfIfDRwyM4bhFZFQRaY65VIjzzwiNlBeqlAANCvZTm87ACPlFgJKnjCn75uINNf7IVJNCmluppBASyVSh7hbJaSHxkbRSnHhpBZ5O2KlDQI2+sACtQPQUYEKqnJR+JFfC1AgQGBAOXPOzg4kdsSHIXeICgkQDBtSsQMrxuoYX3r7JU0CPFKsQYFHx9H/LFN44CDAiNMxd8JazAtChAYDBMYPCIo+ILKLZAmwx04KG7NSIg0LVRnAJd8vq5Fj6wOoL1czUocOrktNxOfNIAKcCAEKDJ5KGwAuUokEgDBAcXPmTjwocpvoD+7yUCfwGCoRq897AI3nmowMIugdZoOYrwvqwAK+BVgAGB7wdWIIQKEBj87lmJTQ+n8Xw/vX+7CYj+BgRLUY42gZy9PoKTD7TQ1SzQwqAQwruchzxVBRgQpqogf54V8JECFHw4nAAu+5PEBQ9nqxtR0J/yKvjcguACguslaYsKfOYICmZka4KPblO+1AZRgAGhQSaCL4MVqLUCw0kdgHjhQw5G07kJCUEFBFfTzx0ZxSkHWSrjgSs01vpO4+MHRQEGhKDMJI+DFZhAAUcCQwmJC7Y6uOAhXchIVTf0FiQKqAUhI4kQWNxp4aNrBI5fSvUTuPkDf2FYgWIKMCAUU4h/zwr4WAGKNXhpP3D5nx1c95TOUAgjIOhsDA0FnzsygncttziA0cf3NV96fRRgQKiPznwWVqDuCgwnJS5+0MHPH3SQdITulcCAoEQ494gITjvUUtUYOR2y7rcmn9AnCjAg+GSi+DJZgXIUoHiD87cQHLiBiAwIOT4VIfG+FRbeeUgECzsEN4Iq5+bifUOjAANCaKaaBxoWBShL4edbJM5/kCIR3VEzIHgBQRhTysE9Fj60OoLXL+Ish7B8P3icpSvAgFC6VrwnK9DwChAcZCwHOXF4DAiFAIEmtNkCPrs+inccRC6Hhp9ivkBWoG4KMCDUTWo+EStQWwWGEsAvttg4f6utcxgZEDKCe4MU6YeuBcE7I587IoLTTVxCbWeKj84K+EMBBgR/zBNfJSswqQIEBz83MQcqS0Gtgt6PsAVhIgsCqeQWVjp3fQSnH6KDF3ljBcKuAANC2O8AHr/vFVBwsNVRrgVtODBljxgQSrYgZPpTCeDz66N45yGcBun7LwYPYMoKMCBMWUI+ACswfQq4loPzKVtBGisBA0LGIuDOTDEXgxcQWi3g3CMtvPXACJqjbEmYvrubzzzdCjAgTPcM8PlZgQoV0DEHUsUceBe4RrIg0HU5toQkeIHUfZQsARGB/qN+4F699ot4W0xLzz/U52lfkdMxItPumT6d34uhEkCgox/YLXD2ERG8bgHXSajw9uSPBUABBoQATCIPIXwKZGIOtjpq8I0ACCr2geo625mrQXIMGNkrkBrNREbAigm09Tpo6QYslTUgISISlgKGxgAESIl3HxbBGSsimNcevvuLR8wKKFyXUnrxnVVhBViBBldgLAVcsNXG/97vZDouTScgkFwO1WNyJMb6BEb6BK2vJW4CUki0zrDRPguIxAQiBhYUOkyTBYEGQP0qzqV4hIM5/bHEyeTdAqYAA0LAJpSHE3wFfv+MxH/f6+DF/uwqPF2A4KQBaQMjfcDoPu0iqHQjGBCWRNdcibaZZFGQQCR7vHq6GFzC0ZAQwTsPjnCNhEonlj/nWwUYEHw7dXzhYVSgfwy4YIuDXzykXQvuVm9AkI4Gg+E9UweD/HmkRbm5Q6JjFtDcTe4Hvcd0AALFO5C2XzjSwmkHU2ZD5QAUxvuVx+xvBRgQ/D1/fPUhUmAoruHgZxSU6KQg44NAOg40dUC0dAHCqlKao8ENSpn0rIe6IaIAWQ2SowQGAsnhbGxB9adCoHO+RPtcR8cn1CtIMZ2CPbIfMp2A1doNq6UDbU0W/vF1URy/VIVB8sYKhEIBBoRQTDMP0u8KUNzBhVsd/Pdd/XDi+2HvexHxx65BauejaDnkRLSsPh1W+xy1oIlIbNJCSeZ1XHU1pLdzK5pVR0NANshQ76v/rXIHBDCyW2Bol4Cdqr2qwgJ6lxEk6AyGTKtq1ZVSX1dunIJuWaksHPTHZR1Pu2fNOaatpRkC7WaP7AMSI0jveRGD92xCfPtj6DzqXWg7/GREO2bhMxtm4a9XtaGrqfbj5jOwAo2gAANCI8wCXwMrUESB25+TOO/2fjx228UYfeSSgkGATYuORNvh70XTvLWQLZ0FKylGojq9UMGBJdHSrf39EVr0pJsgWTjCkDIMaEsMCux91sLwLpH5TDohYCemPo1kKYg0E7Toa2huB2avsJUVQcDSQKDAIP8a3fd6+rlAckQgMQhIAzEKLxz6o68xHxDs4T7s//15GH3yDsBxxunbNGsJut9wJr7yvuNx+qpOjkeY+lTzEXygAAOCDyaJLzHcCgzGgV/cM4Dzfnohxh6+ZFIxIi1daDvyLLSse2/GP0AWAlp46U/7bInWmW4L6OrpuvcZC/ueiwCOQCoB2MnSj03AElNQALTOdDDrUAetMwpBQOnHzN9TpgTGBgRScYIayrjIWhec0X7su/E7GHnijqInmHXq3+P/feodOOWgJpWSyRsrEGQFGBCCPLs8Nt8roFMaHXznJ5swet+P1Bt7sa115TvQvuGTiHbNUItu+yyJttnuglty/mGx0xT8Pb3l733aQt/zAmRVSJNVYYJTRluASJNEaw8wa7mNtlm5gZcVXUDRD1EMhUBiQIdvOLbA/lv/F0NbfwUnPlr00x1rTsCnP/kxnPmGgzC7tejuvAMr4GsFGBB8PX188UFX4K4XJM77QxyP3HoJRh/4adHhWs3NiHb2oHvj32DWCe9BU0d138SLXoC7gxDY/6KF/c9ZiA8aUDCsEIkB0WaJuasd9B5AUFBbaJnsmuP7Ley94Sfov/9XsEdHig6P+GzO6f+Mr571Npx6sIV2bg9dVDPewb8KMCD4d+74ygOuwEBc4sKtEj/+9YMY3fpTpHY8UnjEKnZQINLRja61GzDrze9C67Ll07rwZjhBWRQi6HuOzPtUC1li5oESMw+SiHVMLxxkxRTY9aufYuChPyDVv7coKMz+q6+jY+1J+LeNEZy4TMdF8MYKBFEBBoQgziqPKRAKbHpQ4j/vTCP+2FUYue+HKniu0Bbt7EbTjLmY+cZTMeNNpzbk2KUtsOepCGJtEr0HVD8GohqDppiCnb/6Kfruuh728CDkBHrPftc/o2PNSfjcEVG2IlRDeD5GwyrAgNCwU8MXFmYF+k3Ng/MfcJB86U6MPvB/sPe/nCMJxciR1WDuWz+IWSe9pyEsBv6fM4G+O3+D/vt+h/j2F5Au4HZwAYH0/6fXRXHSMov6T/HGCgROAQaEwE0pD8jvCqQdYNODDr7zB3rTptS8JOJ/ujQnBiHS1o6m3jmY+ZfvxMw3/xXDQZUnXVkTfvkT7L392lyXg5BQLoY1J6kskfcst/C+5RbmtjMhVHkK+HANoAADQgNMAl8CK+BV4Pk+4GebHVz/pHYp0Jtq4slfY+T+/4GTGFJBiDPf+A7MOvHdiHb1sng1VGDnL8nl8BvYI0MqljLaPQuz3vZltB56nG47LST+/qgITjkggiZTErqGl8OHZgXqqgADQl3l5pOxApMrkLSBi7c6+MHddqZCIAGCPbQdYw9vQnrbHzDnlPdh9knvZSnrpMDu6y9C313XwXEszHzrF9F26Ov1mWliBPD6BQKfWBPBIb1sRajTlPBp6qQAA0KdhObTsAKlKPDnnRL/e6+Nu1+kdsN6wdF/SQUHHTMHMfMvTi7lULxPlRSg2g77/ngD7OgCROevhSVMbWoDCFJKfPWYKE45wEKMkxqqpDofphEUYEBohFnga2AFqBeAA1yy1cG377LVm6kXEKyYVI2LOuc5ptQwS1ZvBVKjlioz7VD5ZlXRWVsQaGMrQr1ng89XDwUYEOqhMp+DFShBgRf7JH662cZ1T7hNifTqE4lJdC2Q6JhPPQKmr6hQCUMI/C7JYQvJQQGZNgBnAIH6Q/zL6yJ4y1LKaGBXQ+BvhJAMkAEhJBPNw2x8BS55yMG3brfVS6nuWihU0yJlOVjQKEWFGl/HWl9hcsBCckjAobKKHhZ436EW3nuYhTltDAi1ngM+fn0UYECoj858FlZgUgX6x4ALtjj42QNZQKDmhR3zHHQtdkwcAovYKAok+i0kR6zcro/SwTc2xvDmpRyI0CjzxNcxNQUYEKamH3+aFaiKApc+JPGtO2zlQnAtCNE2oGuhozoc8tZoClDDpwiSI8i0kKa5O2ddFKcdbKGDezQ02oTx9VSgAANCBaLxR1iBaiownAAuetDBj+8jQNBWa2po1LnQURYE3hpXgbF9EaRGtUtBxYcIKCvCCUvYzdC4s8ZXVqoCDAilKsX7sQI1UuCWZyS+d5eNlwd0AKKwgK75UrkWprPTYY2GG6jDJgYtJIep2qUwgCDxtWOacPIygSh7GgI112EcDANCGGedx9xQClz2kMQ3b7cz6YstXUD3IgdNXWw9aKiJKnAxVJJ5rF+AshukQxYEiZOWRPHhVREs6270q+frYwUmV4ABge8QVmAaFdg/BlxoghPpMsi1oFMaG7Pj4TRK1bCnllJgbJ+F1CiZfyQsWMrNcPyShr1kvjBWoCQFGBBKkol3YgVqo0C+9aBznkTPUkctNLz5R4HEgIUEuRpMkOnZFKx4UISDFf0zhXylhSxkkiuv8I3BCkyLAmQ9uOABifO3kLVA6sDE+UDnAv1v3vylwGifhfSYuWYh8M2NURy/mAMR/DWLfLVeBdiCwPcDKzBNClz2kINv3O7GGeiCSD1L2bUwTdMx5dPq2giUzaAPdc7hUZxKVoSmKR+aD8AKTIsCDAjTIjufNOwK7B+VqjDS+Q+QO0FXTKTMhc6FDAi+vTdULIJAyrUiAPjmcTG2Ivh2QvnCGRD4HmAFpkGByx528I3byHqgiiqjtddBzxIH0VZ2LUzDdFTtlGP7qS6CKoqgjnn24TGcepCFTrYiVE1jPlD9FGBAqJ/WfCZWQCmwb5QyFyj2wOtecNC7jJsx+f0WSY25HR9NTQsBfHNjDG/iWAS/T20or58BIZTTzoOeTgUuf1jiG7c6oF4/tCn3wgLbNGQq58qy1fqkDdipbNnfSBSw1FsrWyQmU9SxBUg7d7MiulCVbsJUmXaZlEfVEVrgsxSLcCBbEcq5s3nfxlCAAaEx5oGvIiQKjLceAB1zHBWcKCLFFiRT0pdgIEkwoLs2UCJSalhARdGnJKJNQNtMifY5nC452W1Fi3d8QKjAQgVXUqClHYi1SxAoECDQjChoKDo32TOp8ssUh0Apj0IoEPzWxijetIgzGkLyNQ/MMBkQAjOVPBA/KHD5QxL/fputAhPVJil7wUHPssmDE52UgJ3Un0kOAcN7LNgJjwVBAFYM6JjtKDCwyljQ/KBbra8x3k/BhQJOWgAEXm5TDEg0dwKxNgnqrqlhwb2awkBHXR5pjpy0tiDQdvZaymiwOKOh1hPJx6+qAgwIVZWTD8YKTKxA36jEhQ9I/JxiD8zCIUCAYKObiiPlb1KoN1snBVWpb2inthioj3p6AVkxiUiL1FaDWbRoFbNE8CxNpECcUhWHPG4HF+SMPaGpU6KpXU8fuYaEVUhrk80wmgUEOt83NkRVLILnkDwRrEBDK8CA0NDTwxcXFAWoTP9lDzr41u3GemBWiWizRNdCW7sDMi+mGgzScYGRPQKje4X2i5tNEB0YQKDiSh3ztdWAwaAad4sANWBKjWgLgHbj6E1SdUsCA8MEzT0S0RYJK0pxC15QKAwIH15p4V2HRDCjhTs9VmOm+Bi1V4ABofYa8xlYAWzrB37+gIMrHyHrgYpeU6p0zst1L5C1IDlCUGBhtE/voy0G2QWIAIF+JpokOuZJFcPAcFDlm0wKxAcFkoPUhMklMw0Imamg+AIALd3OOFBwAxVdF4OeSImvHR3DiUstxDgcocoTxoerhQIMCLVQlY/JCngUGEsBm7ZKfP+PDoTr284Ago2eZY6yGFBMAUHB8E5lI4B03RB5gEBvrE2tQNtsidaZDAe1utlo8aceCy4kqJBFikNwWU1RWsa+gOYuoKndUTEKylUxkuMJUjuesNjCR1SnR7Yi1Gre+LjVU4ABoXpa8pFYgYIKbH1V4od3O9iyXeq3z4wFQSoLQudCicEdGgzUi6ZbPqkAIBActM3SGQrknuCt1goIUAAjxSWQm8jrYtBmnNzzN3U4iLVBpU4mKFAxlbsDfeTz6yJ42wEW2mIMCbWePT7+1BRgQJiafvxpVmBSBfrHgIu2OPi/zdpO7QUE+u/WGY6qVzD8mq6oOBkgEBy0z5XonEtvqQwH9bz1EgMCiWHtbvC6GLyAoPreCUpttNDS5SCd0FYh70YuhwXtwFeOiuLIuQwI9ZxDPlf5CjAglK8Zf4IVKFmB6x6lwEQHA0n99pmpv0Ovkm5Xn7yiPIUsCCJKsQa6oROnMJYsf1V3jKuWzgDcjNQ8C0IGEBTlaeDTzqLspmIShMSnV+u0xy4uwVzVOeKDVVcBBoTq6slHYwUyCvSNABc94OCnW2yVD69y6CnNPp0NUtQ756YmFgIEsjR0LZCItbLA06UAxSAkKHCR0iBVG41cF0MOIJiLzAlSNJUVlZVBSnxrYwxv5OJJ0zWdfN4SFGBAKEEk3oUVqESBKx+W+Nff2yY9zsQX5MQguEedHBAolY4sB60z2a1QyTxU+zPJQaHSIKnyYkEXQ77FoIAFgaDw02uoBHOErQjVniA+XtUUYECompR8IFYgqwBZDy7c4uDnmwkQshaD3CDF4oAQiUl0zHXQPjvf6sBqT5sCUqoUSKpT4d3KsSC48Sb/sYGtCNM2j3ziogowIBSViHdgBcpTgKLdr3jIwb/fapt0xcoAQTQJdMyWaJ/NloPyZqD2e1MvjOQolWbOnqsSQPj4qgjeeVAEPc0csFj7WeMzlKsAA0K5ivH+rEARBbYPSPxis4PLH9aZC5VZEARaZ1MhJIdS73lrQAWod0M6Qc2y9MVVAggUxvgPR0XxliUWmjM9HhpwsHxJoVSAASGU086DrpUCQwmJS7Y6+NEfs6WTKwGESEygdZaD1t4CPRpqdfF83DIV0G4Gt4lWJYBAJ9wwP4JPrYngYC6eVKb+vHutFWBAqLXCfPxQKXDX8xLfvSON5/qywy4XECjboXUGtWxmOGj0m8dOG0BwKrMgKMsDBM5eE8E7Doygk9MeG33KQ3V9DAihmm4ebC0V2GvSGqnngrc3QrmAQN0CqStjhBeLWk5XdY4tgHQSkGlyNZhCSZ4jT5Tm6L0/qFZCzBKq2+NxCzgWoToTw0ephgIMCNVQkY/BCgC46mGJr/+Oah7o90J3KwcQlPWgB2jpcfMhWdpGV4DAgIIVHSqgRDUOKgAE6rvx6dURnHogF09q9PkO0/UxIIRptnmsNVNg77AuinT+A86UAKGpA2jr5WqJNZuoWhxYCjgO1J9KAcGlCkp7fP3C/PqLtbhoPiYrUFwBBoTiGvEerMCkCtDCoIoi3aLTGiu1INDnmjuN9UCZHXjzjwJSN3NSEQXZrVQXg/uhj62M4p0HWehp9s/I+UqDqwADQnDnlkdWJwVe2Q+cf7+Dq/7kTAkQok1AUye4S2Od5q3qpzFtuacCCIQXf78+otIeW6JVv0I+ICtQlgIMCGXJxTuzArkK7B8DNm1x8ON7TbfGKVgQKDixuYvq9E9sPaAeAMqUbUIcqHGTUIUS2OJQ9XszX9Ji9aqoTKZFFqTsjhNbELS1Qc9cbsnmtTMtnHN4BCtm8JxWfU75gGUpwIBQlly8MyuQq8BNT0p861Ybe0b0zyt1MQhLItYGNLXlHp+AQNoUHa+bP1LOPeXeC1pcLIFYqwT1amBAqPadKWEReGl/kRLfLYjkznTuv/VPrSgBWxFAUDdKtv9GPiDQvz+x2lJ9Gro5k6XaE8vHK0MBBoQyxOJdWQGvAhSYeMEDDnRa49QAIdqsAYEWF9UEyLQUphQ6O6FbBOecwxKItFAqZLHXWp6zShUgQCDrjLA0JEiaAwHQ+q8tOYRpUnd2NNNAqanedtzlxiAYGlFg8p8UsMhpj5VOH3+uCgowIFRBRD5EOBW45hHgazd7ivFPwYKgAKFFuw/sFOBQbr1xNaiX2ByzNRBpNnUSmA9qevNR2qkVNZBgACEzFards4SdEsrKQ6BA+1qxrJuhYkCAwCdX6bTHbu7TUNM55oNPrAADAt8drEAFCuweBi58wMEvPNYDZTmuKAYBoK6NZD0gi4FZh0C58eqYHkCg/6YFKBKr4KL5IxUpYMWk1lu5HLQFITMxWQ+EggSqh0Dz41oRpgIIZJb452NieNMiCzFuyFHR3PGHpqYAA8LU9ONPh1CBoQRw6VYHP7h7fCnkygAh64/OQIYyaY8HBPVGG/OWYQrhBEzDkKPNOrtEuRwKAAJd0lQqKebGmGZjSiib4cMrI1jcwQGL0zDtoT8lA0LobwEWoFwF7nlR4tu323hqz/hP1hQQ6O01ov3ivNVbAaGCQemPCUnQph3Pul0LQKAYh0+vieLUAyLo4oDFek966M/HgBD6W4AFKEeBPZ6KiYU+V1NAUCl05Vxtg+3rXrtP4yYou6Cpw0G0xXBBHQCBZjBiAf+5MYYN8/w8+Q12L/LllKQAA0JJMvFOrIBW4JpHJP7ppnTG/J+vSy0AQaXJu75un64RMQqqbAbScWpu5NNBAGhqkWhqp1LYJjikxhYEdX8JmIBFTnvk51B9FWBAqK/efDYfK/DakFSBiRdsmfgVuCaAQJr59K2bLj3aKtGzyEHrTAfDuy0Mbrd06qYfNyHR1CHR3A6ISO1dDC4gUELL14+igEXq/OhH4fia/agAA4IfZ42vue4KDIzpwMQf/tGe1M5fC0BQefbj4yHrrkElJ1RwsMRB2ywnwzjDr1kY2mapgk9+3dpmSsTac+tT1SIGwQsIJy2O4MOHWVjc6V/d/DrfYb1uBoSwzjyPuywF7nxW4j9vdfBSvy6WM9FWbUCQtmkjXNbVNsbOVOWxd6lE22yCA2+hJ4HhXRYGtuuqkAqAfLY1dwMtXVLVPXC3WgMCZU98YpWF0w6IcG0En90vfr1cBgS/zhxfd90UoJoHF212cP5m08q5XoAAofLqHVNVsW4DnvKJdAnongNstM/OTeHMHlpgtE9gZI+FxACBwpRPWvcDtM+RqvtmvQDBPc+3NyJwH2AAACAASURBVEaxcR77Geo+4SE8IQNCCCedh1y6ArajAxP/+Wa9SuuiRRN/vpoWBDstYCdLv9ZG2JNqNDS1At3kVphTnGyoMdXgDoH+Vyykx/xlOm+doVtzu1aEWlsQ3Pn95EqqsBhBD6c9NsItH+hrYEAI9PTy4KaqwCv7JX5+n8QVj5hujXUEhHRKIJ2Y6gjq93myGrTPcdA5HyqQr5zIysHtEQxuE0iNCl9ZTLoWSDR3aY3rBQh0ri8eHsXJSy20c0vo+t3gITwTA0IIJ52HXJoCu4dMOeX77byqhvWyIFBaoFD9GQp1DixtFLXfi+oCNJlgxPZ5lQYUCMT7BYZ3WhjeI5Aaq/11T+UMNOZoE6CCFU0HznoCwgGdwFfWx7B6pr+sLlPRnD9bfwUYEOqvOZ/RJwpc+2eJr/w210xeTxcDlVqmGASyIjjUwKm4xb6uylK3Q4rk714k0TmfCgip3oZTvAaBgVcpiFEgOWw1HChQyWXqzdA+G2juqG8Wg1dYwoJProzh1AMEupunKDl/nBWYQAEGBL41WIECClDNg4s2y5xWzrRbvQFBXZqg4kJAepS6BgJ2bgPJus8f+dypWFBzp0T3IkdlKVR/E+h/OaKyHRLDQGq0+mco54gEBtRau22WREunNPdBfesgeK9XNYwSwD8eFcXxCy00UeEm3liBKivAgFBlQflw/lfALaf8s/uccQGJ0wEImW6OEpgbAxY2CewdBl6iLIA6BjE2dZDFwFEmdQIDKnxU603Awv6XLAzuEkiPAKmReqVF0ju6xAG9CcxoTWFvWxPi7RHd+rmOzZpcQDSdvzNyu4Dw+vkWPrk6gmVcG6HWt2Ioj8+AEMpp50FPpsD1jzn4xxtsJNK5b4jTZUHwtns+83CJczY4eOgVC795GNg5ILCrX+CFvQLJqrsghLISkLWANspMIHcCLZxTdyWUfw8O7bQwuM2CkyL3g0ByFFWuoaD9+Qf0JjGrPQ0hHLzjsL1YOWcYl+xcgM2DXRO2e6bP1TMGwQUEuqCPU1bDARZ62NVQ/k3Fn5hUAQYEvkFYAY8Crmvh/M02qDlPfkrjtFoQAJy5Djh7g6MWI/3HwT3PWLj2oQiGqJaABHYPCbzYZ2EslTu1hcLZsgu9UGbz2R0pzOtIotlykHIEkvNikIssZV5vjC6SQgHCvucFZg0LzG4WaszbBoBX9gHxpJq1SbdslITuzLi4x8bcDhsRteoCp6zcj/ULhiFgw3YkHNvB1bvm4b7BbqQgYHarSzfHYhYEtyX4l9dFcOJiC62c1cDPsyoqwIBQRTH5UP5WIBN3sFlX/mt0QFCpDY6ELSUcKkco9Rv1Ay9a+O2fotgzqN5r3f/rN3+1Buq/FWBQDWf1ecCyJNYsGsbGJf3ojCbx4lArbtgxB0+nO9DaQ+l8UoHC9GzatUBwMLZPIDkCfOko4LRDqAy1xC3PCvz+zwL9AxoYMmN0gybVWNVrvhm3toNEhMSblo/hmKWjaImmYTsOHJvAwIHj/rEl7u/vxq37ZmJ3uqmhXAwuIKzuBb64LopDe4rh0fTMHp/VnwowIPhz3viqq6xAMi1VQaSv/44sB3prPEAQyoJwzgYbjl7hcwBBLfj0xisdvZjSAifdhY5+p/+b3oppAaQ/0rFh5y+IapF0cP32OfjtjjkZPVp6gdZeB9FmqSL567NpiwB1gEyPAolBqg1BP5P4q0MF3rtCYk6ba03x/G10cBxtZaG/aeze/9YAoH/uAsF4QNAWhH0JC9fsmY9HRzsb0oJAuPMJ19XQxJBQn3sz+GdhQAj+HPMIS1Dgmd0SP77bxo1P5fYMaCgXgzQuho3axVAUEBQoZBdBx7HVgqgBwfOWXAAQhpMCN2ybg9t2z/SoJ5SbgSChudtR7ZsjNQMFvcg5Scra0DUSUsPGIiI0NNBMfelo4NSDCwACWUXyoGA8HJQCCARLWq/Ldi3EluGehrQg6EmS+MQKikeIcDxCCd953qW4AgwIxTXiPQKuwO5BiQs3S/yM4g48L18NZ0EgQDgiG4NQO0CQ+HNfB367fTZeGm3JzL6SxhXIkhoUOqUGBVX2d6pWBS2+TAN2UqjhERgkKXNBWXTI7UPNsjyAcJQBBOU2yf1THUDQFgQXEB4Y7mlQC4I7TRLf3RjDsXPZihDwx1ZdhseAUBeZ+SSNqsBIQuLKhxz8x22UskeBeo1rQeiICQUIHzrSrtiCoILuiloQJK5/ZTau2z4rD5g8gKBWcglKv2vplWjp1ou3iOoKgyJSDBY8C5gkIADslP6ZPSqQGBKw03T87H75gED7nn4I8J7DJOa21wEQXluILUONbEFQNhd89LAY3nmghV7OamjUx45vrosBwTdTxRdaCwUeelXiu3c4eOAVvaA1MiCsnyfwsaMljlpUuotB+d2NqZ1cDMq9QOZ3r1shz8VA7oXrX52NW3fNmBwQjM1Avd0LAgSoaorUwIjiFFQKiAe4cufPAwgOEB8QSIzopBGvFacYINAxv3iUxDsKuBmqY0HwuBh8AghCCHx8RRSnHWChmxs61eKxEZpjMiCEZqp5oPkK7BoELtzs4Bcqa0FvjQwIpx8m8JnXSXS3lggIJkjRCwilxCA80teO616ZhZdHW0sGBFdby4CC0pIAwtLZAt4eV0prlUHqAoTX2qDTLd2tNEBwDCCYzAzjahgHCJmgTR2YWFqQogEE28Fluxf4woKg72PgextjOHoOt4XmJ1/lCjAgVK4df9LHClAb519nei2Yt90GB4SzqAbCxqwpvZQYhHwLQimAQHDw61dma6tATkxG3uu9x4JQCBA0cWk3hAsM+j899SWUhWFqgHD6IVK5GfKzGapjQTAxCD4EhI8fFuWARR8/oxrh0hkQGmEW+BrqrgAV1Tn/XokrHqZOjQEFBPXGbGdTHo2LYbIYhHgKuP6VWbhx+0y1uPsBEAhAvnikxDsO8haQGp/FMJU0R9t2cPlrC0BBio1UatlrYdFfomxbcipT/beHR3DCYgttXECp7s+YIJyQASEIs8hjKEuBvmFg0wMOfnyPfpj6CRDO2Uh1DrQVoagFoYCLoVgMwrP9Lbju5Vl4bKDdV4DwpSMl3l4EEFTKp6cmQrkuhl/tmYf7h3qRdlyTyPQ3a5ocEASW9wj87bqo+ps3VqBcBRgQylWM9/e9Arc8JfG16230x7Vx2y+AoIokleliKLcOwvUvz8S1L8/UUQM+siC851CJdy93MINaTk8UgzAODsqog2A7uG+gG7f3z0ZfykT+kXnFGy9B0OaJwVDOFK8Jxv13nltlfDpt1qLlemQmatZUDBDo8x9dEcFpVBuBAxZ9/+yq9wAYEOqtOJ9vWhV4bRC4iAIT79eBiX4BBIIYikEoFxDKjUG4TgHCLD1HPgKE7mbgnHUOjl+SdTNUOwbhlbFmXL9vHp4fazf6+AMQ6GIpYPGoOWxFmNaHjw9PzoDgw0njS65cgesflfjbX2fbHvoFEGixLtuCUGYMwo6RKH7z8kzcv7vLd4CgqiquJzeDrhFBfwqVV6601DLFIIykJa7euwh/Hu72HSAoK8Iy6vjIkFD50yN8n2RACN+ch3bEZD248H6d1uhufgEEZUE4gvowlJHFMAEgTFQH4bqXZ+BXL800DZ38ZUGgefz0WonTDnLQFNFWhOoAQjbN0XZSuGL3Ejw43Os7QCAXxfc2RHHUHKtot8vQPiB44OMUYEDgmyI0CpD14EvX5pZT9gsgKAtCFQBhsjTH37ykASGz+cjFQPO4YR5w1iobh/ZWExCyaY62k8YVuxf7EhBoTj90WASnHxDhCouheeJNfaAMCFPXkI/gAwV2DUpccJ/EBZud3EI8fglShAGEcoIUyyiUNJwECBBu2mbejn0Wg+BWUvjSegdvO1C7GapTKMkDCLaNK/YQIPT4zoJAF6ytCDoWgR0NPnhoNcAlMiA0wCTwJdRegesfdZT1QPdbyJ7PNxaESgDBtHrOL7VcqA7Cn/a24NqXZuC5wVbfWhDowicFBE/r69IrKXotCLaxIPgTEJQVYXkEpx/IVoTaP3GCcQYGhGDMI49iEgWopLK2HqT9CwgqSFHgHNPqudp1EH79Yi+ueZGsB97Sif4plORaED54mMRfHWKjqymbwugGJlZWByELCNTL4nKyIAz5FxBoelVGw2y2IfBDs7gCDAjFNeI9fK7Abx+V+KKyHuj8cl9aEARMFkM2ja9ooSRJjZqyCyUtcAVjEBwH177QowAhx/jssxgEuk2XdgKfXGvj2Hl6rN7qieMzGMqrg0Atn3UMgn8BQVoSH14exenL2Irg88daXS6fAaEuMvNJpkuBnSZz4YL73dRGvwKCroNQbi+GUgBhIC4UIPxue5fvAYEA54vr03jrAdUChGBZEAgQCJLP2xDF+tncyGm6nkt+OS8Dgl9miq+zIgXIevD5a9PIPgr9CQhRS+Ks9cCnji0jzbFEC8LmXW345fM9eHU05ntAoCS+LyhASMNxUFULguOkjYvBf2mO7pfHBYSPLbdw2rII10Wo6KkSng8xIIRnrkM3Urfuwc8z1gOSwJ+A0NEk8aH1wFlHlgcIpVRSvPb5blz1fE+2BbN7p/jQxUCA8O5DbLzrEBu9zbqlcyYGYYpBikGIQXABQUDiBxtjWD+LrQihezCWMWAGhDLE4l39pcCNjzv44q9sON5uwj4FhM5mKpQkcNaRZcQglJjmGDRAmNECfObwNN6wgKwIHkCYYrOmIFkQCBA+szKGty2x0Mk9Gvz1YKvj1TIg1FFsPlX9FBhLAb982MG/3kR1D7yE4E8LggKE9QJnrS8DEEpwMewesfCrF3pwxw7dX6CWQYr6+OYcbhB9XuOicRYeT0QpLWr0h6JMvTH4lN/vzrCqEyiALxyRxslL8wChomZNwYxBIB17Yxa+eUwUq2dyRkP9nkz+OhMDgr/mi6+2RAWe2Cnx/dsl7nwuGIDQ0UwuhvIBoZiL4ZZXOnDVc90YTGlTcy0BQcOBwYSaAoLE59elccoyAgRyyehsBf23N6ujvCyGoFkQhBT4DpdfLvGJEs7dGBDCOe+BH/UNjzn4/C91z4XAWBBq4GK49vkuXPlcd+YNPCiA8PYDbLz7kDTmtEzVxRBcCwIx2hkHR/DXB0Uwg5s4Bf6ZWMkAGRAqUY0/09AKuGWVf3GfowPvAuBiaI3pGISPHl09FwO9Tf8qoIAQsYBzD0/hxMXpPAuCro1QeiXFbLOmwFkQzLeYghWP4GDFhn6mTdfFMSBMl/J83popcNNjDr7wSxu2a9AOACBU1KypSAzCayMWfvlcF+7Y0QFpbAhBsSBQTMIX1qVx0pIUA4Lnm+bNYnC9PH+3Noo3L4qgNVqzryQf2KcKMCD4dOL4sidSQOIGqn1A7gUdrwZaXLObP4MUaQyVFEqaLAbhdy+36/iDpBUiQOAYBB1pQgGfelvda+FLh0dxYBcHK/JzNVcBBgS+IwKlwI4B4IJ7JS7cbConBsTFUBEgFElzvOa5LlzxLFVPpCwADVFBsiD89UE2/uqgFHqbdVXFqfZiCEqp5XxAoH9rNwMDQqAehlUYDANCFUTkQzSOAjc8JvH5a9yyyjpsPggxCMrFUG6zpslcDNLBNc92BhoQZrRIfHp1Cq+fn8rJZqg8BsH/zZoKuRjoS3LumihOWmyhnd0MjfMwa4ArYUBogEngS6ieAip74RqdvWBeiQMBCJTrf9YRwDkbygtSnMjFMJiU+OWznbj+pU4lUxAtCDSuLxyexFuWeAFhCi4GO4XL9yzBg8P+L7XsdTEQICztFPja+igO7WYrQvWeRv4/EgOC/+eQR2AU2DkAUObChfcHERAoi4EAoYxSy8rFYEOangTebo5bX4vhqmc78dxAc+AB4aQladgmc2F8R0ed1eD+Xv1t25l/K2uDLWHbtE8aV6h2z8EDBKpH9YMNUazjbAZ+nnoUYEDg2yEwCtz4uMTnrrHzYxIDYkGoLiBc/Ww7LnumMxNzEFQLwqdWp/DWpSlEkNuXofQ0x2wdBFumdbvngALCP62P4g3zLDRFAvNI4IFMUQEGhCkKyB9vHAUIEM65xobqaBswF4NOcxTluRgmCVK8xgCCW9swqIDw+vk23ndIEss6yZJCFpXKXQxJ28GVexbh4eEe475y02T0P6WkMtDZ7AD6mfCUis78O6+8tAoMzbHs65bM3nuYXEzezXRthsw7PuAWB8sLODUfnigGgQ7z+nkWPrUygkXt7GZonKfa9F4JA8L06s9nr5ICg3GJKx6U+K9bnYACAnDmOuCcjdWJQdCA0JVRP6iAQL72c9cmceJitx5C5YCwJ2Hh2r6FeGpUx21QTwjvOu53QKAh/WBDDOs4m6FKTyX/H4YBwf9zyCMAsPVliW/cbOPRXQgoIFAWAwFCuTEIDqTjVg/U6X4DCeDqZztw/YsdgQcEGuC5axN4CwFCRRaErIvh8eE23Lx/LrYnWhkQ+KkTCgUYEEIxzcEf5I2PkXshrd7qMi4GYykNSpojFUqiLAYyIqu3VfrjSNhSKtM5/UzBgEpvpF/R3943Zg0IW3Y144pnOvDcQCwkgJDEWxYnMxUVy0tzzALCHftm4K7BmRhMG90CaEH47KooTllsoSN7awT/4cEjnFABBgS+OQKhwA0UoHj1eEAIWiVFsiA4BAIlAkKhNMernunAJU935LZMDmChJPfGJhdDFhDKdTFkAeHq3fOweagXjhsQEEBAmN8m8C9HRrG8h+MQAvFgnOIgGBCmKCB/fPoVGBgDLt/q4Nu32bkWBOUnDk6hpLJLLU8QpBg2QHj3wSmctiyJnpg9pSDFy3YvwANDPR4LVfBiEAg8zzsuhnUzdftv3sKtAANCuOc/EKPf8rLEv91o44nXKIrc42IIGCCcsRY4e4NExKrcgkB5/lc/04FLn6b4g+xbYlCDFOkWWNju4GMrEjh6DhVMqtyCQICwZagnm0YbQAsC6fWDjVEGhEA8Gac+CAaEqWvIR5hmBW6i9MarbV0NMMCAcNJBwKeOBRZ263iDojEIBSwItnRw9dOduPSpjtwI/AC7GOj2PHdNHCcuSlZgQTAuBsfBZa+FAxC+ekQUfzHfQjPXQ5jmJ9v0n54BYfrngK9gigpoQEjrJS7AgHBAj8CHj5Q4+dASAaFAkGJ/QuDqpzpw3Ytt4QOExUkVpFlRkKJj47LXFobCgnD0bAvnrI5gSQfHIUzx0eT7jzMg+H4KeQCqQNJVFKCYBwgBy2KICuDMI8iKUDkgbN7ZhMuf7MTzg1EGBI+7oWip5RABgiMkfkj1EDgOIfQPVwaE0N8C/hZg7zBwyQMSP7qrMCAEKYuBZopqIZxtGjYVdTGoqoG5dRCuerodm5409Q88L4hBjkEg3T6/Jo4TpuRiCI8FwYHEDzcyIPj7yVidq2dAqI6OfJRpUuDu5yS+dp2DbQPOeAtCwIIUyYWiiiWVCggFmjUpQHjCxB+ECBA+viKBkxcnELMqC1IcS0tcuXsBHhruDnyQItXZ+CEHKk7TE62xTsuA0FjzwVdTpgIUf3A2uRcMDAQ5BsG1IKhiSRUGKYYVEI6bZ+M9B8exrEO3fi63WdPzIy24vm8OXoi3hQIQ/vOYKI6dYyHCYQhlPpGCtTsDQrDmM3SjCR8gSJXqWFIWQwEXw9VPd2DTE+1QtX5CZEHoiEl8elUcb5iXKBMQdLvnG/fMxN0DMzDiREIBCH+9LIL3H2JhVgsTQugeqp4BMyCEefYDMPabHpM4myoohsiCUHIMQgEXw9XGxRA2QCAY+tzqMZywsFxA0GmOl+xcgM2DXbo/k9stNKB1EMjF0NMkQFaElb0MCAF4TFY8BAaEiqXjDzaCAjc+5qgaCAUBIWBZDDTGdx4GfOZ1Drpbyq+DkEhTDYR2XPFU+CwIGhDiOGFhvAILAgHCwlABAnXB/NHGJqydyYDQCM+56boGBoTpUp7PO2UFhhPANQ85+PebwwMIB/UKfOQoiRMOsosXSsqrg/DqoMCVT7bjzm0toXMx0Mv+ORUCgm07uHQHlVnu1qW7Q2BBsEwmw1pOdZzyc8rPB2BA8PPshfzaH9sp8Z1bHNz9PBlFjU89wIWS3EGeuU7is68rDRC8aY63vdyES55ox57RSEgBoTIXg522camxIMDytBMPsIvBEsAPN0TBgBDuhywDQrjn39ejv/UpiS/+0sZI0rzS5RdKMtAQlHbP7mRRqmNJgJAXg3DlUy246PF2WBAMCKpIUjblcbJCSYm0xOU7qMxyF0IDCADO2xjF4WxB8PUzcqoXz4AwVQX589OmwM2PS3zWTXEMjQUBOGudVHEIRQslFQCEix9vh2BAKCPN0cFzwy24fvccPDfWGhpAINb+0cYYxyBM29OtMU7MgNAY88BXUYECGhAo/iBcFgQChM++zpRbdiRsKVUTIkp9lJTjr2IPoBdBaWf++8qnWqEBAaG0IHx4ORVLiqNJuNaD0iwIv9k1B3fv78GYI0IFCN88KorXzbUQ5c7PFTydgvERBoQ6zWM8Bfz5VaB/FHjL6jqdNOCnuelxB2crQDBbSFwMf7NK4tPHOmiLSaAoIGRLLYcdEP5yQQrvPiCOBW3pMiwIEpu2z8PmfgpQpG6h4QhSpK/Shw6J4PQDLPQ0cyZDwB+lEw6PAaEOMz8wBlz9gMRNj0rsGAD+9TSLIaEKuocVEFbPliqT4bglZCaYxILgKZREPvarnmrDxY+3hdaCsKjdwUeWj+GImdTVsfQYhEu2zcf9A+EDhCNnWjh3TQRLOxkQqvC48uUhGBBqPG0EBxfdDXz7d7Z69bCEwMIega+fZuEktiRMSf2cKoohikGgoapMhmPtki0ItiNBFoRNIQYEKht89qox/OV8qoVQKiBIaEDogmpoFZYsBgAdMeC/jo1hFRdLmtJzys8fZkCo4ewRHFx4t8R3bpagSHppAEEKgUU9wNdPZUiYivxhDVKkIMMPKkBIF7UgSBOpT4BwlYpBCK8FgfwD56waxfELSgeE/mQEV+6Yiz8NUYOr8LgY3LAD6urIxZKm8pTy92cZEGo0fwQHF9wt8d2bdY4+pUx7AYGMdivmCVz2SWBGO5vwKpmGmx8HPntVKnQxCAQIZEH4zDFplckwYZBinovhyqfaQm1BoC/hOSvLA4Q/9nXjlr0zsCcZY0Co5EvKn/G1AgwINZg+BQd/kPj2zQ6o4EhBQBDA7A6Jz7xJ4COvz+ucU4NrCuIhw+piIEB47xoHnznGRpNVLItBBylSDELoAaECC8LF2+bh/v1d5kscIgsCvdFQ22dVLIlfYIL4/CxlTAwIpahUxj4Do9LAAbkVtOVgIkAgt8PCHuCf3i5w8mrOJSpDZrVrWIMUCRDWzXPw0SMdHL3AKdmCEPYgxUpcDJu2zcN9YQQE89BiQCj3qRSs/RkQqjifg2PAL+508G3qDSCskgCBTr96IXDd2ZGMtaGKlxToQ4UZEGhizzycrAjpkuogxNM6SPGKJzkGoeQYBNvGpm3zcV9/CC0IproIxSAczhaEQD9HJxscA0KVpl7DgcR3bnRUpDO10y3FgkCnJyvCV98WwdvWVOliQnKYMAcpUq6iAoSjiwGCdjHsHgGueLIVN73YGto0x3ItCDvGovjljtl4fLg9lC4GMn6exy6GkDxNCw+TAaEK009wcOFdEv91g6MLqaiAxNIBgfZfOkPgv95l4dgDq3BBITkEA4KDTx+dhjNRJUVPN8dn91m47MlW3L+jObyAoIIUR0wWgyzai+HGXb24o68HQ+kIA0JInik8zFwFGBCmeEeMJIBrt0j8w9UObOKDigBBoikq8JeHWvjJBzkgqNQpCTsgnHigxMePsrGw0y5catmTxfDYHguXPdGGh3c3hRcQIHD2qlG8ucQ0x4tfmYN73fgDZXIPUR0EQZEubEEo9VkU1P0YEKYwsykbePBl4MtXpPHCXgFJGXcVAgJ9cHGPwFffBg5YLHFOwg4IM1upcZONd60kK8JEvRi0i+HhXVFc+kQrHu+LhRoQzlk1huMXjJVUKCnsgEBfQw5SLPFhFNDdGBCmMLGvDUr82/USNz1BtQ4E0gkVfoB0qlwXAzUbEsr6sHK+xJWfiKCd658XnZmbH3dMsyaza0h6Mah3O2No+uBaG59SboYCgOBxMWzeEcMlT7Thuf0RBoQSAGFPPIIrt8/CnwZN/EHYLAj0lRIECFwoqeiDKMA7MCBUOLmDYxI//6PED293KGEBkkqwUrM3IZEcFUin9IJfLM1RfQ+pQpsBhLldEue+2cJ7j+a0x2JTw4AAnLnWwSePThV1MTAg6BWvVAvCbbu7cMvubvSlYpnbMFQuBjNqrqRY7CkU7N8zIFQwv0OUsXCPg+/fRo+cXEAQlqTidrATFgQk0kn9qjeukqKCB92mOAMIlt5vAWU1nGLhlFUcjzDZ9BR1MWRqUJh20FrtDLTRv+g3VOHSfSV358TsmXlTd69DAd8k02KMGNkW1JnWyuY+cE/lkqM6sLqKzFDdU1BJbvfeUWV+M4aSrAXh+GUOPnZkGou77UnbPTMglAcIF748C/f2dcKdAz0R4SqUxDEIFSwOAfsIA0KZE0pwcMHdwPdu122GaUHxWhBg0UNEIGIeJimyJiT0opRTankSQHCExIq5Aj/7QESlQPJWWAEGBKCnWeLMw228e3VqAkDQMQgMCOUCwmzcs68z98YLEyCoZ5vgNMeQP3wZEMq4AVStgz8A37/VhnAznyYBBGkJCCmRGqO/gVSKXBBCvZVo90NhCwIBwsw24IPHRnDu8WxFmGiKQl0oyXNbUBzCJ45KjgcETxYDA0LpgPDiUAzXbOvFU8MtWR9hyCwIriWMYxDKWCACuCsDQomTOjQmcf4fJL57iwS1jS0ZEAgg6H9SIhEXsBM6MKEYINDvF3YDXz0pglNWMySMnyYJ3YtBW3K0OUf7csiI4/2Z120QNBcD1H/DAgAAIABJREFUjfMDa2x8/KiUcneRtUAFLDrQkfrSVv/94K6YymJ4si/KQYpFghSvfqUXd+zpQMLxBBGFEBBao8B3jo1h9Qx+/pS4TARuNwaEEqY0kQJ+/6jEZy511Ns/uQ9KBwQdvOjGJiRHLdgqLkH3alDPHTdI0cQgkAVBAQSAxd0CXz7Zwls5HmHcTBV1MRhoCDogHLVA4sNHpLBmTnpCQHiqL6LqIGzZFfY0x+LdHC94cSb+uNetnuhZHEPkYqBRH9wl8A9HRNXfvIVTAQaEEuZ9Rz/w2QsdPPgqQC8VlQKCikOQFlIJqWLS0nE3CM1kMRQABAp1XNALfOUkgVNWctdH73RxFkNWjQ+sTeMTRyYLAIK2KrwyGMHlT7bizlfCXSjpnFWTA8JQCrjkpRnYvK/NpXePNSpEQYoA3r7EwgcPjWBuKwNCCctEIHdhQCgyrRR38JM7HJx3C2BZUwcECvyREaliEhLDQkHCZBYESnaUlsTiXoF/OtnC8cs5/dGdsqIWhBBkMbhafIDiEI5MTAgIfWNCAcINz7eE3MUwOSDcu7cNv93RBerDYMx7oQWEr6yz8JcLImghnypvoVSAAWGSaR+KS/zsDuC7v7MhhFUVQND+BnIhKHMCEiMUl6Bz4Sgbgn7sdTG4gBCxBJbPBr58YhSvPziU92oBFwPw2auofKXZ8mMQQgQIxy128JEjkji415RdzsQgaAvCmOnmeCV3czS9GJyCvRh+/sIM3E3uBcpV1v6/UAICjfqHG6M4fCa/kIT5acuAMMHsUzrjz+6w8e2bVedmlX1QDQuCFxDcuIT0qIBMUwVGHbxYCBAo0DEWAVYvAD73FwwJNG03Pw6cfTWl900ACOoBn80WMU/8QNVBcG/fligVTUrjjDWJvCBFDQi246h2z5seb2cLwiS9GH7xwgz8YQJACFuhJC6SFGY0ME9LKTOPV1bDKDAcB35+j4PzbrIRTxId1A4QCBiooJJICyRGhYpPyHSChC7dTC4Gt7xuU5RqJFj4+HEWTloRbtPfzU/oLIbMLRzSLAa6bYmRzlyTxsfW5wOCzmIgQLjqqVZczIAwoQXh0f4m/OrVbjw/0lTQgsCAwEtE2BRgC0LejCfTwB+elvjkFTaiAojH6bEg4KQsnYkwhSwGZa30uBjoeAoQqEQzAEfFJQDpMU0Gavc8QNCFmQSW9Eh84fgI3royvCZAikE4++o0WxAMILxxiY0Pr0vigB7KZnDTHLMWBAYEmFLL8YLNms5/vgd/2GOyFwq4GBgQwrY88ngZEPLugT1DwBeutHHfS9L0V9CAoOoXQMKx1VIOywTuTFpJUcFANs1R1z4Q2iJAtRDyAAERqAd7cghIxfWFFQQEIZQbYkmPwJeOt/DWFYYmQnY/Fw1SDJGLgSwIHU0SH1yTwntWUbDieEC48qk2bHq8LcQuBgIEClJMjAOElO2AAOHuvaSPjg/Kj0EIFSBwo6aQPU0LD5cBwaPLcAI4/26JH91hq4VdNWDymPcJEShOAMJBk2UhnihSarlsQDC1ERwgPgw4CQFp57oYFJAYQCDgoDoJf3t8xKRAhuue1oBAhZLch3leoaQQBSm6YRgfXJ3Cx44gN4M0hZJcC4LElU+1KBeDgs68jFm1+OlOFTlBeTkxemqHXLdWbhcJ3awsZw+hXWaG1czvsr0kdI+JSXpleM6nXHG0L8G151an47tHoLRgOqb3iO5ld8QkPrViFMfNTY4DhEf2NeGaVzvxwgjViWBAoJgrbvUcrudpodEyIHjiDggOzrvTdgvy5QCCevt30xwtoMkCRskVQPaEdLabY04vhgoBQQEAPeDjgJOEqsCoHogm4C4LCNo9sahH4JMbLKyYJ7BmfnhuagaE7Fy7C+IxCxx86PAEVsw0LaCpmqInSPHix9ug2oiFEBDWzrBxxiFjOLQrlQMIFJ/xs2e7ccfuVlOgrDAghKlZEz1jfrQhirUzwx3nFJ6nKVsQJpxrZTn4g8R5tzsaCkyVw3wLgpvFoGIG3AABCgCjTDshYKelsjiocr/0ZjQFQFAxCMIhYwXGBi1Q0yedHum1IGQ7E3Y0Sxy7JIJTV1s4eUU4buvfPSFxztU2bAreyLyihq/UMg098wYtgA+uSeKstQlIVXJZAwKVXaYshoufaFfrXBgB4W8OSuLtS+LojNo5gLA/AVzwfBc297UwICgHKjCjWeA/joliRQ8DQjiepgwIBRWIp4Dr/yTxd9c4uuOiAQQ3QtDrYigECMrsqb5DFlJpRxkQHPJQqGOZAERTarl4DIIpsawaOpF7g1pJC+VPjg8IpEaNSyPjYjA9HfTpdWnmHoHPHGfh2KXA/C531QzmLX7P8xJfu97GK/sZEDKZngL4wKokPnx4XGV36L4MHkAIcRbDOavjOGGhN/5Aw9MdO1vwm21t2BmPMiAYQDh5kcBHlkcxr40BIZhPz9JGFXoXw65B4MyfOXhmj16cKwWETPChhLIk0IpNoFBekKIXELQ1ggCBrAaOgYS0ggQdpKgCHV13rhunKICZbRJvWW7hmCUCJx8W3CyHZ3dDxYvc8AS984S3WZPXgkD3w1Hz0sqKsGpWKtOsKWNBCDUgjBlAMPEZxrry02e6cNtrLfoWUt8ndjF8fX0Eb5gfUa5U3sKrQKgBgeod/OROiR/dqReYqgCCWrR15gMVP6JkB2rzTBkLlVoQ1PGUJUEi0Q+kRi3ICQBBjYEMzpQK2S1wxnqBuZ0CJy0P3pvA433A9+5K484/sQXBa0Egq9YZq5L40NqxnKJJN7/QhEueaEd/IhJKF8PnVo3hzYvIgpAFhCf7o7jixQ48MRhjQDDrID0NqYriOq6iGF4yMCMPLSAMJyR+eidw3m30lm4iuKthQTDpi+otxIKqpZBMavN/1vUwUZpjYReDCwjqbxuIU0zCiBu0qI/tuhi8gKBdHxJLeyy8/wgLczqBkw71Pyi8Niaxda/EY/0Ofv2oxO6n3bs5nO2e8y0IBAgnLEvjzDVjmNuerYnw3H4LVzzZjvt3NjMgKOuBg4ue7cAtO1uQMKkWbEHQ8SznMSCEHg7US3MYKymOxIH/u9PBD26lN20gYsxoVbMgmNRIcldoqwFUbEI6BZO2aH4+rg7CxC4GN55BXaNyNwDJkfEuhkKA4LoilvQA7z3c0hYFBQq6i6Rftm0jEve+JrFtxMGdu2wMpSVG91nY+4w3jy7cQYp6gZOY3SZxxuo4TjkwnqmJEE87uPqpdlz5dHvoAIFu88+pGAQqkqQtCClb4qdPd+KO15ozQZ4MCPppQIDAfRj88mSs3XWGDhBSNrD5OeD9P3VUPQNaeGsBCGrKTJCiCwlUfEXFJVBlRscEN3oqKYK6PLrFlDxBilkLggscUkNCv0By1KRAmhiEiQDB25NgSY+F9x1uYWa7xJsOEmglM0cDb9uGCQwcvDAkcdN2Ry2AlCBCL30j+wT6GBDyFjhdB+CMVXGctWYsWzTJsXH10+3Y9EQHA4LjYOueGK56qQ0vDEcZEHIeARLnbYwxIDTwM7FelxY6QNg3Avzd5RK3PEnpiBMDQsaa4CmUNFkWw7gKiYUAgSITlLVCwLF1gRjHsTKllr2AkElzNEGKBDIqtdKTEUHuhjHKbhjRkYqmFUEmBsF1MajOkd6mRXQsUJaDwDtXAu0xilMA3nKwmzY5/cCwbRi4Z5eGgecHJX63nYCOoIDgQPevIEAY3Sd8Y0Gg4nyUYqjugZyCQ7nFgtwSBVTW242N0QWF9Ob25fA+JPJjEOjfR85L4wOr4lg50837dwGhU+noNR4FvVDSnFYHH18Rx7FzqEgSAbaD/32yHbfu0sGJufqFO0ixt1nim0fHsLKXIxTrtRA36nlCBQgjCeB/b5X44W3m4VhDQFBLmMfFkFms1c9M8wVJ+diWzkt3tB/CtSAUAwQNCwK2TYGLWUtCcQuCPjfVetBNofRiu7gbePdq3dK6s0ngiPkCS3vrBwr0gH51SOLeXfpR/SJZC16lNtumNbZeGQsCQt+zQlfGNZqYkBJ3NVXHyG7Z2hHuwqAWS7fGX5GFWM3jJLK4kOatDqhrDuhrJKijRHMRAayoGZRanrwAoE8xVUCgg5yxIo4zV4+ZvH8NCBc/2ZHRxtUl6IDw9iVJnH5gErNbdA2ER/ZGcMULbXhmSE1CjQBBwE4KOGmJaLOAFTX3cl71yPHAl+f6M9Yy7yKi7nH18/ybMRtwnVtvUn+ayrxrxPRWvMz9Tpy2VOCMQ6KY01q/73+jLpBhv67QAAIVQ1JwcAvFHbhf1NpZEIoBgqpzIGzthqDUSFvXO5jMxeC1ILj/TYsbwUV8v1AxCcr0brIYClkQ3OtyAYG+AAQF6u1Wda0EelsEjlsicMisrGViXifw5gMsbcWowtYXl3j4NYk9cQ1r9Nh6YVDi5ld1OV29EHuAaQJASA4K9L8kEB9tfECgIVBlTJtKdEeBSJMLCd4lynBOlQBh/RwbH1g5hhUzKXrfxlVPt+HiJzqNvtmJDDognLsmgRMWU48KXfvgx0+04dYdTRlLTtUtCFL3b0mO6EqrLT1AtMWcrsEBgQokHTPHUhlYvIVbgVAAQiIN/O7PwKcutrV52n0rraEFQd1W+TEIxsWg3BHKVE6FkMik4Oi0SFszPy346veeOgj5LgYvIFgW1VyQGNsvkB5RxvfMuWnpLexiyNbI9wJCxoKhFihduZFWk6XdEqcfFlH66Tdo8wbiNYObtxo3zVNp4O6eedjoR/HuMYl7djjYSQu76ZKpdjEWjVIBQaYFRnYJ7NvmL0CgNz8rIpUVgf64mTSuTaFaFgQyE71/xRg+sGpYLY63vNSCy57swN5EJFQuhs+tSeDERbq65PP9Fi5+thV/6tepjV48myxIsdRmTQQGTkogTaXS0xoKNCA0vgWBvp0/VPEHTAfhRgM9+lAAQt8wcOZPJB5+1RkHCLSI0wJp1qaySy27b7vlxCAUAgTX7SDozSNNnfjounQlxXFBipYO0suY3F3IsMmSQC2jlQ/BuLknBwSd4SAzFoRcQNDNdzQouL5v9+3erC+ZuAhtpyUrhDbpm18of7upMWEsA9qtkbUQqAd0ptCTMX+WaEGgz47tE9hDgYr5LgbzjGsUF4PXguB1HyhQaJKwIuY+NOpVw8VAR3zjwiTev3IEiztS2D5k4cqnOnDH9tZQAcK5a+I4YVFSVZe84tkW/PbVJgzb2UWwKhYEkHVIIjVMgGAsecS/EYGWbiDSzIDAi66/FAg8IFDcwf/cIvH939NiSwtergWhVoBQqovBtSBoQDDBd2RNUK5EXTS/VEBQ4EGBi/sFEiYFcrwFwRuDYNIkywQEt3wjuSk0pLimU9Ojwl2YXeoyLh16OGuAqD4g7H1WOU10H4zM094Fv8aIQSgECO77K0FCpJkWk+q6GOj4PU0O3rdiDG8/cET1rbj66Q5c+nRH6ADhxEVJ7IkLnP9kK+7bTWab7MO6GoBAFoPksIkzoa+uiWyItQJNHcZSpEg7P+bE090yY8/wXFwdYxDYguCvBbzWVxtoQCA4+O/fOzjvFv1VbSRA0G/VdsbFkLEgmFa87ps8BTgpTnAXVpPFUMiCkLEGOEJF91N2g6rp6MliyI9BqMSC0EiAQEMb7RMoCAjGXt9QFoSUjkHIbYqsFwx606S3zIiBhGpZEEiGk5cm8P4Vw+hpThlA6AwNIDRHJM5encCbFiRx06tN+NWLzXhtLHdRniogpBNAcojKrBvolvTN00cl60GUDDYmKLiRAWF5N/DldTEc1MUuhlovvn44fqABYSgO/M/vHYwmLVx2n40x5Q8UpuwxfVsd9co7PS4GT5CiGxNhzOzuG7nrh6fYBHIZUGyCeshM4GJwF3vLEkinoQIXE8MmQnlcmqMni8HHFgTSIz4I7HvRQorab3stCI0ICOQ+SmoXUu77q15MyIIQNZYENxXSvQ/c/UtNc/S+IS/qcPDew4bxxoWjoQOElb02zlyewNKONH7yRCvu2hkrEKTpWpuMK02lxeSmo04Ug+BaDpRbwe2P4gGE1l4doKgP19gWhM+vjuDExRG06+QO3kKuQKABwZ1bymC44C6JeNL47QG8Nghc9aDOIihUKEmlC5JLogZ1ELwxCDqQ0bzluy4GY7LX5ngzCpOtoCChBEAgyHBsofzzZPYcXwchOIBAgWBDuwT6t2nhGjXNkWaSXEc2AUK6MCDQPpGoUJBAqZCZNaqCOgi56ZgCb102qiDhlpfbcMnTHTm/DnIWw/sPSeEdy5J4cHcEVz3fhFdHIib4NhfRXK0natY0HhCAVEIgNeTOJ32nxlsQ/AQIP9gQwzrKXuKNFQhLkGLuTFMLXIGd/cBl92sf+nBCYNP9lElATZF0jYCpAkKpMQilAIIb0KcvSvv5qbtjfpCi14LgWiFo8RzdI5CMaxBRH/LUQVBvrZ40x1KCFBvNxUAm25G92s3gB0BQqY6TAALNY7SJgtqqCwhLu9J4z6HD2DkSxaVPhScG4dy1SWycS9aDZtyxQ78a6+ycqQECpSYnBwn4jLuCrAYMCLywBkiBUFgQJpsvWjIH48Av7qZaABKDCWDTZls9O5wpWBAqAwS3QI7bq8H87T7Q3LLMguom6NoFOh1Sp0oWAgQaO6U+Du12Uw51AaeJ6iD4FhD6LA0IOmvSrKzuAts4QYpkQSgGCGoMUXI1UCqkN3feHVZ+UFt+oR9jD8h5EdRvtscvHlUNxG55xTjFjVRBtiC8YV4ac9sktuyJ4hXK8KkQEHQZTBNjCKhA4PSoKdKlzEMMCAFaG3ko4bQgTD7vA2PAL+5x1BN3MCGxaYt5KKjeCAC5jk3CgemgOEEbZ/WUd7MEPCmHJtjQrYOQa0EoDgiqeJByRehyzcomoFb1woBAbgqqFTC2D4iTq8FcV04lRZ/HIJAmiUGBfS9ZqjdFowNCMReDe4da5GogSwKl61fBxUC3ybw2gl+JXaP5UfwaonKq75n0Vvd63DoV3m9Qbjy+TovN5ZJsvQ2T+OopjuGOaxKAy/jY6Np0ES1dK8Pz9m8Kbalb26zg3iPSNan12029rQIgqKBESmckS5B7MT4HhL+YL/CJFVEsbGcXA9OBeRkJYzfH0iZfgmDhwnuB/rjEJVspoDGb06+yCFRQYb0BwdQaoDNTkKXyJejUKrcGAQUpZgIdDZAoV8M+IDGkwUUDgv/THN0APnpQD78msP9Vq7FjEGydxTBRkGL+vRltEqA0uWoBgmtZ1+WfPYusibgPIiBoi4HGnwzsVOBicC0IMg0FpBnXgntQnwPCfx0bxdGzq1cttbTnLO/VyAqE3sVQyuT0jwEX3e9gIA5c9qCjrAjFAKEmLga3VoKxItADSxcy0gGJ+uWKXA65gKBjBiTowTZKmQ1DmnWCBAik90ifwJ5nGxsQKNKdKu1533C1gyD3J+59GXFdDbHs7yvJYlC2AWMep2WSAaH8GAQXECh9OEWuBd32wENZhV0MVEVRQV4DZzEQO1EHx3VcQbGUJSE0+zAglDHVBAqXPCDRPyZxycO6u+BEFoRigODWQSg1SNEteZzZnwiFshkoVsK8GKleDnJiQKB907bAyGsSdpwgIjgWBNKbaj/seUY3v8q+KrqVHTPvjjmNFNXSXKdmTXQFbi+G3CY7EwMCLepkRaAyve4LMANCeS6GaloQ7BTVO9CllHN9KRPHIDS1AzEqlOQ2amvAQkkMCGUsBCHalQGhgskm18OmrRL7R4FLH7YzqZDUKS1TZ6FIN0e3WVNuJcVSYhBcV4J+HVTNmTKpkNoSTSBATQN1zQT3PzRM0L6UljW827UylF9quRGzGGjJSI3pVMexvblV6BqqUJJp1lQqINDtmbEiUAC+8vFXHqTILgb3Tb4yCwLVFUlTkaVCBp8JXAwUS9LcLVU8SaPWQXjTAgsfXxHh+IMK1oMgf4QBoYLZTUuJnXHgvl0S37s3rUyNo30W7LTbI4FqFWRLEOvMADpRttRwtQFBPXhMPASVk6aMDMf0RnBtyyp+O6LjFUb3CsSHTOGoAAQpuosmpTv2PeM21/AsBh6TgifuTRv3G9iC4L79UkYD1UZgQCg/SLFaFgTHdlSfE4fSGgttEwACYX9LLxBr4GZNFH9AHRyr1a21gscqf6QBFQgtINhSYtcY8PiQxL5k9nXAmyFHi6zpKpTjI047EjviwGMDDvYkJRwbGNljqb7vZknSJQtMrIJICwz16YeKW/yoMCCYXgx5hZJUPJkyDeg3R20ZyLUguDFY7u8oNoEuR6iACb2wZOImhFRd5sb6LMSHgmNBIG0IfCgOwbPmm/oP/nQxuIubymho1t0f2YIwHS4GieQoVJaM+k4VYoQJAIGulgChkbs5/mBjFEfMMmDdgAsVX9L0KBAoQIjbwE27bMRzgod0LwN34XYd1LTI7xwD/jzkYG/C/bXuaqgeyiq6ID8KqfxJUot7WmBwr5t/rY9BdQwS+8mikK1hkGnWNEVAUCSgKkDqyn2ZRYYsC8oNQuQgkY5bGNgWoYTJsro5NqqLgQacGgX6t1lZN4O3xLQ7s3kFcupmQZAmBiGpA0Sz28QxCO7c0f1IhZNUhcW8DATaJ7eXwMR1ENjF4H4fynUxSFXSOxWnDKBKAEGqcsuN6GKY1yrwL0fFsKKX0xvLf8IH+xOBA4Srt6dx6avpjGO+Got8dW8B/SVUb/D7s2+D1G8hPliiBcET7OTGIHhdDN7Ax0wqpDJA5AKCKsVMVoQB454wpZ31sVwLyPh2z40MCPTsVlUV3WDFBgIEmnOHGjWp7NTyAcFqMn0aTLqt975kQNBqFKqD4ELWVNIc0wmpCiPRHJYLCHT+5i6BWJsOIG60Zk1nHRrF6QdE0Gsqd1b3ecdH87MCgQIEmghyF7x/S0L54P2xmcXYhlmo9VUTMFA6ohu/kHUxuIGQug5ChBZ9s9ZkYh3MQ8itEaAggnYiSRQEaAuCMjGoIkoWRvuz7g9/A4JU8SCqqqKK1GycLAY7KVWKo04zLB8QqDeDsiKowkm5dzcDQi0BQWLMWA8UhOQVasrMxIQxCECkyUJzlw5UbCxAEPjBxhiO4P4L/lgu6nyVAQWEJOS4JOU6Kzul0wkVSKgtCrqLIzVc0nEHpmKiqnVQOiCoYkpqFTE9GRQgCEQEQN3o9r1ieWDEzxYEqczAA68KjO7W7TEbIosBApQiR0WSKgUEmj0ChBh1BmRAyK7LRSopTtWCQA4bci+kKTW4QkBw4xCyRa8mq2uh6qNmnyDeTCXzU1UtVP083y2gfYrqZaFAoAS5GF0HKn2y2RL4zoYY1nL9gyk9sYP64cABwmAK+Lcnknh0iF4fg7BpWNBtmy1IRyI1op8AbldHXfRGuyfU88LbIVI4OhXStJJWmQ2qopL+DP2O4iG0q8G1WPgZEPSDc2SPcTO4AZ6ZW8G0vzb/rlcWA1VOpBLLVKyKAcHjw8+rCeAWdHKny7sAVlpqeaqAYKekKqucpnbOFQICXUNLD7kZXGBtDEA4bVkUHzgkgjmmkFMQnpg8huopEDhASDnAln0O/vUpN/KwemJN75FoYaP+C0ByxLQNjmuLgLvYTwoIpigSBeTpQkK66pub2eAkBIa3C6RoAfN5DALpQcVsBl62MKagJ7dy0nSkOVL3RrLUuPGFlbgYlHk7ZuIQdFPC7Fu0+S/95shBivkOxqmUWk4MA6kx0xxtCoAQaxFo7qI5zA1KHZ+VUi8LgsD3N8awnt0L0/tob+CzBw4QSOt9SeD9W+I+ikMo/w4hD4o9pt+pBEFDQpVBmtiCYABB5dFn3A0mIt6UY0z2A0N7NYgohFBpmv4LUlSrsCMwsttC3/MNAAiUtZIG0ib+YCoWBBobZTJQRDwDglbADa9RAKWA2e1NmVVoKoBAkGnHs+epJAZBo7xAywwqu9wYgLC0I4KvrY9geQ9nL5T/BA7HJwIKCBLv20Lh4o0QqKgzBGq1qb6ODpCMCzgEDWQ4ERRPoIMZ6Zc608GY1t0OfeqyzJuKyV6gPgGjuwUSIzol05eAoFcJtY3utdD3rIeG1E/r72KgeUkndb+MqVoQaAQKEPJMwhykqOe8FoBArjey/mTifCsIUnS//9E2geZOiUh0el0M9BX5xGFRvH2ZhW4KnOSNFSigQCABYdQGLnw5hd/sSFdt0mmx1XWT3FQAqq+gjbkmOXECEPACgkvqOkBQN1cSIGtxSi3WelGvJANDux90lLx0LKSTVBjJW0wpDxDcnsimG6Q2TesyzIM7qdejzo7wrQWBxjIKDG6zMLrXexvUHxAoODFlqu8xIGhIy8TPNXgMAn0rqXMjtXd23/srtSBoPhVonSFVVUV3mw4XAwHCDzZEccRsLo5UtUUigAcKJCDQV29XXOJDW5WTvuRNL+Xugm4yCNw2uBUDQv7pzfE9gBChbMMcQDBvQ2ROJn+6Ckwu1QqhQ54pb5vM7LQ4FbQguNWIFbOYyGbqCkmtbPcIjAxavgcEGhdVVtz7DBWDyrxj17VZE1kN0imqtqnhkAHBX4BAlp+kqX9QLUAg64/XijAdgPC2xRY+tDyCeW3sXih5gQjhjoEEBJrHvqTEGSXWQ3Df2icDhPreG/pLSwt7FhDMFVBgIdV4LOI+oYcOmbapbrxFmQ+2TmN0YxBcMzz9zFJVF6meol7BnBFKe4wEAhCogdPAq2RFcGe3fhYEmqJ0SkNa9m1xalkM6r6I6VRHqovgbuxiMFBd5RgE3Zwpaz2YShaDJkRtPWk1vRn0K0l+ZcbaBSlShdUTF0XxkeXUmKm+TzU+m/8UCCwg7E9JnPNIEnsS3nLJheMBKjXr13e6DelnACH37Hpk42K3dT0kB0ilLTgpnd6oUyH15zUgaBhRVgwyQCQEhnZaKq7Bfy4G475Ro9PNsVKjFsb6hMr+IFCoVxYDpY/SGyjVsagmINDcxZp1TQQGhNoGKVJXdMzvAAAgAElEQVSvEgIE9b0wtrapuhhUoGkL0NJJvTXqBQgSR8+xcFiPhZOWRLCoXX/neWMFJlMgsIBAXHDjrjT+70Uqu6wXC/PuFpA7IvfbnXWIeN8+smZ1MgeoZlLkeUibBk7uC42prkjVFlUapKP9roO7dHc39TO38IopsEQPObJk6GIt2f4A6qHjskyGQLKxFbpZlSnh4gZM0uyoOg06ZkIdwlg7okKgGQLxMWB41FShM7ERzc0Cre0S6ZiJBDHuEn09xmLgHtfEJIztI1AQxqJgHvo16OboODITmOi94arhYqDj5QcqsgWhNhYEBQjGU1lNQKCrJSuQdjXkF76qrgWhq0ngTQsETlps4ZAeC80ey1OhhyGlir84BGwbsfHaqMhxcc5ohnJLzG0V6u+mcSEMedcekKdtWIcRWECgCd2blPjAFqqqmJtWFMTJdj3c2oqgcht0ule+K0Jqk7f7VqsWfrf8shuYKKlzncDAK7q6UtUAwaRhUvVGJAWG9mcy9nNqOdD8qKRNS7tYmqQBBHqTM8dQKWNNQHOHgzS1sHattAYMXDahv+kB3NQl0dKtwYMAYWyf/pv6Nria6c9MFjxWuFFSPgCQ5FQUiSwI+RsDglLZF0GKdE+pAMUaAQKJ0NrjoIkyUnJ4vxqAIJT18K1LLBzWa+G4BQKzWgR2jAAP7HbQnyhkb9R3a0oKvDwksW3UwWtjFAOVfX4SIMxttTBXQQKygJAxy3lfxARiQuKUxRHMbM7GdgXx+RvUMQUaEPqSwBkKEBqhqqJZtI2hUr8nu5YN9/bKt/mVGpg4fhlSR1LfSW3C1C4EfT7Vl8E2P6PCSBlAMNUVIZFOWRjtE4j3VwgIrpEiKTA84AkRFECEwCUPEHTMZhZzaKEeX0bWPEeNBUL32/RoZEwPboKGUoWuIyLVm1pzd3ZxUiAQUU0vVZU8qv9QLUCgQE/lWijw1GBA8BMgSAMI+t6otgWBjkktvFu6gAj118hsUwMEguu3LomiyRJoiUo0m6JadNSdoxJb90j0qxb3hQN3ySnrdaM44zJNshY69xhu7RR3CG6H1CYhcdLCCGYoQMiekY7/9sWWAYc8PgrqauvDcQUaEIbSwHeeSeH+fdVLd5x0jk0FIoqZJzMepVtmIaASQNC2AGJ9eututvQxPe/dJd1ylBvuBQRjzFdv6WnywEjTn4GOZukgyP/P3nXAR1H07Wf3SgpJCAlJCL1XRVTws2BHRJDX3lBBQYoiClawYscGiIoFG/aG2HtvqCBKEVBq6AkQCJCQ5Mp+v//sbW7vcpcru3e5S/7zfe/7am53dvaZ2Zlnnn8Z+lv1AQl7ijyyfxATg/Df8MiMLoeEakEGVNODRgTKy1QHSJ31QW23PsMh1eN5GzUjpHkEwT+TouaHYc9QkJ6jCCVh/y5zCAJxUUqKRBkvAxUmCMlEEGKtIKgjhM5nSMkkpUv7AowQBEV8v6e0tsBmkfB7iRu7KKLJU7X/WQyeD9HHL0cQBLFXUL+JaAkCEX6hFuqosvaGNEcOaiUjN1VWw8fJcdMC8bdsOztHhDWxx+GiBk0QXAqwrMyNm5ebn3ZZy4ugEQCxWdcRBLsFOOBDEKLpTc2zgBZbgL6bA26NIGi7bc0rXp8XKpTyoDvGhXwS6Phhqlec2aBSEiqU+W//NgkOShHsQxA8TlsOOqLaO+G7qiVU7RVpGdX13yfFsapO+Hz69UQQYuWkKMiBQ8UzWGGCwATB9yNQ8SCSoDktev2lahhzzYmt2rgKfliTSq61TYD/OAyXIKjjVHXoNZsg6OcALYKDWpxukTCgUE3cRP9OG5sz2sho5lEfoplB+R5jCDRogkDQ7KqitMvCeG1C8aoAGhnwIQgmPCH8KrwEQV2NVYLgTdqk1RSYLOjpBU0opCRotmGRhZH+1Q0cKJOwf7v63rQzJkIgsjISIaKcCfuCs/3GQxAUcaAWhTQKa1YdGyCzCIIl1XOqo6eb2UlRBcLMTIokk6s+CLEzMaitVhdiimxIyVBgsWl6WzQEIbLTHPXP12YMr9oXP4LgM+95VAeaZQa3sqCZR1HokiXh8BwJacJkwipD+GtF9Fc2CoJw8SIj5zLQlCOWw5qsid6AwlA79eg7Jto7vft/X4Lgr3jUTAyeiAFBLjxKZE0GZgmo2COheBkJgh6CsM87odUiAH6NbhQEgRQYymDppCgR7Sjt4L1nGkHwpFvWpkkmCLEgCPExMWgEgd6AQldTs1ywkHeuVmJ43HMwghBLE0MgBaEWQQiw/nfOkNC7mSxMEUJdaEvkIdqZku8LB4EGTxBI5n9rkxNvbNZlqwkDGZUSaEIb3aAShGQteuIg3oqkQ/Fa6jvR3+ijE65L1TL2l0io2KfASdEMm9WsinrWLkwO/iaExkQQFEWYZYgY0P/WZEoUYaBMELyLG/mSaMuQBg1HMfiOEG9uDvoc7WmKONCJyIIa7qtG6ehLcBODOQqCGU6KwXwQoiUIPu8v1AXVHHF2Gwv7LcRoYWrwBIFw21lFWRXDSbvs+VDF10j+8f77sxj1QpyrrbEtepyRbJIEh5scEwHnPhmlG2RU7JBQsd+TxMUTcqifpRo7QRAmBTqAieZj3ewtSFM8CEKqKkmzghC7REmxD3P0SgR6vxgaQnQktNWuwEYJjWz1QBBi6KRoBkFQ8VI3N0NaWtDUJuHstlZks6Jg6mrSiAgCOSoGVwDUHbZHIhZSe3zUAs1tT+/ToFk849EC2inYJBnl+xTsWS/DUQ7s2ebxUNDNWiJSwWchbJwKAg0LoRy4PAmnAqkmTBC8qIhoFFYQvIqKf1plVZnzJwjaELKkumFvqkC2+Q6qWCsImnYaLydFn89Is8OFWOp8cpYoEoa0tiLLprCiYCJFaBQEgdIu37jUgU3esIJaEHol+FguyyodyLACR+bIaJ/uOWeZ5Go1EYBH5FcNHFQoEmNLpYIvil0eB8Q6XOQjHhgSHOUSyjbIIqRx7yY1k2LNvoYJgo8aIEwJFMIooj4Cs4B4KgiUiU8r7IOgImGuk2L8fRAEXdCJULRRsaapBMGaTqmZPe/piYSsnSvEHBND0hEEAZw6b5KicFC2BUc3l5HuwSviqZFvEAg0CoJApyF+u8OFGaurfRa/aI5Vjm7cSMi1STirlVUQhHQLcEi2hFZpoY9apSRmxVUKftnpws5q4P2tTlPUDXeVhPKtFuzbRYcZaVs8X3KkT37SmBUEjRiQ04YgB3XYEOJGEFI8UQyermOC0DAJAr0VhRmKY+GJKFgU2NIBC6VLFr4J/kS1cRAEvYlB1WA0gkD/oKB1uox+zSy4uAP5KdQh6UU3oTeauxoFQaDe1PwQxKInZlM1D18sS4pFwiFZFkEGsq0yTi4Q+5uoy+5qBd+WuFFS7cYHgihEUyQ4KiTs/FfGgWILqmoiQD1hDLoqGztBoOOyKeEREQR9Ms5AGR412Jgg+NEnNjH4fqRqQhG/EtzE4CUI2jKoCN8TOuSJiIK/6cGbgyRwJoRw8yAkYhRDLdR80qLrCYL3SlITKIvjma0tyPLJVhnN3Nn47mlUBOGSRaQgkBFZPdynLp8EI0OBHGZOK7CKNKJdM2R0zzRCC2q3pLRawbzNLnxW7ES5SMYUDlWQoDgkHNgpYfdmGXs2U8ZEfbuYIKibEDU6gXI8iMOrAmRETASCwIc1eb8L8nHQvoCGZmKoTRC09ybTAxEFqEShRko3R0FI9CgG7VutIebqH2pNlkJ5kYFTW1hweUcmCZGua42GIFDa5dnrnPhuh7P2AUaRohbk+jSLhL7ZFvTLkdE/14ImMbR/lTmAn3e6sOmAgvlbQ4dwkmqw6z8LqkollO+p7YSoOkA0YhODZ5URUQl+ioF/dzNB0C3OfvSUjgf3maaTWEGgF6mM6WFN3uUtmJNicILg7QPV9CDB1kQ9Plp/oFmtsevxblRdsgM/36yzGGIZ5hgJQdC2UEMKZZzcwoLuWRJsoa27Jq0KyV1NoyEI5Oz3734Fk5aEE+4YaadKyLFLGNbGil5ZMjo2MVcxqKs1pCa8tcmF97fRqUvevAb6e4gclPxj9foaeH70PWClsRIERQ1VdHvyGYhU1nUXJgiNhCBAzRTqEJkU1bgmkQLYP2V4zaZedTYWVgShUgZQ9gybGIKPTZUoALYmbs/hT36pzUW4spaGOQRBSPAwx0gJgkoSFBzaTEbHDAnD2pGaEOpLj3QdaHjXNxqCQF1Hfgji+GcTfQ9ybBLObW0Tg21AvjEfg2iHV2k18P0OF4qr3MKJUXw85GPhAir3SNi1VhbJjvxLYyYIWqiimDgoAUSQqIRAfcIEofEQhMp9sue458QnCFqvCKJgVSDMUFqyJc+P4RKE5I1i8P1i/U+ZhKSaYAYXWjFSmByYJNS17jQ6gjBiURWcnuyB0S7I2n3NrDJGtbdiQAtKRVz/hdSEb0pc2HzAjY/Xu7F7jUWcpbCvxNcJSmtp4yMIqkogohI8/yv2U4H8xuroznonCDKQlw2kpAI7K9SGchSDioPZPgiVe2W4hOiYPARBG7oWu0oSaHKyU8IlixK2gtDQCQIl56BMjCM7WpGlT2td/9N4QrWgUREESoMwf7MDczcZO/65iUXCSXkWdMu04JSCxDJmUVjk4m1ujHjTib2bLcLRTrNJNl4FwUMKKCJBOB56pV+CJ9kIAmXWG9RLRlYa8P5KdUfEBMF8gtC3hYTNxRLWlKjoJrqJIdDKokXV0GmREoVIZqgOjaF8EBo8QfCAdVpLGy5uJyMvpbY5JqFW6npqTKMiCITxDpF2uarmSONIcW9mlzGirRV9m6mDKtHKllLgwY8VzFvsrjnPvbESBDGtk1IgAld8iYHWb8lIEChH/9j+FgzoIuHp39z4cQOlBVeLSnY81m9fb0GPbdx7PLhe9tLs5T7TpIi/945w31hzr3Kht7Q3HCdFYOLhFvy50Y3PV3kiWxLcB6EugqD9pkY+UIikIg6EqjkaWtfPwkmxAfogqB+If2i7JMLPj25uwRG5MlISa79X78tLoyQI5IegxQtH0gPZNhmjO1gwID+G4QmRNMjv2s2lCh78RMF7f6qJVbzFd6LX/t5QTQzCxUSoBZ6zqOqIAk1KgpAKjD3Ggmv7S3hpkYLpv3hjMZkgCA/BWu6B6ueg89v3OzPDl2BJOLW9jMsOsuD7IjdeWehGyd7kMzGohDHw2SDWVPJTUOmgPVPN0Kih0xCjGGrmwloEQf2lU4aM4/Mt+F8rGemWxNv4GVgWDN3a6AjCHoeCO1c4sGpfgAD3IFDSZ0TkgPwNTilQxbdEK1t2A9M+cmHeYrV1jZIgkK8hORsSMSAzQjBvcz11SkITg4UIQn8LJvWX8E8x8NRvbny/Xh//zgqCPyeMhCCQffrOo60Y3FHChjIFD37nxk/rVZUmkaMYwlEQal8jCTWBoh/sIkxSPXIl0RWEujMp6lQv/9wIQQgC+RU1s0sYWCDhwrYWZFDyBC6NI9Wyvp8dbmBBqRP3rQqdO0C7r6lNxpj2NgxIMH8DrX2bhVnBjXmL1WmxsRAE4TimKCLbIRXhb0FOGF6JJCSVS0YF4YiOEiacIOPIturx3C/+qWD6TyoIrCAYVxBObmPFyN4yOmerrom3f+HG+ysaKkHwpimmI6YlWhc9ZMFiUZ2bKdWzfzI2dQPi/bt/tACd6ZJIeRBCKQia43GaBRhaaBFhkE3YebHxEQQaKDuq3Lh0YVXI/IMWSUKbVDWMMdGcEbUBT8rBAx8peG+x17bW0AmCyJYtIhEoKoHyGGix3X4nTDZEBUECRh4p44YBMmyUjx/Ago3A7AVu/LWN/E7YB8GIiYHWx1uPtGJwJxmq0qzgtkZCELyLKEBkQZaBlEwFsNW20TVUgkAYkBP6pe1lDC60gJLfNebS6EwMKkGgfAh1J0yi8NhumRLOa2XHkbmJKTcROXjwIzfm/ek9UrdBKwg604EWrqifulRi1LAVhC75Eq46XsbpvbwTV3k18PxCN55dyATBaJhju0zgur5WHNXK+83f9ZUb7/3jFuHRDc/E4H/Qke9yKFQFYXZQkJKphkqqSlX9KgixMDFob049X5AKjOtsQ79mcqPOutgoCUK5U8FLRU58SNkHAxS7LOHQbBlntbTg0GzPNi3BaKTwOfhQwXyPcqDP89OgFAQiBW4yJXh8CzxCSSC/w8ZAEM47TMb1AyTkpvvubF5c5MajPzNBMEoQRvS04IIeMpqnefH9tQh4/BcXlharZoZEzaQYaIoKdXiYtqEIdI6BVp/ICUm5FOjMB0+mRivtoHSmh4ZiYqB3JoJAhIiy4t7W04bcRnwaZKMkCLTGFJW7Me6vqlrfVIos4fBsK85vI6NHZuIqB9M+VJUD2TOPNTSCQDOxsBwIguCJRgih9jUGgjDmGBk3nlJ7XK4ogQh5/G69m8Mco4xioPGjOif64utyK7jjSzc+WOUWY7LREQSJiJE4W1rwCGuaGxYK5CJVIYPCJWsflJSsPgh6gkCvfGqBBWM6WpHZSP0RGiVBoEFQUqVguF/aZZskoWcmRSvY0S0rwSQDT3P2lAMv/wQ8+KnLs5tRf0h+gqASAiIDHtOvekZCBCbAhkwQaGY+pr2Ma06QcXi7wGOTVAQKedTEX79TkzgPQogwx/9rIWNcHwt6NfcfdAoWFAGzfnVjyXZ3oyYIqn1BzbFCLrJ2yqtAZgdZgl1ngog1QYi1iYHarw0XOpl3dEcrMhIzuj2mC1WjJQh0LsNVf1ejjMIayHFXktAuTcLYjjb0yU5M5YDa+e82YOQzbmzYpcp+Sa8giNBENSRR5C2IkBTov46GTBC6t5Ax/jgZp/UMzpiYIBhLtTzpcCvO6iIjNcBCQGPz+7UKZv/mwqodQYgr+SjU42FNMTMx6BQEPUEQ5z6Jon6/FC4pyQpkO2BtQv8s1Th66q704a0iE4P/kA4zklzvbySqCHLcsw8udYQ5atdpJgZvuyScViB7SEIEO5aYLt3xqbzREoRKF/BZsRNPr3OIcZBrlzGhky1hHRJpOGzdDdz/gRvz//Skfk1SgqAmMKL/8kwvGkEw+O01RIJAc14unT53hIzh/WQ0Sws+MfxTrODZ31Uzg4DWB0/tlEHOpKiuJb4JhAgvMi8M8TMv6NGudgE/rlMxXrkjQAKiRksQ9CipTo10YBTtXlLS6cAo70mxaryRtyQHQVA50NCWFlzewYaMxHRLiwljaLQEgdAsEeGO1WhqkzCugxUn5SduzxM5uO8DN973kAPB25OIIAh3AjIfeHiB+GfNluBh/+LYCAOlwREECWiZLeH0g2Wc20dCp9y6ARI5ERa5MfMX1fzEBEG3EKlbzJo/1HbeU3DHUTYM6VS3ekgk4fciUhLcWF7sRxKYIHgBl9U8CNZUwGKjf1JgbyJBtlNWV6+LcdIQBADkhvBc3xQUpjaecxsaOUFQMP4vB8Z1tOLk/MQ1K5TsBWZ9ruCFn8gBzVsSmiB4Fn9hMvAcGCX+Wb97YILgQaN2Ihr64egOFpzfV0Kf1kCb7PDYk0ia9LMnOocVBB0hqJsgHN9awhW9reiaExpnEr9+26jg8V/dWEYkQStMEPwIgu/3bksF6KAxIgu2dIDOFKFcC7VKwpkYvC2kZHlXdbQho5E4LTZqgkCnO/6yy40BCUwOaGiu2AKcPdONfZW+wX2JSBDESdoePwIRNa4RBH1+As/3xgpCzcrik6mOstkd01HGhOMsOKyt188kHHHlxUUKZvziZAXBD6xQqZZv6mfF/7pEFvO+YKOC95Yo+G2Tgj10vIvibqQ+CAFGplAQgpcasiCpCoONjqPWiEECEwRq2qkFMsZ2sKEJhXo28NKoCUIy9K0wLbzvxnt/KfA6Baktr2+CUGMvEHMjyYiyeo4ghSWKDZsIjgpamCD4EgTyDO/UXMJJ3SWc0l3CYa0jn4BWlihYuk0BLV7frNemaE+mSU/ouohy8JuEG+tpjse3tqBPvoRjWslo1zTyGWH1Dgh/hNf/VrC8WA3BEdksRVKlAEtkwLPFVf8Qrfifr0Spjv0JTrgtNSUPQkgnxcgJQs27SpI4XZJMEeIdJSC1KR1NrT+NNvDbxs9J0f/5Cqb2sKNfjqXBJ1FighDul1YP123fQ5kSFbz1B+1MkCAEQS+pekCpUci9s5yYHJkg1Bo12rqs5X73UD1IVgX9O8i4pJ+MQ1pLyGtibMAJorAd2LIX+GmDG2tK1UVGW3waL0FQx+/gjhYclCeJ/3TKlgxN9FTjgiIFy7Yo+Gy1grV7FCYIIRQEPUHwN5vSoVHiTAgQWXCLUyf9SzzDHAN9ib0yZUztZRP+aw25MEFI4N5dvhkY8rALFIlZnwRBUwMUfbIF4Z8V/ONgghBk1+NxldMIAtlgj+ko4dSeQLcWEg5rZe6Es6sC4sTH7fsU/LrRjW/X0+KlnejlbWNjUBB65Eg4qpWEvHQZh7eQ0T4KxaCu6aK8Cli0RcGijQq+XefGJnFEtJ+KwAqCD4RqPgW/ojNHaidNas6MqU1V8qAesqZ3doxlmGPgXh+Ub8GYTpQfwdxvNpGWJCYIidQburZs3QPcO5+iFlR3/3gSBI8grWYx1Mcl1ZrrmCDU3tkECH/TXaQpCHlZEo7vIuGQVhK6t5BwaOvYD0RSFcipzuWW8MtGN34s8hwR7c296Ev6aqRttW1qIIBvn/u7V8r+qhFlNfTc4rVq6GLfa50U6Cu365UWcm4T51f6LSqeLNyijf6pllMsEk5tL6FnnozWmUD3XAlNU2I7oe/cB5FQaUMp8Mm/CtaUeqJKNPxqr4iN2sQQmCDoJhvqbzEPSeJIam0IWtLcwtmRciML82vM8iAE/jZprL3cz4781NiOp9jPDMGfwAShPtEP8uwqB/DNcmDUC86aDyMeBIFyE2heA8JOXRMr5/0o9U32z7+u/40VBN/OVTc7Co7uIGPwQTKy0oFeLSW0z4n/AKS0EytKFPEft6LglyLghw0e+7l+P5eEBIHGbZtMCce1ldE2S4JVltCnAOKf41sUHKiWsGgLsG2fG4uK3PhtM7CbnBlrOew2bh+EsAiCf+dRmgVKyCRyLKjk1ZoGQRh8/Dn8SUNUiZICjxya/07JkzGuAasITBDiO2uE9bSincANryj4Za3Ls3WLjYKgJwDehgWaSJkg+JCfADsV7Xe9U5iG5BHtJAzupS5WXQukoKmSwxocpl5EBIHIAkDqApVt+4AfN7ixutTjZKp3nkswBaFmjykBA9tbcGgLcpMFctKAXnky8mh3mSBldYmC/3YBuyoU/LLBjSXFCsodnsZ5si/WjCE/EaqhOylGRRAC9KtKGHQEQVaQ1lSBbNHFUppMEIj0X9XBhkGFFqQkbqR81F8BE4SooYvNjaX7gae/duPxb9zejUbUJgZtChV6gK811JOwSP1FZeDBFQEmCGERBI+8brMAR7UnvwJZ7GY65QGHt5UCx3zHZhhFXWtphaoubN+vxqs73Ap+2KDg182qtlTr1D6fAE0KVfOLXDHJxKCaN9TogMIMCSe0k9FelxvikHwJHZslfgKbaiewqkTBht0K9lcDq0uAnzYpKK7wfmONLYrBLIJQa9DLUMMnZUrjrgjzkzXdJU6l9Hd80JuyaqdaDq4g0C+t0iTM6N0wHRaZIEQ9lcbmxtXbgPNnubBtvy6sMRKC4OEE6mRObVSX/8CpeHx1AyYI4fVpzWTikYrpHI+DC4EB3SWRFpniubsUAIdSmGK8le3wXiHsq+gkw39KgP92qQNLe52yKjJLKFharPkYkPOjJpXr7cfh+SDoTVuaQJOXBhzb1oIuuVpOf5XOZqeSQiChoElyg+t0A9v2ACt3KiA81xYDO/YpWLpTQfEB1d+CKA8rCNETP18fFtUkQSqDeqKZmrdCtkhQnR9VE2ukBIF2cqcXWDGqgxXpiZuMN+xvXn8hE4SoYIvNTRTW+MAHbry9kCZVX4LgZxpWG+BZf/yjrbV/1w5yokv1AQiBWs8KQug+1Zzt2jWT0b8j0L65goxUIgQSWjcDereSkJEaup6GcEWFQ1UaNpZpR2qoi5la9CNS1cvdinoYF02+ZIYhMqpFx6i3eD0ZtVoy7UCP5hIKM1XS1dALff97DwAb9irY6wA27lRADo/byxX8V+YWf9OOXA4Xi2TIgxAzBYEoll/lNI48I8+jqUriUCm756ApbRSrURJACpkorCp9FX/TO/TWmBoV0EnA5LCYY29YA5UJQrhfWhyuW7FFwaAHXah2UdID8sz19eT1YXYh2qNPosQEIThY2kRQ81kL04u6gBVmAgcXymieCbTMkdBM5CaQ0LwJ0K0AyM9SkNrA46CND3tVwSJfBw+n9YSnNayJ1DhOtWvYsU8lDGWVwLZyBRUuBetLFJSWS3C5JBTtd2PDPjeqaL7wGBHVf/Ji25gJAn3DftndBdHUCEJdfUYbKrpfnFBpCSwEiohVmc6YUH0fBrawiLT9DUlFYIIQiy87yjp3lwOf/q2PK6RsYhRNIIFsl7TDWLZJwdIiBaUkQXoYrFjkaGHz/K+2IWMFoW5pMt0OcQBSh1xyIFTQJFVCqxwJTdPU3QP9L52BkJkG5GQAGSRNcmEE6gkBmhlKyhTsr1QJ144DCnZUKmJDsbVUAZ3Z4vT4NdNptct2KSitVqNTtKLukH01R9W/IzhhU2KcSbG+FAR9N6pzp1fV8npvqX/rmCHhxPYWsTmguUKDiwiYNUVSz5iQgBPz5QblrMgEoZ4+9nAe6/UekMSHTwRi4y5g006golrbknk/L3G9onqmH3Co9s3SfQpcijpx7K2UsH6Hgg2lgWP1taQlanoXNaGOJFKaJYaTond35Gmfd09aI2tnpEjo2FxC22b0IQPCgZk+fAlC/m+dA2R50rrarUB+BpAvJGxVDSAikM5EIJzhydckBAKK2ECUlgN7KwCXJ805+Tds3Keg3El5LykuBQ0AACAASURBVCDIw/YyiI2G+J49rIF+2+tQsKlCJRxOHXegf6T8AmTuFCK7x+dGU9j8U7/7wBFlJkX1k/bzmAqUTElnyNITDLWl9L1T7gQFblk1C2RZJLRKl5CXApDoR/NCYTaQ3xSwWz1o1OEylJcqCb+XTDqdshGJX0wQEuIjN7cR5LFb7ZQEodhfSfZfCJJQWQ2U7AMoUsJrOdZtMMgu7Favr3a5xYSzu1wSMqferlyzB/HV5T2OP5pDpPaRB/uaPKl/hSAa+MvUbNTqvCS8JMT/kzLSJEVB8wwFzTLIS1lWIwQUIMUmiUU/V3gvew6A8YgyKTYgNwNI87B9c1Hn2hiBxESAvmf6lvdUeBSGmlSa6rd+wKlgVxVEVIWLFlU3UOWUUFqhYMcemgu88qQ+RkUzbGgziMel0usc5Tm3LTAqXiaiftm6eUKiCC7VRRM1YYme75+OjbZKyE6X0DTdBdoQWCwSLGqmpJpoLa0+TVVNs0hoZpeQaVPEAk+7/WbpQNN0wGpRr9bIRWL2Yv20iglC/eCesE8ltwf61EhxOFCtEgxSI3wIgmdHrhcua2IlNZlO/Kg3l/i/ss4rvg5509fhTZ1EiCCkWIHMVDILqLbCxuDElrCDhhvWoBAg0kDfP6WOLiNSQQexiW8+0Pdc1zeuJVsLDY9q5tCu8zyv5m/6ZyhiQSfzYLqdVD81jJEUQC9RSfrgodCAxekKJghxApofwwgwAowAI8AIJBMCTBCSqbe4rYwAI8AIMAKMQJwQYIIQJ6D5MYwAI8AIMAKMQDIhwAQhmXqL28oIMAKMACPACMQJASYIcQKaH8MIMAKMACPACCQTAkwQkqm3uK2MACPACDACjECcEGCCECeg+TGMACPACDACjEAyIcAEIZl6i9vKCDACjAAjwAjECQEmCHECmh/DCDACjAAjwAgkEwJMEJKpt7itjAAjwAgwAoxAnBBgghAnoPkxjAAjwAgwAoxAMiHABCGZeovbyggwAowAI8AIxAkBJghxApofwwgwAowAI8AIJBMCTBCSqbe4rYwAI8AIMAKMQJwQYIIQJ6D5MYwAI8AIMAKMQDIhwAQhmXqL28oIMAKMACPACMQJASYIcQKaH8MIMAKMACPACCQTAkwQkqm3uK2MACPACDACjECcEGCCECeg+TGMACPACDACjEAyIcAEIZl6i9vKCDACjAAjwAjECQEmCHECmh/DCDACjAAjwAgkEwJMEJKpt7itjAAjwAgwAoxAnBBgghAnoPkxjAAjwAgwAoxAMiHABCGZeovbyggwAowAI8AIxAkBJghxApofwwgwAowAI8AIJBMCTBCSqbe4rYwAI8AIMAKMQJwQYIIQJ6D5MYwAI8AIMAKMQDIhwAQhmXqL28oIMAKMACPACMQJASYIcQKaH8MIMAKMACPACCQTAkwQkqm3uK2MACPACDACjECcEGCCECeg+TGMACPACDACjEAyIcAEIZl6i9vKCDACjAAjwAjECQEmCHECmh/DCDACjAAjwAgkEwJMEJKpt7itjAAjwAgwAoxAnBBgghAnoPkxjAAjwAgwAoxAMiHABCGZeovbyggwAowAI8AIxAkBJghxApofwwgwAowAI8AIJBMCTBCSqbe4rYwAI8AIMAKMQJwQYIIQJ6D5MYwAI8AIMAKMQDIhwAQhmXrLxLbu21+On39biO9/WoDyigNwuRXIEpBit6Fd29YYMvAkdO7YHgoUSJBMfHKiVKUAkLBx81Z88c0PWPnfWpRXlENxAykpKWhZmI+Tjjsa/3d4n0RpcBK0gzClImHtho34+ruf8e/qtaiqroZbob8qSE1NQY+unTHghP7o0K4NAO89SfCC9d5EDa1PPv8aCxb+hbK9+wS+FllGWloqOrZvi7OHDkKrwhYebBvit1vv3dBoGsAEoRF09a7de/DRZ1/hx1//qJmPqx0ObN66DRs3bYHD4YRbTOuAxSKjaVYmOrVvh2bZTbX5Xkzq140fLX5PzqJg+Yr/8Orb81GyY6fnbYG9+/ZjXdEmlJbuRrXTIfCxWCzIyGiCdq1boWWLfBUYSDj6//pixIVnw2azJicEMWr1B59+hU++/BZOpxOKZwXbU7YXGzZuRunuPXC5XIIGqOPLgtycZmjftjWyszJrxpfdZsMF5wzFif2PilErk7VaBU8+9wr+WvIP3G63SqckYO26Ddi6rRiVVdVwud2C3FutVmQ3zULXTh2RmdHE88IK8ps3x+jLLkKnDu2SFQRudz0h0CAJAk1O191yjyFI8/Jy8eDUyYbq8L9589btuOO+Rw3V2b5dG9xx0zUh66g4cAA/LViEt+Z9iAOVlVizvgibtmzzbthC1qC7QAJym2Wj32GHwGa14tDePXHVFcMjqaHert26vRgff/Y1fvvzb+zYWYoVq/4Tioln1Q+vXZ5NGO3KDu7RFTa7HSf2PxLDzjujzvu//fFXvPrW/PCeEeSqgScfhwvPHmqojljc/N5Hn+HjL74VVa9euwFrNxTBTTKBtsWN5KESxA6YSGjb1i1F1ww79wyhMiRSmTP3DSz4Y3HUTbryikvR79DeIe8nCJ+c8zL+WrIciqJg8dLlKC7ZWUO+Qlbg8+kqSE9PQ++DegrCf8PVo9Gze5dIqjDt2rsfmoUNRZsM1Xf3rdejdUtSR8wr02Y8hTXrN8Dtom1SdGX6/bcLctbQSoMkCNtLdqBP/8GG+qp921b47ev3DdXhf/PK/9bgxNMvMlRnn4N74vN5c4PWQSRg9vOvYvOWrYIQrPpvraHn+d8syxLy83Jx7FFHiEXy7P+dZmr9ZlX235p1eGPeR1i+4l+sXV+ErcUl0S1e/g2SAFmS0KZ1SxzcoxtOOu4oD1GoLeW+9Pq7mDz1QUOvNO7yYZg6ZZKhOsy6ef2GTZj/yRdY9s8q/Ld2PdZt2KjygWhIQR2NkiQIstCubSucf9YQnHLisbBa6l+1mXDjnXjng0+jhnPOrAcwdNCAOu+f9cxLWLxkOf5a+o9QujRFJuqH6m+UIAhK89xs3DhhXNyJwqBzRuDvZSsMvcp3H78hxoaZ5axLxmLh4iVwOl1RV/v3z5+iRX5e1Pcn6o1MEIL0TLIRhP37y/HNj7/glTfn469lK1BeUWH6xK2Hym63om2rljhr6CBcf/XohBrfvy36Cw9Mn41Vq9eirGxfzNpGZIl2vGMuuwjDLzxHSLz60lAIwp49ZZj/8Rf46PNvsHrdBqHExKVICrp36YR2bVrj0gvOqndFIZYE4fFn52LxkmWCHBSX7IoxvAqOOLwPxl8xHP2P6ocm6Wkxfp5afcIShIvHYOFfS5kgBBgFTBAaAEFYu64IdzwwHRs3b8HqtUVx+di1h+TlNsPll5yP68ZfEdfnBnrYor+W4JmXXsfGzduwZNnKuLWHJM/eB3UXCxhJ41ppCARh/sdf4u35H2PNuvXYtGV73DD1f1DPbp3RoX07XHz+mTjp2CPrpR2xIAhffPMjvvz2R3zzwy/YXkK+MXEqEgT5Ou6ofhg94iKhiMW6MEGINcLm188EIYkJAjmFLV3+L+5+aCZ+W/S3+aMjzBqbN8/B5cPOx/VXjwrzDvMv+33RX7hz2gwsXb5KtYXHuZCaQJPsVaOGY/hFZwuHvGQmCCv+XY33P/kSn375Hdasiy/pDNZ1kiwJefmW68djwPHHxLmHAbMJwhPPzsW7H36KDRu3oLKyKu7vQw9smpWBK0deiksuOAvNc5vFtA1MEGIKb0wqZ4KQpASBHB4ff/YlsSCSvbK+S/PcHFx+MZGEkZE5AJrQ8D/+/Bt33D8dfy9fGVOzSjhNJZJw9ejhGHHROclJEBQIP4MXXn1bEIPdZWX1jmkgNeGGCWOEb0I8I0rMJAhEDua8/KZwPqzvQgrYs49Nw2GH9IppU5ggxBTemFTOBCEJCcLTM+7Drfc8JFSD8nLyyE+M0qtHV9xz63U4+ojD49ag34kc3DcdS/6pf3KgvXTb1oW4esxlUNxu3JxkTorvf/wFHnl8joh6SeTStXMHXHzeGThj8EC0KIiPc5gZBOH0QQPwxJyX8NxcIgex9jUIvwf7HXYwHrr7FtMdAPUtSFiCwE6KQQcKE4RkIghauOGhvfH1Dz/D6Yw+LCf8qSP8K9PTU3H26YPwyL23hn+TgSv/WPQ3br9/OpaQcpBIRQLatipERpMmWPHvGkMti2cUAykHRA4o6sPsyARDIAS5uVVhgchLcf7ZQ+NCEswgCBs2bfaQA28ujlhgE3mdCi6/+DxMGHsZWrYoiPz2MO5gghAGSAl2CROEZCIIAMjWTbkIqqodCTaU1Oa0a9MKk64ahQvPiW3s/h9/LsHt9z2CJctXJSQOZjUqXgTh/U++wMOznsXa9RvNanpc6mlVmI8p140XSkKszQ1GCcIhB3UHhWCrZoXEy3CYm5ONubMfRd/DQudqiKZzE5YgcBQDKwiRDuhEDXOM9D3ifT1N0kMGnoCnZzwQs0dTelkK57z30ceTYqdrBIh4EIQPiBw8/izWrEsucqDhSuaG22+8BqecGNvESkYJgpFxEK97H7v/dgwdcgrS08wPfUxYgsAmBiYIkX5gTBAiRUy7XsGAE47Bq88+Fm0FIe/7ecFC3HjH/VhftDnktcl+QawJwoeffoWHH39G5DeAkni72nD7r0fXTrjtxgk4OYbRDY2BIHTr0gFPPHwPDu7ZLVzow76OCULYUCXMhWxiSDITQ8KMnDoaktc8ByMvOQ+TrjI/N8Ifi5fg9nsfxZLllJEteRe0cPsxlgSBMvVNf/I5zH1jnrkZ+zwvRxkRAxXKDqj9ZmamQHKSvf3GCTihf2zyJDQGgkD9Mu+Vp2PiaMwEIdyvPnGuY4LABMH00UiTDKkIrzwz0/S6KZvfmGsnx2RBM72xJlQYK4JAmSLeeOd94XewrXiHCS0lvqbg5OOOxhmDT0VOMzroKxiBU49ucjiq8ca7H+Cr734WZ4YaLZIk4aG7JuPSC882WlXA+xsDQaBueI8JQsTjh1MtRwxZ/d3QkM9iCBdV8gXo3as7xo28BGmpKT63VTuc+PPvZZg95+WYOauffPzReG2OuWYGUg9uu+dhLP3n33BhiOq6Xj26YNg5Z4izAPTF6XKB0ji/9d7H2LNnr/iJDtOJZYkVQaAkSA8/9ow4ZMmoEkOE8Lwzh2DoaSejTctCcYwzHZkdqtDphKvXqhkaX3v7fXz+zfceTEPdGfz3Hl074vYbr8VJxx8dfSVB7ownQbjwnNNxQv+jkNEk3ac1hBllX/z8mx+wq7TM/IMwAIwZcSGuuuJStCjINxXDhFUQ2EkxaD+zghAEmmT0QaAjXind77lnDBbRDuSV3LN7V1gtllqTTMnOUvyz8l+4FQUrVv6HaTOfMnVXHguC8PEX3+CKCeaesKkB0//IvuJIXMIqp1k2OndsrzsyV72KsCop2SlOfquqcmDHrl3ifIJvvv/F1IlUX1ksCAItMjNmPy/UAyOFiEF2dlOcd+ZgjLz4fHGEc7SFiAIdD/3K2+/jy29+jLYasWBOvOoKcT5GjnZcuYHa9LfGiiAQjgq1e9wo9PNEEND4a1lYICKW9IUIKR3CtmnzVnHU82NPv4g//14Kl4GTCP3hofTpLz31KA7vc7BJyKnVMEEwFc64VMYEoQEQhKzMJhh40nE4/6zTxVGoHdu3DXvw0ISze08Z3pr/MR567GkcOGBOylciCK/OmQnJBOmYXmbZilW495En8MPPv4f9bqEupIn5mCP7YsyIYWjVsgA9u3UBydThlgOVVSjatBnr1m/El9/9KJQFswWFWBAESob08CxSD6I/epdQGnhSfzHmDj3kYLRsYXy3SWNx9Zp1eGDGU2KHHC2Wbdu0xF1TJuG0ASeE25VhXRcLgkDDbeKVo9D30INxcK/uyG+eG1ZbtIuWrfgXJTt3if4UJyWaIWhJCt575RnT/RCYIETUtQlxMROEJCcInTu2wwN33ITWrVqiQ7vod3AUOkgkYdr02ag4UGl4cB57dD88N+tBNM3KNFwXVfDZ199j3KRbUVVVbUp9VMmxRx+BuyZPQo9unSIiBv4NcLlcoNTXz738pkhRTDv0aBc3/7rNJgiVVVWY8eTzmPX0i4bWkuOPOUIk1TnisENgt9tN6xOqiNSE+x59UpCEqBopAbfdcDVGXnK+qeF6ZhIEIgannnw8hgw8UZgSyLHXSCGn3ZvveEAkDTPuz6HgvVeZIETSH+yDEAla9XxtY/FBIHIw84E70PdQcxKb7CnbizfnfYip04z7DlBSmAfuvBmHHXKQKaPhk8+/wahrzDEv0OR87FH9MHXKJKEamFW2bi8W52J89tX3mPfhZ6aQBLMJArWLlKKiTVujfm2b1YJrxl2Oq8eMQFpqatT11HXjf2vW4f7pTwp7ezRkq2P7Nrhz8kScetJxprXPTIIw8aqROGfoIHHAV2oY/hrhvMSnX3yLB2bMxmoTDtd671XzIxlYQQinFxPrGlYQklBBsFhksbBNm3qz6XbC0t178Mqb7wmZ10jp2b2L2J2TkmC00K7o7gcfwy+//2m0KnE/kYO7b7kOPbp1NqU+fSVOp0uYHZ558XW8/OZ7hus3myDMfOp5TJvxtKF2XXTOUEwafwXaxviI4DsfmI45c9+M+nTOh++eYmpEgxkEQSJfgytHYuSlFyAvQnNCqE4rr6jAyPE34odf/4hOedE9gAlCKLR9f2cFITK86vXqhq4gkHLwxMN3o8/BPWOC808L/sB5I8YbqlsQhCmTxGJstHz+9fcYM3EKqqudRqtC/6P64q5brkMvE5UD/0aRLX3pPysx/cnnxQ7YSDGTIHzw6ZfCVm0kY+IZQ07B9VePRtdOHYy8Vlj3rlm3QfidfP71D2Fd738Rjb2bJ44zTWEzShAkiRwRY0MOtHd/5sXX8PSLr2HbdmOhq42KIHAmxaDfFysIyaQgSECnDu3w2IN3oW8Mj2b9+bdFOHf4lVFNytpNRBCmTp6E40xQED754luMmnCzofbQzb17dsNNE8eJSI9YF/KVeP6Vt3D3Q7MMPcpMgjDzqRfwoIFoFTLN3DBhLEget8iyofcK92Yydz338hsgZSbSQuG90+6ajAvOOj3SWwNeb5QgjB5xEcaNvBh0yFSsSsmOXRg7aQoW/PGXoUcwQYgMPlYQIsOrXq9uyApCn9498fm7c2OK7+Yt2zB99vN4/Z0Pon6OmSYGMwgCLW5DBw3AjAduR5N039jyqF8yxI0vvf4uJifQcc8zZz+PaTOjNy/0ObgHbrxmbEzTGftDSodH3ffIE/j0q++i6qZH7p2CS84/y3CuB3q4UYLw1PR7ccbgUyDHmFwNu+IafPvTAkNmBiYIkQ03JgiR4VWvVzdognBwT3w+L7YEweF04uvvf8blV90YdT+apSBs2VaMZ154Dc/OfSPqttCN3bt0FKdMnjFkoKF6Irk5kQjCTwsWCvMCnYIZbbly1CUCw6zMjGiriOq+2+59BM+9/FZU91477jKMuWwYcnOaRXW//iajBGHOrAcESY11EQThxwWGHsMEITL4mCBEhle9Xs0EwTj8dCDSuSOuiroiswjC9z8vwLWT70Jxya6o20I3nn7qiZh+3+3IMinsMpzGJBJBePqF10QyrMrK6PJckAJz88QrhYNdvAsRBDLXRBPN0LplAe6+5XoMHnii4WYnC0G46Ipr8B0ThLD7+yz2QQiKFfsgBIEmUTMpkmNirBUEguTn3xbi3OH1TxA++ZL8D24yfNLguWecJhw741kSiSBQxr1pM2ZHtchqmE2eVD8EgXJLPDFnLrZuK4mq+x655xZccgGZGYwVJgjG8EvYMEcmCEwQIh3aTBCMOSqa5YNABOGKCTdBMXAUcUF+LshB7OrRIyIdBoauTyyC8IIauhplpr0undoLDCm5VLzLilWr8fQLr2Lh4qVRPZoJQuSwsYkhMszYxBAZXvV6NZsYjMNvNJLBLBODGQrCKSf2x0N3T0GhyYfPhEI5oQjCUx6CEKrRQX6ndN6FLfLj5uCpbwZFhJAvCiXyiqYwQYgctUZFEPiwJlYQIv1EWEFIEAXBhBDHc/43CE8+ck+kQ8Dw9YlCEIo2bcH0J58TZ0U0xvLwPbfgUjYxRNT1TBAiggusIESGV71ezQqCcfjNUBDMSJRkRohjYycIdI4FRTCsWLXG+MBIwhrGXHYhrhx1qWEFiX0QjHV+wvogsILACkKkQ5sVBOMKghmJkpggDBNnRhgpZL9XIxjMO+jKSHvife/hhx6EW6+/2vDphEwQjPVcwhIEdlJkghDp0GaCwAQh0jHjf32imBgee+oFNYLBpKO3jeIS7/ubpKfiwalTcO6Zgw09mgmCIfiQsASBFQQmCJEObSYIxgmCGYc1sYJgXEEggmD08K1Iv59Eup5yODxyz624+PwzDTWLCYIh+JggGIOvXu7mPAhBYGeCYAJBMOGwJiYIJhAEE3Ig1MvsZNZDJeBRJggRodmonBTZxMAKQkRfBwAmCMYJAvsgJMZZDI89bSwHQqTfTiJe/+i9rCBE0i9MECJBCxzFEBlc9Xs1RzEYx9+UKIbJk3CswdMcWUEwriC88vZ8PDjzaezcWWp8YCRpDUwQIus4JgiR4cVhjpHhVa9XM0EwDr8ZBMEUBUFkUrzZUIrgQ3v3wq3Xj0f/o/oZByaCGhLFSZH68pHHn8VvC40dARzBqyfcpUwQIusSJgiR4cUEITK86vVqJgjG4U8kgjBqws1RpwgmJNLTUjHsvDNw7203GAcmghoShSDs21+OGbOfx+znXomg9X6XSp5/jzJVc/QPNn4nOylGjmGjIggcxRB0gLCTYhBo2AchcXwQxFkMBkL0aIE453+N+7CmmSLU8anIVwrtDknBsHPPwHlnDIm+jvq6UwI6tW+L/LzmhlrAUQyG4EvcKAZ2UmSCEOnQZoJgnCCYEeb4x59/45a7H8Lylasj7UKf6089+ThxHkOBwUUikkYkioJAbTZ+mqMC9TTHUZFA0KCuZYJgrDsTNg8CEwQmCJEObSYIxgmCGT4I+8srxBkCt97zcKRd6HN9s+wsXDbsPNw8cZyheiK5ObEIgvFIhsmTxjFB+ODTSIaAz7VzZj2AoYMGRH1/uDdedMU1+O7HBeFeHvA6NjFEBh/7IESGV71ezT4IxuE3wwfBDAWB3sSMSAaq53+nDcDMB+5AenqacYDCqCGxCMKLajZFAz4Ebdu0xE3XjMW5ZxjLSBgGdAl5CSsIxrqFFQRj+NXH3eyDEAR1VhCMKwhmHNYkCIKIZLgJiqJ5ykX3qeQ0a4qRl16AG64eHV0FEdxVWVmF5155C/c+/HgEd9W+dNzlxsMcqdaNW7Zi+hNz8Oa86E90lCQFkydeiWsbqZmBCYKhoZy4PgjspBi0Y5kgMEEIiIAZCoIZJgaNIIyacBNgkCBQXc1zm2HUpRdg0lWxtaV//MW3uGvaTGzass3QrGoWQVAUBeSoSPkQoi8Kjj/mSNwwYQz6HdY7+mqS9E4mCMY6jhUEY/jVx91MEJggJDxBKN29ByTXP/TYM6Z8I4Ut8kAL79jLLzGlPn0lDocTn3z5HR6cORvrN242FJ5J9ZpFEKiumU89j2kzjBAEoEmTNKEijB5xkenYJXqFTBCM9VDCEgRWEFhBiHRos4nBBBODCZkUtX77+PNvMfpaYwmTtLpkWUJ+Xi5GXnIerhl7OWAghFI/rr7/6Tc89cJrWF+0UUj6MGDv1+o1kyCsXV+E6U8+h3kffh7p5+C9XlLQpmUhbrp2HM47MwlDHqN/czBBMAAewCYGY/DVy92sILCCEDMFwSwfBGogSfajrzGHIFB9lBuBzA3kk0Che0a8G9xuNz77+nvc/8iTKNq0BU6Xy7SP2UyC4HK7MXP283h41rOG29f7oB7CYXHACccYrivSCuZ//IUIVz36/w6P9FZD1zNBMARf4hIEDnNkBSHSoc0KgnEFwSwfBOq70j1lePnN9zBt+uxIu7LO64kkdGjXBicf3x/XXnl5RESBQjA/+vxrvP7O+yjZsQtFm7aa2jaqzEyCQPW9/s4HeOixp7G9ZKehttrtVpxy4rGYMPYy9Dmop6G6Irn5mRdfE86fqXY7plw3HoMHnhjJ7YauZYJgCD4mCMbgq5e7WUFgBSF2CoKJJoZYqAj6F9eIQordhkEnn4ArRlwYEJd1GzbhzXkfYsHCxXA6XSjZsRNbtm83xYEy0APNJgi7SncLM8MLr75lOCokMyMdnTq0w/jRIzB00MkxncCcTieefel1PPPi6yjesUsoQFNvnigUIJvNGtNna5UzQTAGc8L6ILCCwApCpEObFYTEUhCo/3bvKcPcN9417GgXfCwokGUZec1z0KZVy4CXVRw4gG3bS7C7bK8pPgahxqXZBIGe9/b8j/HQrGewecv2UI8P+bvFIqNVYQFuvGZszHwSnnnpdXz46VfYuHkrduzcVeMz0rpVAUilOv3U2JITJgghh0FYFzBBCAumhLqIFQRWEJJGQaCGfvjZ1xhz7ZSE+ohi2ZhYEAQy15CK8NzcN01reuuWBWjVsgUuG3Yuzjp9kOF6V6/bgFfenI/FS5Zj4+YtwoRTuyho16Y17rh5IoYMPMHwM0NVwApCKITq/j1hCQJHMbCCEOnQZgXBuIJgppOi1n+kIrxCvggzZsNtQpRApOMi3tfHgiDQO2zeug2PPjEHb7z7kWmvRLI/kYSCvDzQ2RcXnj1URIuELJTeUQIW/rVM+Ej8t2YdKioOYMv2Yuzdtz+kUjNp/CiMvWwYsptmhXyUkQuYIBhBj6MYjKFXP3ezgsAKQuwUhCmTcOxR/Uwf2d//vADX3XIPtm7fYXrdiVZhrAiCljjpkcefgctlPtMin47CgnzY7XZAUkA5nrMyM5Gbkw27zQ5y8KT8FgcqK2sgL9u7D9uKS1BefiCibmhRkIu7plyHMwYPAO/j1wAAIABJREFUjOi+SC9mghApYr7Xs4JgDL/6uJsJAhOEmBEEM6MY9I3ct38/Xnv7fUyd9lh9fDNhP5N21FSMnH8QK4JA7aJIBlIRXn3rPUNtDAmIIAiA1WoVDoWyJMPlcsHhdMLlcoe8PfQFCtq0aYWpkydiyCmxi2pgghC6J+q6ggmCMfzq424mCEwQYkYQzDqsKVADd+/Zi1fenIcHpj8JJaLgxPh8ZnZaCGUZldXVISXyuloUS4JAz91WvAOPPvEMXn37/ZhFYsQFcQm4/OLzMX70cLQuLIjJI5kgGIM1YQkCRzEE7VgmCEwQYkcQYmRi0Bq8p2wv5r4xz/Aphcamvdp3k3JAYX/kQPf4s3MNVR9rgiCUhOIdeORJUhLmGyIzhl7UhJtzcrJx763X4+yhxp0kAzWHCYKxTkpYgsBOikwQIh3a7KRo3EkxViYGfV/u8SRQut/kBEqRjpea6yUFQwaeJMLvvvnhF0ye+mDUVdGN8SAIQkko2YFHHn9WmG7MSBFt6KUN3NymdUvcNWUiBsfA1MAEwUDHJHKqZVYQmCBEOrSZICQHQaB+TSQl4fRTT8LUKRPRumWhOGAqWQiCUBIESZiD196eH1ufhEg/xgiuP/n4o3HDNWNw6MG9IrgrvEuZIISHU7CrWEEwhl993M0mhiCoM0EwThBi6YPg320aSXignpSEVi0LcMHZp+Oic85Am1aFonnJRhBqSMKsZ1WfhCQrV48ejksvPAsF+XlITUkxvfVMEIxBmrAEgRUEVhAiHdpMEIwThHiYGPT9SiTh598W4Y13P8A3P/waaZdHd70EcR7ATRPGipj/nGbZNfUkI0HQSAKlNX717fnYu7c8OlzifNeEsSMw9vKL0TynWcyezATBGLRMEIzhVx93s4LACkJABGihPXf4lVGPyZ7duwg7/HFHm58Hoa5GVVVVo3jHTrz30eeYNuOpqNsf6kZyRMzKysRZp58K2rmSScG/JCtBoPfYuatUhEG++NrbeO3tD0LBUS+/Ux9cNepSDD3tZJEaOzeG5IBekAmCsW5mgmAMv/q4mwkCE4SYEYR4mhj8X4LUBMrd/9OvvwvnuwOV1eZ8XxJA5w+cPvAkXDNuJPJymyE/r3nAuokgTLnrQUP2/Hg5KQYDp7hkB5YsW4mX35yHr+OlyoToKSIGl5x/Fs4aOghdO3eIqWqgbwoTBGOfEBMEY/jVx91MEJggxIwg1IeC4P8ylJ1v05atIjHP19//godnPRvxd6YlPDr2qCNw1RWXimyAZEpoVdiizrqMKgj0XJLNKQFQfZbqageIKKxYtVoQhW9+XBD/5oikUwrGXzEc/zttIFrkN0fz3BxB1uJVmCAYQ5oJgjH86uNuJghMEGJGEOpTQQj0UnSOA51BoJWdu3bjky++wQeffiVS/4oliI4FkIC0tFQcd/T/Ydh5Z6JFfh4kSUHTrCy0bJEvMgKGU4wSBHpGfSsI+vesrlbNN6TOvPjaO3j9nQ/DgcHwNWeffirOP/t0QcxatiiIuSkhWIOZIBjryoQlCJwHIWjHNkiCQClcV/23xtBopnzx3bp0NFSH/82VVVVYvXa9oTrTUlPRuWN7Q3WEczMtmOuLNoZzacBrUlNSUdgiHxlN0qOuI9Y30jgpLd2DXaW74XK7fB5HWRCJEJDjod1mi6opL732Dibf9VBU92o3JRJB0L8IhUSKo5cV4LOvf8Br77wvyIPKsqJ7ZUlINQpaFhZg1PAL0f/IviJHZvOcHHEEd7jELLqnh75r05Zt2FNWFvrCIFe0bd0KTbMyo74/3BvXF23C/nJjzqUd27VFE5O/3TXrNvicvRHu++iv69Kpg+kRKus2bER5BZ3/EeXABdC9a2fYwtw4RPPe9XVPgyQI9QUmP5cR0BBYtXotZs5+Hu9/8lXUoNCO+erRI3DlqEuiriMeN5IyQ8cxO5yOGoJAiZcoUdSX3/6IrdtKajUju2kmjux7GE45sT+6du6ItFRvWCId8NSiIA9ZmRnxaD4/gxFgBIIgwASBhwYjEAME3pr/MW679xHs2xf9Tm7IwBMx5brx6NyxXQxaGNsqqx0OYYqgTJfkw+BfLFYLsjIykJ2dBVLFSLHhwggwAomFABOExOoPbk0DQcAM/4Mrhl8gQkWtVksDQYVfgxFgBJIJASYIydRb3NY6EVDEuY6eM5brEauPPv8Gdz4wPaC0HnazJEV1UJx8Xdi38IWMACPACJiJABMEM9HkuuoFge9//g33PvI4Tuh/JG67YUK9tEH/0JfemIfJd04z1A41xJEIwiRD9fDNjAAjwAhEiwAThGiR4/sSBgEKUxw78RY0zcrA+WcNxY3XjEVWZpN6ad9Hn3/tUQ92GHr+EYf1Fu9x7NFHGKqHb2YEGAFGIFoEmCBEixzflxAI/PDTb7j+jvuwect20Z7MzCbo1KEdhg4agPFXXBrHNiog08Id98/AtuJiQIne1EHqwYiLzsXUydciNTU1ju/Aj2IEGAFGwIsAEwQeDUmLwOIly3HXg4/h90V/+7yDLEvIzm6KYeedgduuvzoO76eSgzvvn4Gt22uH9EXTgLGXX4S7prD/QTTY8T2MACNgDgJMEMzBkWupBwQ++fI7XHX9raiqqh1GR80hk0Orli0w4PhjcEuMiMLCv5ZiztzXsWjxMtPIwdlDT8VtN04QWQO5MAKMACNQXwgwQagv5Pm5hhAgx8QbbrsPm7eqpoW6ChEFys53WO+DMH70cHRs3zbULSF//2flf3jh1bfw04KFKNm5C5VmHQYFYMxlF+HuW1g9CNkJfAEjwAjEFAEmCDGFlyuPBQJ79+3Hq2/Px90Pzoqo+ibpaSjIb46UFLtIznPaKSdg3MiLYbN6UynXFSr519J/8OxLb2DV6jU4cKASO3aWelK0RtSMOi8+6/SBQj0IdRCUeU/kmhgBRoARCIwAEwQeGUmHAKXwnTjlbrFAR1vIT6Fp0yzkN8+FegYAFf9c7L6OhhUVB8T5Awcqq6J9bJ33UTOuGH6hUA+8bYrJo7hSRoARYARCIsAEISREfEEiIfDDL78L0wIdnBO7ohGF6CMRIm2bBAXnnjEYt990DfLzmkd6O1/PCDACjIDpCDBBMB1SrjCWCFC0wJhrJ4tjmRtSGTzwBNwizl2I/UmdDQk3fhdGgBGIHQJMEGKHLddsMgI//Pwbrr/1HmwOcDqgyY+Ka3U5zZoKX4jxV4yAxcKHFsUVfH4YI8AIBEWACQIPjqRAQFEUfPwFqQdTGpR6QIcYXnD2UNxx07Volt00KfqCG8kIMAKNAwEmCI2jnxvEW+7bX4433v1AZCtsCMVmt+L8M4dg8sQrkdc8tyG8Er8DI8AINCAEmCA0oM5sDK+yn0jCvA9xx/3Txesmqy9C717dMWr4BTj5+GPQPKdZY+g6fkdGgBFIMgSYICRZh3Fzgf3l5SjatBVffPMjHnrs6aSD5Jz/DcKUSVchJ6cZ0tP4rIWk60BuMCPQSBBggtBIOrqhvSb5JFDCpLfe+0icx+B2uxNaTaAcB3Tw0vlnDcENE8YgLzenoXUJvw8jwAg0MASYIDSwDm1sr0Nqwvbinfjmh58xdZrqm6AYOEkxVviRanD9+NFomp2F3GbZsXoM18sIMAKMgGkIMEEwDUquqD4RIKJQXLITX39PRGGmhyjUY4skiJDFc/93Gq4ZezmaZmWiOasG9dgh/GhGgBGIFAEmCJEixtcnNAJCUSjZidLde/DuB5/i5Tfei3t7Bw88EZPGjxL+BU2zstgJMe49wA9kBBgBMxBggmAGilxHwiHgcrlQtncfdpfthcvlxudf/4Bpj80W/yyZlIVRO8KBToccMewcnHzcMeIMhcyMJsjNzYFcc8ZDwsHDDWIEGAFGICQCTBBCQsQXJDsCxAcoPJIOWqJ/phMWyMlxV+lu0NkOn3z5Hf5dvdbnNf3DJ9PSUnHYIQfh7KGDQCGKdDKkVuw2G7KzmyKjSXqyQ8XtZwQYAUagBgEmCDwYGi0CpDKUVxwAJWCqrq6uEwdSBtJSU5CZmYnUFDtkSoHIhRFgBBiBBowAE4QG3Ln8aowAI8AIMAKMQLQIMEGIFjm+jxFgBBgBRoARaMAIMEFowJ3Lr8YIMAKMACPACESLABOEaJHj+xgBRoARYAQYgQaMABOEBty5/GqMACPACDACjEC0CDBBiBY5vo8RYAQYAUaAEWjACDBBaMCdy6/GCDACjAAjwAhEiwAThGiR4/sYAUaAEWAEGIEGjAAThAbcufxqjAAjwAgwAoxAtAgwQYgGOS1fbzT3xvweBfR/EiLP9Jcwr+XXkGDtimd7VUwpSbO3aEc6+P415h2clA9grHzHTbKPmVh9e5QCnbKWRlti1a5o25Ps9zUKgrCnWsHEpd5Uurl24NHeKWH1XWm1ghmrHdh0gAat2+eevBQZE7vY0Cq17qq2HFBw6z+BU/m2T5MwtZe9VgV0z8OrndhT7fvMQE/q1ETC7T28dazZ78a9qxzi0i4ZEm7tXrt+/3pW7VPwwCoHpBAnGR2UJeOGrraa2/c4FHyx3YXPil3BQVAkHJYt45ou1pCYL97txqy1atup5KdIGFpoxbHNaxOehbvdeFJ3bV2VH50rY0wHb7t/3eXCs+ud4pb+uRZc0cG3bT/tdOH5DervRzSTcWk7KzKttSeu73e48FKRet1JeRYMbxfsHRV8U+LCKxsD4KQApxZYcFFbi+ekiJAw1Vzw2XYX3trkVA+YCFgknNbCirNbybCFOe++v9WJ97d62qkA57SyYmhLaptvmbfFiY+21dHvftdf2NqKQS3861HwxiYnvij2jnPCcUihBbn2MBvs95yXi1z4dofaJ3WVwlQJw9pYcXBT79h6fr0DP+1S2zKynQ39m8uQAzTj2XUO/FqqHvw1rqMN/5cbmJC7FeCpdQ7QWNWKdxGTcE0nGw5rFvg9Z61xYPEe9b6JnW3ok+19xuYKRYy7NeVqGyZ1taN309r1/LbLjfe2OlFSpVK0G7va0CvLW8/D/zrxz15XHeNHbXW7NAmjO9rQOs37jPtWVWP1/tAnn93Zw44OTbz33bWiGusrgt2nAIqMI3IkXNjGipwAY+D2f6qx6YB6//297GipaxP97Zbl1dhaqf7+4EF2FKQGxvfmZdUo9uDy8MF25KUEvs7hBm5eVoVS77RU05cWBXj0EDuyoxyrocZoff/e4AlCuQt4aYMTH27z9q5dlnBMrozJ3epeOOmjum6JA3scbjjEePMd1BZJQjObhPZNZNzXy7v4aJ1a4QK+Lnbhrc0O7KwO/EHYJAmdM2Sc28oqJiOtFFUomLKiCrs8Az34QJHQM9OCGYd4n79ynxsTl1SJWw7OsuCR3qEJwrIyN25YRiSm7g++b7YF9x3krY8I1PwtTry9pa4JWUKqDJyYZ8XEECSBFu67VnrJlFWScEJzK27sVnvhpUX83lV1n6Gg4TYg3yomR63QYv3Qf+q9p+ZbcZ3uN/rbV8UuPLJa/T1VlvC/QitG+ZEI+o0W6Jlr1OuIyFzdqfY4+G6HCy8XObDfCex1Bsa3iUXCWS2tYlK0RSD+zNvsxJwNjjp6TUITC5BhlXBmSyIKtRd6/dj6eJsTr2ykMe/961E5Vlzcxooumb4T6NwiF17fRBeGXiRoBRrbwRbw+XPWO/CubvykW9Rra5OJ8KbLJ9Y68NG20AShbZqMsR1t6NvMC/j01Q58Uaze29Qm4drONhyTWxuzh/9z4OsSJyRFwpTudhyf59tptBOevc6J33e7UOYAKl2BMJKQbZNwU1cbDte1QXvLu1dW45ddKgG7u2cK/i9HNz+UA4+tqcY/+9TfaR6ijYCe7NDfvxOk1IktlSrRmHZQCg7VEY1bllVjcZkrZA92aUIbAzva6xb6G5ZWYxmRixDl8UNS0DXT2/Zr/q7Cv/vr2vio80WmVcYDB9nQJt133F35VxXWlav3zzksFW39fh+zuApFFerveXYJj/ROQYsAJGHUn1XYfICukzG3rz3gNTcscaCk2o2d1W4E6kJqWb5dwqxDU0RfNrTS4AnCrmoFNBAO6HqXpOKWqTJe6Bt84RTkYKkTO6roA1Blr3QLMCDPCloUfyylyUEdDimyhKNzLJjc3bs40Pf4804Xnl7nwD6xKNDgkdA8RcIp+bL48IkF00RikYCemTKm9bLBalE/JEEQ/nFgl3i+eq+/gkHX0bv0zLBgeh8zCIJKKuoq/gSB8J2/xYV3ttSm10KSl6jVisAq1SLhpDwrru0ceJe9tMyNGaud2FrpO+kc19yCWwW2vh9gnQRByJQSoKgTxYA8i1A+NPkyEoJA96dZJPyvpQUjhULgbUcogvBtiQvPrHeizEEoqD1G46VPUxl2GViwyy10KfpvIglEFIe1Da20aH0UnCCobZSEwUktGVYZF7ehRTo4A3l9oxMvb/QlHCmyjBHtrDjHj1zMLXJ6CEKoUaP+rhIE33d7c5NKLsv9iNNVHW04o2X4OOhb4EsQtL6qvUC3S7NgjCAI3v7UEwSqk0gC7d6P9iMJXoIgY0p3Wy2C8NQ6UkWcPvNOnl0W9Szf68bacmqP+h9aWG7uasdhfiShToKwX8Fjax01BIHa2txOmx5NEVHf6dsdLrxKBEEshNEThK4ZVlzfxWo6QVBoiqjpGln9l5rNGGFvxQl5VqTpOFokBIHeOT9FxiMH11YSQhGEG5Y5sXKvE86ao11ltE+XcHyehPe2urGPpAVPIaXz8T4NjyQ0fIJQpWDYwkrPEivBJZZUNwpSZLzYN0Uszv5lR5WCiUto108DQBHMkgaYONFPprsBktZ/2angpY3Voo5+TS24s6e1ZgHaUkFmjaqaHSPtVu4/yC7kSlpsaEexvtyNW4TpQUKrVPXj1pi2XkHIsko4tYAmzMATOxFXvcQVvYKgEgQyIwRTV2hRo0lTK6XV8CgIKkHo01RdiLVC3/rfe1x4dLX6OxGpO3sGJmYkh9610iEWyxYpKomj3Q3t4E8psNTanVe5gb2qtCPK76VuPL5W3c3Tru/Kjt52pFgAwlErkRIEuo/kTpLbaRHXSl0EgeRlkuBnr1PbRM8f0sKK0wstghzQeKJx8FWJCy9vdKKFXZVVI9k56wkCqRznt/ZdVGmsfrjVVbNDb2KVcEmbwEoCteW1jeqCLZCSiF6Is7FxWTsbLmrjW3e5E6jQEe+icgXztjqxeI9K8Ia1sWGwzqRAzyaSrS/PrXPg3a2qiYRUDpdbrZO+z1EdbDg+gGnJt4ba/6YnCFe0t+GEvMCqCX239EzqC634EwT6e69MMkHZ0DPLO35qCAKAKd1IQfA+Y3e1gplrHPitVMWhe4ZVmDJIgUmRgWq3Aqci4fE1Dvy+24l+2VaMbG9Dxwzfd6mLIGzYrwhTnKYgiO6ChEldiKxYxA6cSiQKAikQPXQ7fX1r6NPJtEnQW9n0CsLUHnahhAYqzey+9+kVhHt7pYhFV1+mrqjG2nKVUJNZb3rvFB+VIFKCQLUPbmHFZe2syNLNXV6CIGFuX1+V4b99Tkxd6QRtgKgQSaHx39RKGx2AlGniDdcuqQL199BCGy5rb601vkON1UT/vUETBOq4CX87sKNaXWT6N7eiRSrw6kaHWNS7Z8iYfkhtX4TtlQpGLFIXyxYpspDv/W1hNGy2HlCE+YJ2IXZZqVk4d1UDj692YcFudWFoky7j4YPsoA9FX2jTRM/aXulGxyay+Bg0eVmvINAO48xCm8dGHXpIRU8QaBF347BsCx7QmRHqeqJQELY68c5mkmUl/F8zC+72M7f8sduNO1ZUC7Xk6Bwr7uxZW4anheyXneQ7USUmOpK1ye/gof9oN6vg+OYW3KJTaAK16cedLpBdlMrJeVbc1K32c7T7oiEIRO5OK1DNCJpdui6CQOrBU+ud2OvZaQwqsApJ23+RPOACyh0KSDwi8kgTULhl3maXx8Sg4KLW6iTlX2gyIz8FMnVRubSNDZcE8JWYv9Ut1IMKp1uYdXJTJJBKU1LlRpZVVRGI3AQrZA9/pchZszCO7mDzIVP+99Guluzo1G+SJGN4G5tQ7D4tdkKGJAgeqTaRlifWOPHRdhqPCiZ1tkdEuAIRBDJzkXlKTzTqIghPrlXVgyq36ix8XRcbTsqTYfVbP/c6gGoXYLcA6Vb4LL70zpESBLqnqc2C27rbavwRQisIDo+JQcHDB6egt84fIxTueoIw85CUoOTCvx49QXiyT0otYkHz9uTl1dhQ4Rbj4qk+vj4MkRIEej7N/08fmoJCnb+ClyAAc/um+pgYqI2ry90gkk+bwsf6qCTFfz9J8x/RwCayJPqwoRkZGjRB2FkFXPpHFdySGyTvPX1YCnY7gDGL1L/RLvWlvik+XrNkPpi60oF/95HWALROlfFc38AOjTR4yl1KLee1TRUKrvyrGg7FLYgFOa7RwhKoENGgTZi//5ueINCO/czC8KXn6AmCSoqiJwjwEARfheCPUjduX6HWHUxBIOfEaf86UOZ0o326jOFtyRwAoSgQaSFlYnxnG9r6OSTpMY0dQfDK1MLU0MKCkbQQS1KdPghkz3/c40Q5KN+KMR2toF20mUWvIAQjCPS8tzY78WKRU5C07hkWXNLWin46mzaNw9c3OYWvhEYiSC2hv71N5iMJuLytTSgcZhEEIhPvbFEX0nNa2nBeayve2eLCe1tUUkgmCfKbCOQkWBeGegVhYmc7TqvlGBn8bi9BkMT4o20stYV2nmRq0PwR6vJBePBfR42T5LWd7BhQoCpGkZbwCQIpPUSpVMmb5guVJMj4tsQtNkTh+CA8clAKDtb5J4Rqb6wIwh+lCp5YSw6E9D7qwq53cgyfIMhQJDJvqipArp18taxCnaJSl4nhskVV2Obx23ist+pDEek4DIVfMvzeYAkCWQfIOYw+eCot7DLmHmEHmQ+GC9KgLuwj2toxVCfd045+5J/VcCluIT+e14omxch2MUQQxvxZLUgILXaz+qQIaTGSojcx0MBM9zBU/zpssoRDsmVcq3OOi54gqIsxOXFmB9l8k9Ojfmfu76SoKggqQaDfaIf94TanMMnQx64ShNqVk3nhzpVEIkg9sGBKdytIwqZ7ycud2nRynkVEjQQrsSII5FxJ0SDPrlfHkiAJhTaMbG+pkyB8ss2FWcLkoRK8Kztpi6uCv/co+K6ktqMWoUS26BP8nN6CvXM4CgLdS/iS8yHt8mlHfEkbX0XqV/G7E+tIbgAwoq1N+EKQ/Zruo3J2S1Vm1cu0+nat3a/WscAjrdetICiYs94pTB9kalHJgEW087VNTqze7xJOavT3Uwoi+3j0CgKZdYIpMkNaqI6Q+rGuVxCu6mDH8n1uoXAQTaD3nuTxR6hLQdAThNu623Fsc+/88fFWN1YHcdCjSJHOGV4CGT5BAG7qasdXxW78Vaa2tU2aGm1EKif1ydagTopeBYEcHYM5yFK0xaHZFh8VRE8Qgt1LbzO1Zwo66pwb9QrC7D4p6OQxTdDYf2adU/hn7fI4BZLpleYTffRE+ARBwsMH20QUmhrVIIEi2Gb0ThGRDXWZGLwEQcYr/ewimkorz61zefzKan+V6iYgkpk+sa9tsASBZKrRi6uxz0nyqITru1pxZI4VJOsvL3Pj5uVVgnO3SydlwbvjJYJwOSkMUMTu/4YuKTg8SBhSsK7dWAGMXlwpPtSO6TKeOiy8kEp9feFGMdDCeUSOFbd3945KowShriEbOIrBpe4yAR9yQcoIyeeanfqQphZc38VWK+xoQ7kidre/lXrDDilskz5p4Yj4b7XwXVLNDMEdS2NFEEj9ITPSx1tdeL7IYzZKk3FBa5twYAoWxeAlCPAQBC+5od+e8RAOf7xp1ywUijBKuARh5V6X8C9Y6AmbI4JAoZtaeWuTC3M3OuBSFJzbSiUHFP2wokx1cvuzzI00i2pmOCuI7L92v7oYLfD0Y10EYd4WNbqnzEEyPHBlBxvOaGUFEXuKaiBiSGV8R3vEZgY9QagLwgta2XBWKyua6YaUniDQokv+OLPXef0JTmyuKnmkyIgohgA+CBpBIOJzazciCF6C89C/DvzsiUzwbRtFIdh8IhUiIQj39UoRxINwI2JOm4o7eqSg3Cnh9Y3VdSgIXoJQF1a3d7fj/3IsPgTCjCiGHPJr8MBD3/s+B4SipHkWkarRs6ns4ysWPkEAnj88FRTmPu3fauzw+BNc1TEFAwtkXP23FsXga2KgZxNBINMvKTOv+hEEIha00QxUyJfB35QcxmecsJc0WIJQWqXgooWqrE3mhRf72WviwMmmesmiKrHoFKbKwsygFSIIl/1ZJaRYWnxpR3xbj+C71kA9u7FCwRV/VYr6zSAI1I4OTWR0C+AERL4U7dIp1t27S4meIGh4STgyxxIwYUmbNNWbXyu+PgiBxzlNooc2teDGbuSHUdtORyaIe1Y5UO1249Cmam6JFh4vq192uYUtlsgWKT7k5Hd5kMUzlgSB2vTjDhdIvi5zUuSJJOzxpBBRuBkV/zDHuggCOQ4+6XFe9EeNnCBpcQ2nhGtioEiTl4ocqCS7GCAUBD1BoOgFIgi0qJF5Z5hHNSPh59UidTGnabvGzBDAUhKJD8LzGyjyhUwebvE8im7QPNXnrHMIZ0dq6eHZqjmkpy52PxQuehMDmabapgdWICjcj3IL6H1C/AnCSfkWzFrtxBclTkGeKAKFdubkEBsszNGrIJDU70sQ7l9VjR+EIlG7TO2RgqN0+RQiJQiU3+DuVdVYvFutn0wNZBJZUuYOK4rhmBwbcoPsZShPB8n8eqduPUE4NpeIVu1BQfMomY70uQhChzmq2EzrlYLe2b7kgP4eKUGgfBe0WVQjORRkWGTMPtQuHMSDhTlqCgJ5HbzcL8VHQbh0YWVNXgn/XnzjiNSAuRtCjdlE/b1BEgSSs69bWgVKNkTLkUWSkWPzyrn0+RDLpkIDnhbeGR47FZNYAAAQLklEQVRnxQqnGtf/8iZ1d0BS3RxSGCLI7kUmBlIQ6Akk59LO+f6DwpvwtYHi44NAC2Mh2WiDe2PrTRjREwTVxEDtnRok0oB2JpqHNLXV38SgEgEbluxR8KDIM6Cgd5Ys8gwQGQtUKNRvqjAvqApEls7ZR0QqeELgaPEi5zmK9ghUYk0QaHf7yXZ1508TH5kayKVADWOtmyD0z5UxsgMl1VIxoEhO8l9RMXSLaIcvPMmmIiMIoZ0U6RmkELwg/AsUkZTpkra2mkmPEiO9XOT0tIfyJlC0gWeHJEGYejQVqHWaLHxqSM3xL+GaGMhnk5JQzd+qqk5kyiMshVs4VA9x7XlkQiN1gRInhVv0CgIpEOQDEKhQ35Gkrl/W/AnCyfkWkb/isTUOr6nBKgmlg8iWpNQOcySCQOZNIlTkA0F1aD4I+5xqFAOVVXsVvLbJITz2qRUUCWCEIFA+B3J8JEfdv4WpQXXOcyhKTQx/7TwIXgXhnp4pOCiIkyLNL/4RX3qCQPV2CxIBQUNeb7/XE4T7e9nQvolF9Pc9Kx2e/AUyHuxlE/4QgaLMIiUIZJ6gNWHSEkqgpGKdY4dQr9RPsHYeBL0Pwkt9U0Ekgwp995QjRFtNPt+uRghp45UJQrhfaT1eR4sWhTbWhK+KKSCwJESDpTBFxkv9VJ2RrlIXeFrc3OIDOzbXghsCeMRvqyRvWwd6ZanJTrRC6wXF9E9Zri56wg/hEDtSAox2MkdM/8+B4e0sPnHQ9RPFELmTYjAfhK2VAO1KvypxiEWfFpQbuvrmECBs9M6J4QwZyolwczebIF7+JdYEgZ5HhOXjbZSFsXaCIH8FgZItkTxNkwftPEnOvjxA9AAl0aIoEFqoqURGELyJkoI5KX60VVUP9rtUr3pKenRJO0vNwvjGRide8vgZhOoDItv0DoHIargEgcYFhVLqc5PU9dxIzQx6BcFIFAOZGGhxp0IkgUxJZPLSl1AEgcjPjV3tOFLnEKrdv6yM/DAc+He/WqdRBUFL+ESqHjn8LvWQBH1760qUVJ9RDDTvTqDIAY9/BhHRu3r6+h5o7xENQaB791QD1y6tFqYD3/UgEEFwYJvIx6II58bH+9gCZvacv9WFV4ocNWSfCUKoGaSefydyvq5Cwfi/yAegrkILDP3HLTr+zp4p6OZxECL/hYf+o3huVUWgXQypDPqMhEQOrqMYWIe6CyEJlNJ6aoUW+DHCD0GNUChIlUG7SJpctfj333e7MXstJVKiXRTQPdOCuz0OfP5RDGe0tOHiMJ0lo1cQIicI/iYGzUmR+mFBqdc8QBiTbd0/Tv93j3NiMPrm34O00FJWxGsCJFuKB0Gg9hApem+L6oGvL/4Eocql4APht+B1bjwl3yIc/WgHQ2WvQxLqAflwaNn2zCIIJZUQpOPzYk0dAMiHhNSDHp6Y/v/2U+4Dr409nM+XUhBfECCaIVwTA6Uz1jJvqmeGqOeH+BZv5AhJwpTOOFxnxfAJgvZML9kMpCBo7VpS5sKLG5yg70srgQgCkYlHV1eDsoJSofwBV3ZQTQ2aYkE5UF7YQHOMuyYRj6ogeNWOSDIpkg/C/7d3NrF2VVUcX/fe91F4LU2RlgdCK2ARU6AwwIFhIJGYAMGGSCCKOkbtxOAXRJ0QB6IGEqwhjNCZSgwwYECIgiFAdVCax1coaf141do+Wq1SbN+975j/3mf37nveOfdeioHVl9+evXvOPWe93zr3nP9Ze621k0DQf/WTN1Q+GitExhUIw6sYYjQ2H/0IQtseuHLq5DU16hpqKnPUG/135hZt77Ela7cK23HVqoHkxvcqEPT9X8/H6bIU9YvHXC4QFCVQjsKhspJi3XTLfrRl2i44Q8HkyOLFI13b8aaa6fWvXgTCKO9/wNv1wL5z1wn7pwqM1V1sum0Pbl2e2Ka3tu27Yx5Cu9WyS2Y69tOyG6F+/vv+U9hXdsc8Ag29/CtTNw2Fpo6EBKuWXXiG2hlPDDQQ0vZXji7ZN+di2F7fVARhdfn712EVptSFqm0Xndm2H14xbWeVgYhqFYMiGdX6+WTL5tXtgSmBXCBI3Ki5R3WoIcp3s/UbYqvlaGvTd3SMK9fGN/g0YgQhJSkO9kHQA0912ArPKiFU86F5PsdC2WTp0TLB8Zp1nVAzXh3ipMzmVEWgaMTdH+t3RUz7v18CQb5TdUbKPUjnr2u1rJcQiYQU3pfAUZZzmmzRtaZEzvQ2feO5E2FdiHHLIfMkRbUozq+RlCSa8g50/SqxUtnyqdpSkQs1aYphb1Xt1DdRenS+F/IC9DCf6bRD05lqj4JxkhSfW4hhdVVLSBx8aeOE3TC7fOpJrXR/Nd8N8+eya/vF0e5xRj7FoDf4hpktO39Vy764adK2ZmH1YQJBkUE9eOM6D/HGUJekqM/VwOt+9UI5rFyKIkyjKEyf7iA6lqZSFssH+F2bp0KfhbwccmgOwttF+F29WrZazgWCzq9pIeUjqElZPoZNMShnoalbsKKgEml52+N8ikG9WpoqeO/dMhX6vKQxrA/C9l2LtidU0sQOk4pqVFspn2oEQefX7/Gru1LSZl8gVhslaV/lLHz75cVSJMT7fx4ElnbQNGHSYD/bOm0XrV5Z5ZArLgdhYbGwO3bqTbgIDr3viqnaJCU5VW88CmtpVJMVtX3+nSKEyZ95Sy2R6xOLFApTp6+1NSkGukG/qgdvOdXQdHML4uDyKVubJfmMW8WgY6pNc8qh0N+5QGg6p/IMxCaNKBBOpdVy7KSYWi3nZY46thIQv/+a5uxj+eR16zv29c0Kb7fDAjZaSyG+ObfCoknfa0gIVdvqe8smSOpK+YWNk3ZdpRTw/RII+r8UHVCfg4fLBZ30WdNaDOqW/djfYwVE81pYMQFT4qBJCNb5cvRaDPExJttuv6ATSvXyfBWVkGr6QUMlvXdsHGxrm875l2OxTPL3C2khoym7vRLRerOsYkjVKHVVDI/8KYpJJfzpgaIyxs/WtFTWA/ThvV17PFQzFLYt5OBM2PoxCoL+X2sx5FMMiYNmAx7Ys1hONURxX+2keHLfrtmP9yzaCyGS0DzF+Y2PTtqnNgxWCOgY7zZJMV9TIomUmI/Qj3h4W4uh2ihJORTfmjtu+8q1FH5w+aRdtXZiQHy8F4EgLlobQx0QU58DfVZtlKTP5LF/nyjsa7uPNyYlKhrcWmrZjqun7SMzg7kWTffe0+nzFSUQ9KapOuq5cu5Nb2pf3tTveld1jEL7vwg3+CKU2ijJJu+WpgvkWFfzj4X98XDPHtyrG6kaqLRtdtrCAk2aGshbD1fPoWefQmf/OlHYL/f37HflKnPKglcnR71R60ZZrS3Xm7nePJU0OWooQ/jWrMWuKjH04Bg29PZ0i3rrl3P5Suh8bP+wG1k8mt4g8hu63lR0A3rpSFzwZdNM227OEsqUkPa6askPRYGlxV5uOi+GNBRmfbJcDVCJRMoYVzi2bmh+WytGxoiP2aVrOvbpDYNvnpq/fOpAPI8am6g9c9OQTU8fjMe7bE0rzjVneQ2vHS3stwdjJr2mj2RbdejBr1yTPxyO/7sSvJra+mraU7585mDPfv7Xnr1TvnaoS9vNsx373IfbNt0ZzKgf5XdtV4j6+QVFqAavE/2l7H01y1FUSutgqEogp/vK0cJ2vtUL0Qvt/4mztYpePTOZu/NwL+SMaKit7jVnd05OlegzhVqV3f/nsk3uJ8/phFU88/H8Qs92laWW2nb1unawrW5IFO4u91W3wWvP6YzVre/ZQ71Qyjxq6A312vWdUAWUhjpsvn50ybRGwPUbOnZZTeKdphCePdgLnf4kET4z27FLs/4F+Xm1r6IzD+3thvLG1Jn6Q5Mtu/PiuG6CokXLGikVhT15oGf73i6CLTfNqoqgz1JTe2qj/I//xu0SgPn/kWzQg/aFhZ6pqats3XZ+ZyAKoFU795cP42G8FIm9/tz2wDz8b+a7pqnWUUPTiuuzxZIUGTpUfu+2CyX6Bv2vrp8LZRnhzGTbtp3X7ldIFGZavyO1QP78xuUrPuqlTtPE4qIKmLpFlMTjib91w71dQxU9Tf09lOC4tFTYXXPKS4ilj6Kppm33fHwqRGh1jpXYSGlFCQS5Wg+k9CPUZTesba32z9cFkoPrGhql4/YXlIkXg2689be25T8Z3WBVZXMiM06Jdmsayt21vwTP6J9ffGDmduu7YepsyDiV7+hw1e/Jvu6Shf4Sddv1mf7ltGq1ngXpZtj0eZ3Z+b7anh8n7X+qx6s7lv6ftBZL3fZ0znH3S/vLL+GBXPKSJtH00btpr5zzyc9f5Sa7JT6bblwqYZTv0pBIHrYgnXjkfta++bF13emYKeSq+fZq2Dk/Rt32/H/I99Xno/ZP361+r+lnEPOLBrPzdZ2mn6iu0wbtEq7ncfZL51bUPEzjZL8TTQkNW7lz2DnkNv2fiXWTreE+otOW563up+uxkqZQi0us9N3c3+N+V/empu9Vt+nkEtP9BPN4b8u/r3t2ui9qjZXqBFW+Xb+rpnv0uPslIJo2yld0DGt5SBiMUkin8fYVJRBOYz9gOgQgAAEIQMAVAQSCK3dgDAQgAAEIQMAHAQSCDz9gBQQgAAEIQMAVAQSCK3dgDAQgAAEIQMAHAQSCDz9gBQQgAAEIQMAVAQSCK3dgDAQgAAEIQMAHAQSCDz9gBQQgAAEIQMAVAQSCK3dgDAQgAAEIQMAHAQSCDz9gBQQgAAEIQMAVAQSCK3dgDAQgAAEIQMAHAQSCDz9gBQQgAAEIQMAVAQSCK3dgDAQgAAEIQMAHAQSCDz9gBQQgAAEIQMAVAQSCK3dgDAQgAAEIQMAHAQSCDz9gBQQgAAEIQMAVAQSCK3dgDAQgAAEIQMAHAQSCDz9gBQQgAAEIQMAVAQSCK3dgDAQgAAEIQMAHAQSCDz9gBQQgAAEIQMAVAQSCK3dgDAQgAAEIQMAHAQSCDz9gBQQgAAEIQMAVAQSCK3dgDAQgAAEIQMAHAQSCDz9gBQQgAAEIQMAVAQSCK3dgDAQgAAEIQMAHAQSCDz9gBQQgAAEIQMAVAQSCK3dgDAQgAAEIQMAHAQSCDz9gBQQgAAEIQMAVAQSCK3dgDAQgAAEIQMAHAQSCDz9gBQQgAAEIQMAVAQSCK3dgDAQgAAEIQMAHAQSCDz9gBQQgAAEIQMAVAQSCK3dgDAQgAAEIQMAHAQSCDz9gBQQgAAEIQMAVAQSCK3dgDAQgAAEIQMAHAQSCDz9gBQQgAAEIQMAVAQSCK3dgDAQgAAEIQMAHAQSCDz9gBQQgAAEIQMAVAQSCK3dgDAQgAAEIQMAHAQSCDz9gBQQgAAEIQMAVAQSCK3dgDAQgAAEIQMAHAQSCDz9gBQQgAAEIQMAVAQSCK3dgDAQgAAEIQMAHAQSCDz9gBQQgAAEIQMAVAQSCK3dgDAQgAAEIQMAHAQSCDz9gBQQgAAEIQMAVAQSCK3dgDAQgAAEIQMAHAQSCDz9gBQQgAAEIQMAVAQSCK3dgDAQgAAEIQMAHAQSCDz9gBQQgAAEIQMAVgf8BHUJAwu3W510AAAAASUVORK5CYII=" parent="-sU8y2Q3AdZbQh8XbGMl-1" vertex="1">
                    <mxGeometry x="1332" y="220" width="80" height="80" as="geometry"/>
                </mxCell>
            </root>
        </mxGraphModel>
    </diagram>
</mxfile>